<svg id="logo" class="logo" width="570" height="210" viewBox="-50 -50 770 100" fill="none" xmlns="http://www.w3.org/2000/svg">

<style>
* {
    margin: 0;
    padding: 0;
}
body {
    width: 100%;
    height: 100vh;
    background: #333;
}

.logo {
    position: absolute;
    top: 50%;
    left: 55%;
    transform: translate(-50%, -50%);
    animation: fill-anm 500ms ease forwards 3100ms;
}

.logo path:nth-child(1) {
    stroke-dasharray: 497;
    stroke-dashoffset: 497;
    animation: line-anm 2s ease forwards;
}

.logo path:nth-child(2) {
    stroke-dasharray: 497;
    stroke-dashoffset: 497;
    animation: line-anm 2s ease forwards 300ms;
}

.logo path:nth-child(3) {
    stroke-dasharray: 400;
    stroke-dashoffset: 400;
    animation: line-anm 2s ease forwards 600ms;
}

.logo path:nth-child(4) {
    stroke-dasharray: 497;
    stroke-dashoffset: 497;
    animation: line-anm 2s ease forwards 900ms;
}

.logo path:nth-child(5) {
    stroke-dasharray: 497;
    stroke-dashoffset: 497;
    animation: line-anm 2s ease forwards 1200ms;
}

.logo path:nth-child(6) {
    stroke-dasharray: 497;
    stroke-dashoffset: 497;
    animation: line-anm 2s ease forwards 1500ms;
}

.logo path:nth-child(7) {
    stroke-dasharray: 600;
    stroke-dashoffset: 600;
    animation: line-anm 2s ease forwards 1800ms;
}
    
.logo path:nth-child(8) {
    stroke-dasharray: 600;
    stroke-dashoffset: 600;
    animation: line-anm 2s ease forwards 2100ms;
}

.logo path:nth-child(9) {
    stroke-dasharray: 600;
    stroke-dashoffset: 600;
    animation: line-anm 2s ease forwards 2400ms;
}

.logo path:nth-child(10) {
    stroke-dasharray: 600;
    stroke-dashoffset: 600;
    animation: line-anm 2s ease forwards 2600ms;
}


@keyframes line-anm {
    to {
        stroke-dashoffset: 0;
    }
}

@keyframes fill-anm {
    from {
        fill: transparent;
    }
    to {
        fill: #9D70E5;
    }
}
</style>




<path d="M44.032 46.992C44.544 46.992 44.9493 46.9707 45.248 46.928C45.4613 46.8853 45.76 47.3547 46.144 48.336C46.528 49.2747 46.72 49.8933 46.72 50.192C46.72 50.448 46.4427 50.64 45.888 50.768C45.7173 50.768 45.3973 50.7893 44.928 50.832C44.5013 50.832 44.2027 50.9387 44.032 51.152C43.776 51.4507 43.1147 52.2613 42.048 53.584C41.024 54.9067 39.8933 55.9093 38.656 56.592C37.4613 57.232 36.16 57.552 34.752 57.552C34.5387 57.552 34.3467 57.4667 34.176 57.296C34.0053 57.1253 33.8133 56.8693 33.6 56.528C33.3867 56.144 33.1307 55.9093 32.832 55.824L32.512 55.568C32.3413 54.928 32.0853 54.1813 31.744 53.328L31.296 52.048C31.4667 52.2187 31.5947 52.3253 31.68 52.368C31.5093 51.5147 31.3173 50.8747 31.104 50.448C30.8907 50.0213 30.5067 49.6587 29.952 49.36C29.7813 49.2747 29.632 49.1467 29.504 48.976C29.4187 48.7627 29.3333 48.6133 29.248 48.528C27.2427 46.1813 25.5787 43.8133 24.256 41.424C24.1707 41.5093 24.1067 41.616 24.064 41.744C24.0213 41.8293 23.9787 41.9147 23.936 42L23.552 41.616V41.36C23.552 41.1467 23.488 40.9547 23.36 40.784C23.232 40.6133 23.104 40.5067 22.976 40.464C22.848 40.3787 22.7627 40.3147 22.72 40.272H21.824C21.44 40.272 21.0773 40.4 20.736 40.656C20.3947 40.912 20.16 41.0827 20.032 41.168L19.904 41.424C19.5627 41.68 19.392 42.064 19.392 42.576C19.392 43.0027 19.52 43.6 19.776 44.368C19.8187 44.5387 19.8827 44.816 19.968 45.2C20.0533 45.584 20.096 45.9253 20.096 46.224C20.096 46.6507 19.84 47.1627 19.328 47.76C19.1147 48.016 18.9227 48.2933 18.752 48.592C18.624 48.848 18.56 49.1253 18.56 49.424C18.56 49.8933 18.432 50.64 18.176 51.664C18.1333 51.792 18.048 52.0907 17.92 52.56C17.792 52.9867 17.728 53.4133 17.728 53.84C17.728 54.2667 17.664 54.544 17.536 54.672C17.4507 54.8 17.2373 54.928 16.896 55.056C16.5547 55.1413 16.256 55.312 16 55.568L12.928 56.464L12.736 56.848C12.4373 56.848 12.2027 56.8693 12.032 56.912L12.16 57.616L11.648 57.168L11.456 57.552C11.2427 57.2533 11.0293 57.104 10.816 57.104C10.6453 57.104 10.5173 57.1893 10.432 57.36C10.304 57.2747 10.0907 57.1893 9.792 57.104C9.536 57.0187 9.36533 56.8907 9.28 56.72C9.19466 56.5067 8.704 55.9733 7.808 55.12C6.95466 54.2667 6.4 53.7973 6.144 53.712L5.952 53.456C5.952 53.072 5.76 52.88 5.376 52.88H3.712L4.672 52.368C4.62933 52.2827 4.416 52.0053 4.032 51.536C3.69066 51.0667 3.52 50.6827 3.52 50.384C3.52 50.0853 3.584 49.8293 3.712 49.616C3.88266 49.4027 4.032 49.232 4.16 49.104C4.288 48.9333 4.39466 48.8053 4.48 48.72L3.52 49.104L3.456 48.976L4.16 48.208C3.94666 48.208 3.62666 48.1653 3.2 48.08C3.328 47.824 3.54133 47.632 3.84 47.504C4.13866 47.3333 4.43733 47.248 4.736 47.248C4.94933 47.248 5.12 47.248 5.248 47.248C5.41866 47.2053 5.61066 47.12 5.824 46.992L6.016 46.416H6.208V46.288H5.056V46.224C5.26933 46.1813 5.46133 46.1387 5.632 46.096C5.84533 46.0533 6.05866 46.0107 6.272 45.968C6.528 45.3707 6.80533 45.008 7.104 44.88C7.31733 44.7093 7.46666 44.5173 7.552 44.304C7.68 44.048 7.78666 43.6 7.872 42.96C8.128 40.9973 8.29866 39.5253 8.384 38.544C8.46933 38.1173 8.55466 37.4347 8.64 36.496C8.68266 36.1973 8.74666 35.8133 8.832 35.344C8.91733 34.8747 8.96 34.512 8.96 34.256V30.672L8.576 30.544V28.048C8.78933 28.3893 9.152 28.9013 9.664 29.584L9.92 29.456L9.792 27.728H9.28C9.32266 27.4293 9.408 26.96 9.536 26.32C9.664 25.6373 9.728 25.104 9.728 24.72C9.728 24.5067 9.62133 24.2507 9.408 23.952C9.23733 23.6107 9.152 23.3333 9.152 23.12C9.152 22.8213 9.25866 22.416 9.472 21.904C9.68533 21.392 9.792 21.008 9.792 20.752C9.792 20.4107 9.664 20.0907 9.408 19.792C9.19466 19.4933 8.85333 19.1307 8.384 18.704C7.95733 18.2773 7.744 17.9787 7.744 17.808C7.744 17.5093 8 16.7413 8.512 15.504C9.06666 14.2667 9.51466 13.648 9.856 13.648C10.1547 13.648 10.5173 13.904 10.944 14.416C11.4133 14.8853 11.8613 15.12 12.288 15.12C12.5013 15.12 13.1627 14.992 14.272 14.736C16.2347 14.2667 17.6853 14.032 18.624 14.032C19.7333 14.032 20.8853 14.288 22.08 14.8C23.3173 15.2693 24.2347 15.9093 24.832 16.72L24.896 17.104C24.896 17.36 24.832 17.7227 24.704 18.192C24.576 18.6613 24.512 19.0027 24.512 19.216C24.512 19.4293 24.576 19.664 24.704 19.92V20.368C24.448 20.9227 23.7867 22.416 22.72 24.848C22.72 24.5493 22.6987 24.336 22.656 24.208C22.528 24.4213 22.2933 24.848 21.952 25.488C21.6533 26.128 21.4613 26.7467 21.376 27.344C21.5467 27.3013 21.8027 27.28 22.144 27.28C24.1493 25.9573 26.0267 24.4853 27.776 22.864V22.48L29.312 21.072C29.1413 21.84 28.992 22.3947 28.864 22.736L29.12 22.864C29.3333 22.608 29.696 22.2667 30.208 21.84C30.0373 21.6693 29.9307 21.52 29.888 21.392C30.2293 21.1787 30.5707 20.9653 30.912 20.752C31.2533 20.5387 31.5947 20.3253 31.936 20.112C32.192 19.984 32.3627 19.7493 32.448 19.408C32.5333 19.024 32.6827 18.768 32.896 18.64C33.3227 18.2987 33.7493 18.064 34.176 17.936C34.6027 17.7653 34.9013 17.552 35.072 17.296C35.2427 16.9973 35.328 16.4 35.328 15.504V15.248V15.12C35.328 14.864 35.3707 14.6933 35.456 14.608C35.584 14.5227 35.7333 14.4587 35.904 14.416C36.0747 14.3733 36.2027 14.3307 36.288 14.288C36.4587 14.2027 36.8427 14.0533 37.44 13.84C38.08 13.6267 38.592 13.52 38.976 13.52C39.3173 13.52 39.488 13.7547 39.488 14.224L39.424 15.376C39.424 15.6747 39.488 15.9947 39.616 16.336L40.768 17.424C41.8347 18.4053 42.6453 19.216 43.2 19.856C43.7973 20.496 44.2667 21.2853 44.608 22.224C44.992 23.1627 45.184 24.2933 45.184 25.616C45.184 26.0427 45.0773 26.384 44.864 26.64C44.6507 26.8533 44.352 27.088 43.968 27.344C43.6267 27.5147 43.2853 27.7707 42.944 28.112L42.688 28.368L38.784 29.52L39.168 29.136C38.9547 29.1787 38.5707 29.264 38.016 29.392C37.504 29.4773 37.0773 29.6267 36.736 29.84C36.3947 30.0533 36.0533 30.3733 35.712 30.8C35.584 30.9707 34.9227 31.4613 33.728 32.272C32.5333 33.04 31.6373 33.616 31.04 34C33.0453 36.6027 35.1147 38.8853 37.248 40.848L37.632 40.784L39.04 42.064L37.376 41.936L37.312 42.128C37.568 42.2987 37.9093 42.5973 38.336 43.024C38.3787 42.896 38.5067 42.7893 38.72 42.704L40.064 44.432C40.2347 44.6453 40.4907 44.7733 40.832 44.816C41.1733 44.8587 41.408 44.944 41.536 45.072C41.8347 45.328 42.0053 45.648 42.048 46.032C42.1333 46.416 42.2827 46.672 42.496 46.8C42.7093 46.928 43.2213 46.992 44.032 46.992ZM31.552 20.624C31.552 20.88 31.5307 21.072 31.488 21.2L32.384 20.816V20.56C32 20.56 31.7227 20.5813 31.552 20.624ZM32.192 21.2C32.064 21.2427 31.7013 21.392 31.104 21.648C30.5493 21.904 30.272 22.2027 30.272 22.544C30.272 22.7147 30.2933 22.8213 30.336 22.864C30.592 22.992 30.7627 23.056 30.848 23.056C31.1893 23.056 31.424 22.9707 31.552 22.8C31.7227 22.6293 31.872 22.416 32 22.16C32.1707 21.8613 32.32 21.6053 32.448 21.392L32.192 21.2ZM10.304 26.064L10.624 25.04L10.368 24.848L9.792 25.68L10.304 26.064ZM10.816 25.424C10.7733 25.6373 10.6667 26 10.496 26.512C10.3253 26.9813 10.24 27.3227 10.24 27.536C10.24 28.048 10.4107 28.304 10.752 28.304C11.008 28.304 11.2213 28.1547 11.392 27.856C11.6053 27.5573 11.712 27.28 11.712 27.024C11.712 26.6827 11.6267 26.3627 11.456 26.064C11.2853 25.7227 11.1787 25.5093 11.136 25.424H10.816ZM25.92 25.68C24.9387 26.064 24.2347 26.576 23.808 27.216C24.064 27.2587 24.4693 27.28 25.024 27.28C25.3227 26.9813 25.6853 26.5333 26.112 25.936C26.0267 25.9787 25.92 26.0213 25.792 26.064C25.7067 26.1067 25.6 26.1493 25.472 26.192L25.92 25.68ZM10.112 38.416C10.4107 37.9467 10.56 37.3707 10.56 36.688C10.56 36.304 10.5173 35.8773 10.432 35.408C10.3467 34.9387 10.2827 34.5973 10.24 34.384C10.1973 34.512 10.112 34.7893 9.984 35.216L9.856 34.32C9.55733 35.1307 9.408 35.8347 9.408 36.432C9.408 37.1573 9.64266 37.8187 10.112 38.416ZM29.184 35.024C29.3973 35.7493 30.0587 36.1547 31.168 36.24L29.76 34.768V34.704C29.504 34.8747 29.312 34.9813 29.184 35.024ZM33.92 39.12L34.496 39.504C34.1547 38.864 33.792 38.3947 33.408 38.096C33.0667 37.7547 32.576 37.5627 31.936 37.52C32.0213 37.9467 32.2133 38.288 32.512 38.544C32.8107 38.8 33.1307 39.0347 33.472 39.248C33.8133 39.4613 34.0693 39.6107 34.24 39.696L33.92 39.12ZM9.728 43.792C10.24 43.28 10.496 42.7253 10.496 42.128C10.496 41.5733 10.24 40.9547 9.728 40.272C9.728 40.4853 9.70666 40.9547 9.664 41.68C9.62133 42.4053 9.51466 43.0453 9.344 43.6C9.13066 43.728 8.96 43.9627 8.832 44.304C8.704 44.6453 8.64 44.9653 8.64 45.264C8.64 45.8187 8.93866 46.096 9.536 46.096L9.728 46.032L9.28 45.712L10.112 45.2L9.728 43.792ZM39.04 44.816C38.9973 44.7307 38.8267 44.432 38.528 43.92C38.272 43.3653 37.9947 43.088 37.696 43.088C37.5253 43.088 37.3973 43.152 37.312 43.28C37.2267 43.408 37.184 43.536 37.184 43.664C37.184 44.048 37.312 44.3467 37.568 44.56C37.8667 44.7307 38.272 44.88 38.784 45.008L39.04 44.816ZM39.616 44.88C39.616 44.5387 39.5947 44.2827 39.552 44.112C39.424 44.1547 39.232 44.176 38.976 44.176C39.1467 44.5173 39.296 44.7733 39.424 44.944L39.616 44.88Z" stroke="#9D70E6" stroke-width="3"/>
<path d="M89.1055 51.216C89.1055 51.4293 88.9988 51.7493 88.7855 52.176C88.5722 52.56 88.4442 52.7947 88.4015 52.88L89.2335 53.136C88.7215 53.2213 88.3162 53.3067 88.0175 53.392C87.7188 53.4773 87.5695 53.648 87.5695 53.904L87.4415 54.096C87.1855 54.224 86.7802 54.672 86.2255 55.44C85.7135 56.1653 85.4148 56.6773 85.3295 56.976C85.2868 57.0613 85.1375 57.168 84.8815 57.296C84.6682 57.424 84.5188 57.5093 84.4335 57.552L84.1775 57.424C84.0495 57.424 83.9002 57.5733 83.7295 57.872L83.4735 57.616L83.1535 58.064L83.2175 57.36C83.0895 57.4027 82.8975 57.424 82.6415 57.424L82.5135 57.168C82.3428 57.168 81.9375 57.1467 81.2975 57.104C80.7002 57.0187 80.3162 56.9333 80.1455 56.848C80.1028 56.8053 80.0175 56.7413 79.8895 56.656C79.7615 56.528 79.6335 56.464 79.5055 56.464C79.1215 56.464 78.8655 56.4213 78.7375 56.336C78.6522 56.208 78.5882 56.0373 78.5455 55.824C78.5455 55.568 78.5242 55.3333 78.4815 55.12C75.6655 56.4427 71.9748 57.104 67.4095 57.104L66.1935 57.04L66.3215 57.168L66.2575 57.424L66.0015 57.488C65.9588 57.36 65.8308 57.296 65.6175 57.296H65.1695C64.9988 57.296 64.8282 57.168 64.6575 56.912H64.2735C63.8895 56.912 63.5695 56.8053 63.3135 56.592C62.8015 56.5067 62.4175 56.4213 62.1615 56.336L61.9055 56.4C61.7775 56.272 61.5642 56.1653 61.2655 56.08C59.3882 55.4827 57.7882 54.352 56.4655 52.688C55.1428 51.024 54.2682 49.168 53.8415 47.12L53.7135 46.608C53.7562 46.5227 53.7775 46.3733 53.7775 46.16L53.7135 45.328V45.136H53.5855L53.5215 45.776H53.3935L53.3295 45.52L53.3935 45.264C53.3508 45.0933 53.3935 45.008 53.5215 45.008H53.6495C53.6495 44.7947 53.6708 44.6453 53.7135 44.56C53.6282 44.3893 53.5855 44.24 53.5855 44.112L53.5215 42.448H53.1375C53.2228 42.32 53.3295 42.2133 53.4575 42.128L53.5215 42.192L53.6495 41.744H53.3295C53.3722 41.7013 53.4362 41.6587 53.5215 41.616C53.6495 41.5733 53.7135 41.5093 53.7135 41.424V41.296L53.4575 41.488L53.3935 41.168C53.3935 40.9547 53.4575 40.6987 53.5855 40.4C53.7562 40.1013 53.8628 39.8453 53.9055 39.632H53.7775L54.0975 39.44C54.0548 39.44 54.0122 39.4187 53.9695 39.376C53.9268 39.3333 53.9055 39.2907 53.9055 39.248C53.9055 39.1627 54.0335 38.992 54.2895 38.736L54.0975 38.672L54.2895 38.224L54.2255 38.16L54.4175 37.904L54.3535 37.84L54.1615 37.968C54.3322 37.584 54.5028 37.0507 54.6735 36.368C54.8442 35.6 55.0148 35.0667 55.1855 34.768C55.8682 33.4453 56.2735 32.592 56.4015 32.208V32.016C56.5722 31.9307 56.6575 31.824 56.6575 31.696V31.568C56.7855 31.3547 56.8708 31.248 56.9135 31.248H57.0415L57.2975 31.184V31.12H56.9775C57.3188 30.9493 57.5748 30.8 57.7455 30.672L57.4895 30.608C57.7455 30.3947 57.9802 30.16 58.1935 29.904C58.4495 29.7333 58.7055 29.4987 58.9615 29.2C59.2175 28.9013 59.3882 28.688 59.4735 28.56L58.7695 28.752L58.7055 28.688L59.3455 28.304L59.2175 28.24C59.3028 28.1547 59.3668 27.9627 59.4095 27.664C59.4948 27.3653 59.5588 27.1733 59.6015 27.088L59.1535 27.216C59.2815 27.088 59.4735 26.9813 59.7295 26.896V26.832L59.0255 27.024C59.2388 26.6827 59.6015 26.4693 60.1135 26.384C60.6255 26.256 60.9668 26.1707 61.1375 26.128C61.0095 26.0853 60.8175 26.064 60.5615 26.064L60.1135 26.128V26C60.1988 25.9573 60.3908 25.8933 60.6895 25.808C60.9882 25.7227 61.2655 25.5733 61.5215 25.36C61.3935 25.4027 61.1802 25.424 60.8815 25.424V25.36L61.4575 25.04L61.5215 25.296L61.6495 25.36C61.7348 25.36 61.8202 25.3173 61.9055 25.232C61.9908 25.104 62.0548 25.0187 62.0975 24.976L61.8415 25.104H61.6495C61.7348 24.9333 61.8842 24.848 62.0975 24.848L62.8655 24.912C63.0788 24.912 63.2708 24.8693 63.4415 24.784L63.1855 24.848C63.1855 24.6773 63.1002 24.592 62.9295 24.592C62.8015 24.592 62.6095 24.6347 62.3535 24.72C62.0975 24.7627 61.9055 24.8053 61.7775 24.848L61.7135 24.784L61.8415 24.592C61.9268 24.5493 62.1188 24.5067 62.4175 24.464C62.7588 24.4213 62.9295 24.3787 62.9295 24.336V24.144L63.5055 24.336L63.1215 24.464H63.3775L63.5695 24.656C63.6975 24.6133 63.8468 24.5707 64.0175 24.528C64.2308 24.4853 64.4015 24.4213 64.5295 24.336L64.7215 24.272L65.4895 24.4H65.9375V24.272L65.6815 24.336L65.9375 24.208C66.3642 24.208 66.6842 24.208 66.8975 24.208C67.1108 24.1653 67.2602 24.1013 67.3455 24.016C67.4735 23.9307 67.6868 23.8453 67.9855 23.76L67.7295 23.696C67.7722 23.6533 67.8575 23.6107 67.9855 23.568C68.1135 23.4827 68.1775 23.376 68.1775 23.248V23.12L68.4335 23.248L68.5615 23.44L68.4335 23.504C69.0735 23.2907 69.8842 23.12 70.8655 22.992C71.8895 22.864 72.8282 22.8 73.6815 22.8C75.1748 22.8 76.6255 22.992 78.0335 23.376C78.2468 23.1627 78.4175 23.056 78.5455 23.056C78.6735 23.056 78.9935 23.2267 79.5055 23.568C80.0175 23.9093 80.3162 24.1227 80.4015 24.208C80.7428 24.1653 81.3188 24.08 82.1295 23.952C82.9402 23.7813 83.6655 23.696 84.3055 23.696C85.5428 23.696 86.7802 23.888 88.0175 24.272C89.2548 24.6133 89.8735 25.232 89.8735 26.128C89.8735 26.896 89.5108 28.368 88.7855 30.544C88.4442 31.4827 88.2308 32.144 88.1455 32.528C88.2308 32.8693 88.2735 33.1467 88.2735 33.36C88.2735 33.7013 88.1455 33.9787 87.8895 34.192C87.8895 35.088 87.6762 36.5173 87.2495 38.48C87.2068 38.6933 87.1002 39.248 86.9295 40.144C86.7588 40.9973 86.6735 41.7867 86.6735 42.512C86.6735 42.5973 86.6735 42.64 86.6735 42.64L86.6095 43.088C86.3535 43.2587 86.2255 43.5147 86.2255 43.856C86.2255 44.496 86.3748 45.264 86.6735 46.16V46.288C87.1002 47.312 87.4202 47.8453 87.6335 47.888L86.7375 48.08V48.144H86.9295L87.0575 48.656C87.3135 48.7413 87.5055 48.784 87.6335 48.784L87.7615 48.72C87.8468 48.6773 87.9962 48.656 88.2095 48.656C88.6788 48.656 88.9988 48.848 89.1695 49.232L88.4655 49.424L89.1055 49.936L88.9775 50C88.8495 50 88.6148 49.9573 88.2735 49.872C88.3162 49.9147 88.4655 50.064 88.7215 50.32C88.9775 50.5333 89.1055 50.832 89.1055 51.216ZM66.1935 29.904C65.6388 30.2027 65.0842 30.5653 64.5295 30.992L64.9775 31.056C65.2335 31.056 65.5322 30.9707 65.8735 30.8V30.416L66.2575 30.544L65.8735 31.056C65.6602 31.0987 65.5108 31.184 65.4255 31.312C65.4255 31.3973 65.4682 31.4827 65.5535 31.568H65.8735C66.1295 31.44 66.2788 31.376 66.3215 31.376C66.4495 31.2907 66.6202 31.2267 66.8335 31.184C67.0468 31.0987 67.2175 31.0347 67.3455 30.992V31.184C67.5588 31.0987 67.8362 31.0347 68.1775 30.992C68.5188 30.9493 68.7962 30.8853 69.0095 30.8C69.2228 30.672 69.3722 30.48 69.4575 30.224C69.4148 30.224 69.3295 30.2027 69.2015 30.16C69.1162 30.0747 69.0735 29.9893 69.0735 29.904C69.0735 29.776 69.1375 29.648 69.2655 29.52C68.9668 29.5627 68.5828 29.6053 68.1135 29.648C67.6868 29.6907 67.3455 29.712 67.0895 29.712L67.5375 29.52L67.3455 29.328C67.6868 29.2 68.0495 29.0293 68.4335 28.816C68.2628 28.7307 68.1135 28.688 67.9855 28.688C67.8148 28.688 67.6228 28.752 67.4095 28.88C67.3242 29.008 67.1108 29.1573 66.7695 29.328C66.4708 29.4987 66.2788 29.6693 66.1935 29.84V29.904ZM63.8255 34.896C63.8682 34.896 64.0388 34.7893 64.3375 34.576C64.6362 34.1067 65.0842 33.6587 65.6815 33.232C66.3215 32.7627 66.9402 32.4213 67.5375 32.208L67.4735 32.08L65.9375 32.272C66.1508 32.1867 66.3642 32.144 66.5775 32.144C66.8335 32.1013 67.0682 32.0373 67.2815 31.952C67.5375 31.8667 67.7295 31.7173 67.8575 31.504C67.6442 31.5467 67.3242 31.632 66.8975 31.76C66.5135 31.8453 66.1722 31.888 65.8735 31.888H65.4895C65.4468 31.8027 65.3615 31.76 65.2335 31.76C64.7215 31.76 64.3162 32.016 64.0175 32.528C63.7615 33.04 63.5482 33.5733 63.3775 34.128C63.2495 34.64 63.1642 34.9813 63.1215 35.152H63.3135L63.1215 35.792L63.2495 35.856L63.8255 34.896ZM76.1775 43.792C76.3055 42.9813 76.4975 42.1067 76.7535 41.168C77.4362 38.3093 77.7988 36.2613 77.8415 35.024L77.5215 34.896V33.68C76.7535 33.4667 76.0495 33.36 75.4095 33.36C74.9402 33.36 74.5988 33.3813 74.3855 33.424L74.0015 33.552L73.8095 33.68C73.9375 33.808 74.0015 33.8933 74.0015 33.936L73.9375 34L73.6815 33.936L73.8095 33.36H73.6175C73.3615 33.5307 73.1695 33.6373 73.0415 33.68L72.7215 33.232L72.0815 33.296V33.552L71.8895 33.296L71.6335 33.36L71.8255 33.68C71.7402 33.5947 71.6122 33.5093 71.4415 33.424V33.36C69.1802 33.872 67.4308 34.896 66.1935 36.432C64.9988 37.9253 64.4015 39.8453 64.4015 42.192C64.4015 43.7707 64.8495 45.1147 65.7455 46.224C66.6842 47.2907 67.9428 47.824 69.5215 47.824C71.4415 47.824 72.8068 47.6107 73.6175 47.184L73.2335 47.056C73.3188 46.8427 73.5535 46.6933 73.9375 46.608L74.0015 46.416L74.1935 46.544H74.3855L74.5135 46.096L74.8975 46.224L74.7695 46.544C74.9402 46.544 75.0468 46.5227 75.0895 46.48C75.1748 46.2667 75.3028 46.1387 75.4735 46.096V45.968H75.6655C75.4522 45.9253 75.1535 45.904 74.7695 45.904V45.84C75.0255 45.84 75.3242 45.7973 75.6655 45.712C75.8362 45.2427 75.9428 44.8373 75.9855 44.496H75.6015L75.6655 44.176H76.0495L76.1775 43.856L76.0495 43.728L76.1775 43.792ZM78.5455 34.128C78.4602 34.0427 78.2895 33.9573 78.0335 33.872L78.4175 34.32L78.5455 34.256V34.128ZM61.9695 40.528C62.0548 40.4 62.1828 39.4827 62.3535 37.776C62.5668 36.0693 62.6522 35.088 62.6095 34.832L62.7375 34.576H62.6095C62.4815 34.7467 62.2895 35.2587 62.0335 36.112C61.8202 36.9653 61.6708 37.52 61.5855 37.776L60.9455 39.952V40.4L61.3295 40.08L61.3935 40.144C61.3508 40.2293 61.3082 40.336 61.2655 40.464C61.2228 40.5493 61.2015 40.6773 61.2015 40.848L61.3935 40.976C61.5215 40.7627 61.7135 40.6133 61.9695 40.528ZM78.8015 40.528C79.0148 40.1867 79.1215 39.8027 79.1215 39.376C79.1215 39.1627 79.0788 38.8853 78.9935 38.544C78.9508 38.2027 78.9082 37.9253 78.8655 37.712L78.6095 38.288C78.6095 37.9893 78.5882 37.776 78.5455 37.648C78.2895 38.2453 78.1615 38.736 78.1615 39.12C78.1615 39.632 78.3748 40.1013 78.8015 40.528ZM78.4815 42.256L78.6095 42.128L78.4815 41.872C78.4388 41.9573 78.4175 42.0853 78.4175 42.256H78.4815Z" stroke="#9D70E6" stroke-width="3"/>
<path d="M131.398 26.768C131.441 26.8533 131.484 27.0027 131.527 27.216C131.569 27.3867 131.59 27.5573 131.59 27.728C131.505 27.8987 131.228 28.5173 130.758 29.584C130.289 30.608 130.055 31.248 130.055 31.504C130.055 31.632 130.076 31.7387 130.118 31.824L129.991 32.208C129.905 32.2507 129.82 32.3147 129.734 32.4C129.649 32.4853 129.607 32.5707 129.607 32.656C129.607 32.784 129.735 33.0613 129.991 33.488C130.289 33.9147 130.46 34.1707 130.503 34.256C130.417 34.2133 130.268 34.128 130.055 34C129.884 33.872 129.735 33.7867 129.607 33.744C129.393 34 129.18 34.32 128.967 34.704C128.753 35.0453 128.518 35.3227 128.262 35.536C128.006 35.7067 127.665 35.792 127.239 35.792C127.068 35.792 126.684 35.7493 126.087 35.664C126.3 35.7493 126.577 35.92 126.919 36.176L126.854 36.432C126.684 36.3893 126.492 36.3467 126.279 36.304C126.108 36.2187 125.937 36.1547 125.767 36.112C125.809 36.368 125.916 36.624 126.087 36.88H125.895C125.596 36.88 125.34 36.816 125.127 36.688C124.956 36.56 124.721 36.3467 124.423 36.048C124.167 35.7493 123.932 35.536 123.719 35.408L123.143 35.6L123.015 35.408L122.951 35.472C122.993 35.6 123.057 35.7493 123.143 35.92C123.228 36.048 123.313 36.2187 123.398 36.432L123.335 36.496C123.292 36.4533 123.164 36.4533 122.951 36.496C122.737 36.496 122.609 36.496 122.566 36.496C120.604 36.7093 117.916 37.2427 114.503 38.096L114.055 40.656C113.628 42.704 113.415 44.1973 113.415 45.136C113.415 45.1787 113.393 45.2213 113.351 45.264C113.351 45.3067 113.372 45.328 113.415 45.328V45.84C113.116 46.0107 112.966 46.3307 112.966 46.8C112.966 47.184 113.052 47.76 113.223 48.528C113.393 49.296 113.479 49.872 113.479 50.256C113.479 50.5973 113.265 51.0027 112.839 51.472C112.412 51.8987 112.199 52.368 112.199 52.88C112.199 53.2213 112.135 53.6053 112.007 54.032C111.879 54.416 111.793 54.672 111.751 54.8C111.409 55.6533 111.239 56.2933 111.239 56.72C111.196 57.1467 111.153 57.4027 111.111 57.488C111.068 57.5733 110.94 57.6373 110.727 57.68C110.513 57.7227 110.364 57.744 110.279 57.744C110.193 57.744 110.023 57.8293 109.767 58C109.511 58.2133 109.276 58.3413 109.062 58.384C108.551 58.4267 107.782 58.576 106.758 58.832L106.566 59.152H105.926C105.969 59.28 105.991 59.5147 105.991 59.856C105.905 59.6853 105.777 59.5147 105.606 59.344L105.351 59.728C105.223 59.4293 105.009 59.28 104.711 59.28C104.668 59.28 104.561 59.3227 104.391 59.408C103.964 59.28 103.558 59.0453 103.174 58.704C102.833 58.4053 102.428 58 101.959 57.488C101.319 56.6773 100.785 56.208 100.358 56.08L100.103 55.824C100.103 55.5253 99.9105 55.3547 99.5265 55.312C99.1425 55.2267 98.6518 55.184 98.0545 55.184C98.5238 54.928 98.8012 54.7787 98.8865 54.736C98.1612 53.7547 97.7985 53.2 97.7985 53.072C97.7985 52.816 97.9265 52.5387 98.1825 52.24C98.4385 51.8987 98.6092 51.6427 98.6945 51.472C98.2252 51.6427 97.9265 51.7493 97.7985 51.792L97.7345 51.6L98.4385 51.088L97.5425 50.96C97.7132 50.4907 98.1185 50.256 98.7585 50.256C99.2278 50.256 99.6758 50.2133 100.103 50.128L100.167 49.488H100.423V49.424L99.2705 49.36V49.296C99.8678 49.2107 100.252 49.168 100.423 49.168C100.593 48.784 101.062 46.608 101.83 42.64C102.598 38.6293 102.982 36.3467 102.982 35.792L102.599 35.664V33.424C103.111 34.0213 103.452 34.4693 103.622 34.768H103.879C103.836 34.4267 103.814 33.9147 103.814 33.232H103.367C103.409 32.848 103.473 32.3787 103.559 31.824C103.644 31.2693 103.687 30.8213 103.687 30.48C103.687 30.3093 103.622 30.096 103.494 29.84C103.366 29.5413 103.302 29.328 103.302 29.2C103.302 28.9013 103.366 28.5387 103.494 28.112C103.665 27.6427 103.751 27.3013 103.751 27.088C103.751 26.7467 103.644 26.448 103.43 26.192C103.217 25.8933 102.897 25.552 102.47 25.168C102.086 24.7413 101.895 24.464 101.895 24.336C101.895 24.0373 102.15 23.3547 102.662 22.288C103.217 21.2213 103.601 20.688 103.814 20.688C103.942 20.688 104.326 20.9227 104.966 21.392C105.436 21.776 105.82 22.032 106.118 22.16L107.527 21.968C109.02 21.6693 110.3 21.52 111.367 21.52C112.732 21.52 114.055 21.776 115.335 22.288C116.615 22.7573 117.255 23.568 117.255 24.72V24.912L122.758 23.248L125.382 22.48C125.639 22.48 125.852 22.6507 126.023 22.992C126.065 23.12 126.193 23.2053 126.407 23.248C126.663 23.2907 126.833 23.3333 126.919 23.376C127.26 23.5467 127.665 23.8453 128.135 24.272C128.647 24.6987 129.03 25.0187 129.286 25.232C129.414 25.1893 129.607 25.168 129.863 25.168L130.247 25.808C130.545 25.5947 130.737 25.4027 130.823 25.232C130.823 25.4453 130.78 25.68 130.695 25.936H131.143C131.015 26.192 130.951 26.3627 130.951 26.448C130.951 26.5333 130.993 26.6187 131.079 26.704C131.207 26.7467 131.313 26.768 131.398 26.768ZM104.326 31.696L104.519 30.928L104.326 30.736L103.814 31.376L104.326 31.696ZM104.646 33.808C104.945 33.808 105.18 33.7013 105.351 33.488C105.521 33.232 105.606 32.9547 105.606 32.656C105.606 32.4427 105.542 32.1867 105.414 31.888C105.329 31.5893 105.222 31.3547 105.094 31.184L104.774 31.248C104.732 31.376 104.625 31.6533 104.454 32.08C104.326 32.464 104.262 32.8267 104.262 33.168C104.262 33.296 104.284 33.4453 104.326 33.616C104.412 33.744 104.518 33.808 104.646 33.808ZM104.134 42.64C104.39 42.256 104.519 41.7867 104.519 41.232C104.519 40.8907 104.476 40.5067 104.391 40.08C104.305 39.6107 104.241 39.2693 104.199 39.056L103.942 39.824L103.814 38.992C103.558 39.76 103.43 40.4 103.43 40.912C103.43 41.5947 103.665 42.1707 104.134 42.64ZM103.622 47.44C104.134 47.0133 104.391 46.544 104.391 46.032C104.391 45.392 104.134 44.816 103.622 44.304C103.622 45.2427 103.558 46.224 103.43 47.248C103.174 47.3333 102.982 47.5467 102.854 47.888C102.726 48.1867 102.662 48.5067 102.662 48.848C102.662 49.1893 102.961 49.4027 103.559 49.488L103.687 49.36L103.367 49.104C103.452 49.0187 103.708 48.8907 104.134 48.72L103.622 47.44Z" stroke="#9D70E6" stroke-width="3"/>
<path d="M170.876 30.544C170.833 30.7573 170.684 30.928 170.428 31.056C170.215 31.184 169.98 31.248 169.724 31.248H169.404C169.191 31.248 168.977 31.3333 168.764 31.504L168.636 31.888L168.444 31.952V32.08L169.404 32.016V32.08C168.977 32.1653 168.657 32.2507 168.444 32.336C168.316 32.6347 168.039 34.576 167.612 38.16C167.185 41.744 166.972 43.8347 166.972 44.432V44.56L167.356 44.688C167.356 45.1573 167.399 45.8187 167.484 46.672C167.441 46.6293 167.1 46.224 166.46 45.456L166.268 45.52C166.268 45.8613 166.311 46.3307 166.396 46.928H166.844C166.716 48.464 166.652 49.2747 166.652 49.36C166.652 49.5307 166.737 49.744 166.908 50C167.121 50.256 167.228 50.4907 167.228 50.704C167.228 50.9173 167.143 51.216 166.972 51.6C166.844 51.984 166.78 52.2613 166.78 52.432C166.78 52.7307 166.887 53.008 167.1 53.264C167.313 53.52 167.633 53.8187 168.06 54.16C168.487 54.5013 168.7 54.7573 168.7 54.928C168.7 55.2267 168.487 55.8667 168.06 56.848C167.676 57.7867 167.377 58.256 167.164 58.256C166.993 58.256 166.652 58.064 166.14 57.68C165.671 57.296 165.308 57.104 165.052 57.104C164.753 57.104 164.049 57.232 162.94 57.488C161.489 57.8293 160.401 58 159.676 58C158.609 58 157.564 57.8293 156.54 57.488C155.559 57.104 155.025 56.5067 154.94 55.696C154.727 55.8667 154.428 56.016 154.044 56.144C153.66 56.272 153.361 56.3787 153.148 56.464V56.528L154.3 56.4C154.129 56.528 153.425 56.7413 152.188 57.04C152.145 57.1253 152.124 57.2533 152.124 57.424C151.356 57.296 150.929 57.232 150.844 57.232H150.396L149.948 57.424C149.393 57.424 148.967 57.4453 148.668 57.488L147.388 57.552C146.62 57.552 145.873 57.424 145.148 57.168L145.852 56.912C145.98 57.1253 146.172 57.232 146.428 57.232C146.641 57.232 146.876 57.1467 147.132 56.976C146.151 56.8053 145.34 56.6347 144.7 56.464C144.103 56.2507 143.463 55.9307 142.78 55.504C142.652 55.504 142.503 55.568 142.332 55.696C142.204 55.7813 142.119 55.8453 142.076 55.888L141.948 55.568L141.372 55.888L141.756 55.312C141.585 55.2693 141.329 55.248 140.988 55.248C140.007 54.5653 139.175 53.6907 138.492 52.624C137.809 51.5573 137.404 50.4693 137.276 49.36L137.404 48.848C137.404 48.592 137.276 48.2933 137.02 47.952C136.807 47.6107 136.7 47.3333 136.7 47.12C136.7 46.9067 136.956 46.3733 137.468 45.52C138.108 44.496 138.428 43.8133 138.428 43.472C138.428 43.216 138.343 43.024 138.172 42.896L138.3 42.448L138.94 42.64V40.08C138.94 39.5253 139.004 38.9707 139.132 38.416C139.217 37.648 139.26 37.0933 139.26 36.752V36.624C139.217 36.624 139.175 36.6667 139.132 36.752C139.089 36.8373 139.047 36.88 139.004 36.88C139.004 36.88 138.983 36.88 138.94 36.88C138.94 36.8373 138.94 36.816 138.94 36.816C138.94 36.304 139.089 35.792 139.388 35.28C139.644 34.6827 139.772 34.192 139.772 33.808C139.772 33.424 139.708 33.04 139.58 32.656C139.452 32.2293 139.367 31.952 139.324 31.824L139.132 32.336L138.364 28.816L138.492 28.432C138.791 28.1333 138.94 27.8133 138.94 27.472V27.088C138.94 26.5333 139.068 26.128 139.324 25.872C139.879 25.2747 140.86 24.784 142.268 24.4C143.719 23.9733 144.935 23.76 145.916 23.76C146.727 23.76 147.559 23.824 148.412 23.952C148.924 24.0373 149.671 24.784 150.652 26.192C151.633 27.6 152.188 28.6453 152.316 29.328V29.392C152.316 29.4347 152.209 29.4773 151.996 29.52C151.783 29.5627 151.676 29.6693 151.676 29.84C151.676 30.0107 151.697 30.2027 151.74 30.416C151.825 30.5867 151.868 30.7573 151.868 30.928C151.868 31.0133 151.761 31.1413 151.548 31.312C151.377 31.4827 151.271 31.6747 151.228 31.888L150.908 34.128H150.396L149.756 35.472L150.012 35.6C150.268 35.472 150.524 35.28 150.78 35.024C151.079 34.7253 151.335 34.512 151.548 34.384C151.164 35.4507 150.929 36.1333 150.844 36.432C150.673 36.432 150.524 36.496 150.396 36.624C150.055 37.7333 149.884 39.2053 149.884 41.04C149.884 41.296 149.863 41.7653 149.82 42.448C149.777 43.088 149.713 43.6853 149.628 44.24C149.543 44.5813 149.5 44.8373 149.5 45.008C149.5 45.4773 149.756 45.776 150.268 45.904L150.46 46.608C150.631 46.608 150.737 46.5867 150.78 46.544V46.672L151.612 46.8L151.548 46.864H150.844C150.801 46.992 150.716 47.056 150.588 47.056V47.376C150.887 47.3333 151.057 47.44 151.1 47.696H151.548C152.401 47.696 152.849 47.9093 152.892 48.336L152.06 48.464L152.7 48.592V48.464C153.169 48.464 153.788 48.5493 154.556 48.72C154.428 48.464 154.108 48.144 153.596 47.76C153.127 47.3333 152.849 47.0347 152.764 46.864C152.764 46.8213 152.807 46.7787 152.892 46.736C153.02 46.6933 153.105 46.672 153.148 46.672L153.212 47.12L153.468 47.184L153.788 46.736C153.788 47.248 153.809 47.568 153.852 47.696C153.895 47.7813 154.023 47.8667 154.236 47.952C154.449 47.9947 154.684 48.08 154.94 48.208L154.3 47.12C154.471 47.12 154.684 47.1627 154.94 47.248C155.239 47.3333 155.388 47.44 155.388 47.568C155.388 47.7813 155.431 47.9307 155.516 48.016C155.644 48.1013 155.772 48.1653 155.9 48.208C156.071 48.2507 156.177 48.272 156.22 48.272C156.263 48.1013 156.305 47.8667 156.348 47.568C156.391 47.2693 156.412 46.9067 156.412 46.48C156.412 45.4133 156.54 43.8133 156.796 41.68C156.839 41.296 156.903 40.6133 156.988 39.632C157.073 38.608 157.116 37.6907 157.116 36.88C157.116 36.8373 157.116 36.7947 157.116 36.752C157.116 36.6667 157.095 36.624 157.052 36.624V36.112C157.308 35.8987 157.436 35.6427 157.436 35.344C157.436 35.0027 157.308 34.448 157.052 33.68C157.009 33.552 156.945 33.3387 156.86 33.04C156.775 32.6987 156.732 32.4 156.732 32.144C156.732 31.8453 156.903 31.4827 157.244 31.056C157.585 30.5867 157.756 30.1813 157.756 29.84C157.756 29.4133 157.841 28.816 158.012 28.048C158.183 27.1947 158.268 26.5547 158.268 26.128V25.872C158.268 25.5733 158.311 25.4027 158.396 25.36C158.481 25.3173 158.737 25.2747 159.164 25.232L159.676 24.72C160.273 24.4213 161.127 24.1867 162.236 24.016L162.3 23.696C162.428 23.6533 162.641 23.632 162.94 23.632C162.94 23.4613 162.897 23.248 162.812 22.992L163.196 23.376L163.388 23.056C163.644 23.312 163.836 23.44 163.964 23.44C164.135 23.44 164.241 23.376 164.284 23.248C165.009 23.5467 165.777 24.1013 166.588 24.912C167.399 25.6373 167.889 26.0427 168.06 26.128L168.316 26.32C168.316 26.576 168.465 26.704 168.764 26.704H170.236C170.151 26.7467 169.873 26.896 169.404 27.152C169.489 27.2373 169.681 27.4507 169.98 27.792C170.321 28.1333 170.492 28.4533 170.492 28.752C170.492 29.0507 170.471 29.264 170.428 29.392L169.788 30.096C170.129 29.9253 170.385 29.8187 170.556 29.776L170.684 29.84C170.641 29.968 170.556 30.096 170.428 30.224C170.3 30.3093 170.193 30.3733 170.108 30.416L170.876 30.544ZM150.332 32.848L150.908 32.464C150.865 32.2933 150.759 32.08 150.588 31.824L150.332 31.952V32.848ZM165.948 34.192C166.076 34.1067 166.183 33.936 166.268 33.68C166.396 33.3813 166.46 33.1253 166.46 32.912C166.46 32.4427 166.183 32.208 165.628 32.208L165.5 32.336L165.884 32.528C165.756 32.656 165.521 32.8053 165.18 32.976C165.308 33.1893 165.457 33.552 165.628 34.064C165.244 34.448 165.052 34.8533 165.052 35.28C165.052 35.7493 165.308 36.2827 165.82 36.88V35.536C165.82 34.896 165.863 34.448 165.948 34.192ZM149.692 32.272C149.607 32.3573 149.415 32.5707 149.116 32.912C148.817 33.2533 148.668 33.5733 148.668 33.872C148.668 34.0427 148.732 34.2133 148.86 34.384C148.988 34.512 149.137 34.576 149.308 34.576C149.564 34.576 149.799 34.3627 150.012 33.936V32.272H149.692ZM148.028 40.016C148.967 39.2907 149.436 38.416 149.436 37.392L149.372 36.688C149.329 36.944 149.223 37.1787 149.052 37.392V36.752C148.967 36.9227 148.753 37.2853 148.412 37.84C148.071 38.3947 147.9 38.928 147.9 39.44C147.9 39.568 147.943 39.76 148.028 40.016ZM165.948 41.616C166.161 41.0613 166.268 40.5493 166.268 40.08C166.268 39.3973 166.033 38.8213 165.564 38.352C165.393 38.6933 165.308 39.0773 165.308 39.504C165.308 39.8027 165.351 40.1653 165.436 40.592C165.564 41.0187 165.649 41.36 165.692 41.616L165.82 40.976L165.948 41.616ZM148.156 43.792L148.604 42.064C147.708 42.7467 147.26 43.408 147.26 44.048L148.156 43.792ZM165.628 48.848C165.671 48.6773 165.735 48.4 165.82 48.016C165.948 47.632 166.012 47.2907 166.012 46.992C166.012 46.6933 165.863 46.544 165.564 46.544C165.351 46.544 165.18 46.672 165.052 46.928C164.924 47.1413 164.86 47.3547 164.86 47.568C164.86 47.696 165.052 48.144 165.436 48.912L165.628 48.848ZM166.076 48.272C165.948 48.784 165.884 49.0613 165.884 49.104L166.076 49.232L166.524 48.656L166.076 48.272ZM154.94 54.48C154.684 54.736 154.556 54.9493 154.556 55.12V55.248L154.876 55.184C154.919 55.0133 154.94 54.7787 154.94 54.48Z" stroke="#9D70E6" stroke-width="3"/>
<path d="M201.902 12.304C201.902 12.3893 201.86 12.5173 201.775 12.688C201.817 12.7307 201.839 12.816 201.839 12.944C201.839 13.2427 201.753 13.4133 201.583 13.456L201.454 13.904C200.857 14.3733 200.111 15.0133 199.215 15.824C198.361 16.6347 197.828 17.2107 197.615 17.552C197.359 17.68 197.038 17.936 196.654 18.32C196.313 18.704 196.014 18.96 195.758 19.088C195.673 19.2587 195.46 19.4293 195.118 19.6H195.055C194.927 19.728 194.735 19.8347 194.479 19.92L194.286 20.112C193.732 20.24 193.433 20.304 193.391 20.304H193.262C193.092 20.3893 192.836 20.432 192.495 20.432C191.428 20.432 190.681 20.3253 190.255 20.112C189.956 19.9413 189.614 19.728 189.23 19.472C188.846 19.216 188.527 19.024 188.271 18.896C188.228 18.8533 188.121 18.8107 187.951 18.768C187.78 18.6827 187.673 18.576 187.63 18.448C187.46 18.3627 187.31 18.2347 187.182 18.064C187.054 17.8933 186.969 17.744 186.926 17.616L186.607 17.488C186.436 17.3173 186.287 17.2107 186.159 17.168C186.116 16.9973 185.902 16.72 185.518 16.336V16.144L185.327 16.016C185.199 16.016 185.092 15.952 185.007 15.824C184.964 15.7813 184.879 15.6533 184.751 15.44C184.665 15.312 184.58 15.1627 184.495 14.992C184.367 14.9067 184.303 14.8 184.303 14.672C184.132 14.4587 183.961 14.2027 183.79 13.904C183.662 13.5627 183.556 13.328 183.471 13.2C183.428 13.1573 183.406 13.0507 183.406 12.88C183.15 12.624 183.023 11.664 183.023 10C183.023 9.70133 183.044 9.46666 183.087 9.296C183.172 9.08266 183.278 8.912 183.406 8.784C183.534 8.656 183.641 8.50667 183.727 8.336V8.272C183.769 8.22933 183.79 8.16533 183.79 8.08V7.952C183.876 7.78133 184.004 7.65333 184.174 7.568L184.238 7.44C184.238 7.22667 184.345 7.056 184.559 6.928H184.686L184.814 6.8C185.113 6.8 185.305 6.75733 185.391 6.672C185.433 6.62933 185.561 6.544 185.775 6.416L186.094 6.032L186.863 5.84L186.99 5.584C187.246 5.37066 187.524 5.22133 187.822 5.136C188.121 5.008 188.356 4.90133 188.527 4.816C188.527 4.64533 188.505 4.51733 188.462 4.432C188.462 4.176 188.548 3.96266 188.719 3.792C188.847 3.792 189.081 3.74933 189.423 3.664C189.764 3.23733 190.148 3.024 190.574 3.024L191.727 3.088C191.812 3.00267 192.068 2.896 192.495 2.768C192.921 2.64 193.156 2.53333 193.199 2.448C193.327 2.36266 193.476 2.192 193.646 1.936L194.094 1.744L194.926 1.68L195.439 1.744C195.652 1.82933 195.758 2.064 195.758 2.448V3.152C195.758 3.45066 195.801 3.64266 195.887 3.728L196.527 3.792L196.59 3.856L196.398 4.048L196.59 4.112V4.176L196.719 4.112C196.804 4.15466 196.974 4.176 197.23 4.176C197.529 4.13333 197.721 4.112 197.807 4.112C198.02 4.24 198.169 4.496 198.255 4.88C198.297 4.92266 198.318 4.98666 198.318 5.072C198.318 5.15733 198.276 5.24266 198.191 5.328V5.392C198.489 5.392 198.703 5.41333 198.831 5.456C198.959 5.49866 199.065 5.584 199.15 5.712C199.236 5.79733 199.364 5.904 199.535 6.032C199.705 6.07466 199.854 6.13866 199.982 6.224C200.11 6.30933 200.196 6.43733 200.238 6.608C200.281 6.65066 200.324 6.736 200.367 6.864C200.452 6.992 200.537 7.07733 200.622 7.12V7.184C201.049 7.90933 201.262 8.37867 201.262 8.592C201.433 8.93333 201.54 9.18933 201.583 9.36C201.711 9.40266 201.775 9.50933 201.775 9.68H201.839L201.967 9.936C201.967 10.192 201.924 10.4907 201.839 10.832L201.902 11.216C202.03 11.2587 202.094 11.3867 202.094 11.6C202.094 11.6427 202.094 11.7707 202.094 11.984C202.137 12.1973 202.073 12.304 201.902 12.304ZM188.079 10.64L187.503 10.704L187.566 10.896L188.014 11.152H188.143L188.335 10.768L188.271 10.64H188.079ZM191.663 23.504C193.113 23.504 194.521 23.696 195.887 24.08C197.252 24.4213 197.935 25.0827 197.935 26.064C197.935 26.704 197.849 27.344 197.678 27.984C197.508 28.5813 197.252 29.392 196.911 30.416C196.228 32.2933 195.887 33.744 195.887 34.768C195.887 35.5787 195.737 37.2853 195.439 39.888C195.14 41.7653 194.991 43.216 194.991 44.24C194.991 44.2827 194.991 44.3253 194.991 44.368C194.991 44.4107 195.012 44.432 195.055 44.432V44.944C194.713 45.072 194.542 45.3067 194.542 45.648C194.542 46.1173 194.692 46.7147 194.991 47.44C195.332 48.1227 195.503 48.5493 195.503 48.72C195.503 49.104 195.289 49.4667 194.863 49.808C194.393 50.192 194.159 50.576 194.159 50.96C194.159 51.3867 194.031 51.984 193.775 52.752C193.519 53.6053 193.391 54.2453 193.391 54.672C193.391 55.056 193.327 55.312 193.199 55.44C193.113 55.5253 192.9 55.568 192.559 55.568C192.217 55.568 191.919 55.7387 191.663 56.08C189.913 56.5067 188.804 56.7413 188.335 56.784L188.206 57.104H187.439L187.63 57.744L187.055 57.424L186.863 57.68C186.521 57.4667 186.287 57.36 186.159 57.36C186.031 57.36 185.924 57.424 185.839 57.552C185.711 57.5093 185.476 57.4667 185.135 57.424C184.793 57.3813 184.537 57.2533 184.367 57.04C184.196 56.8267 183.684 56.464 182.831 55.952C181.977 55.3973 181.295 54.992 180.783 54.736L180.59 54.608C180.548 54.3093 180.313 54.16 179.887 54.16H178.158C178.585 53.9893 178.926 53.8827 179.182 53.84C179.097 53.7973 178.841 53.584 178.415 53.2C177.988 52.7733 177.775 52.4533 177.775 52.24C177.775 51.9413 177.839 51.7067 177.967 51.536C178.095 51.3653 178.329 51.152 178.671 50.896L177.71 51.152L177.646 51.088L178.286 50.512L177.262 50.448C177.39 50.2347 177.604 50.064 177.902 49.936C178.201 49.808 178.5 49.744 178.798 49.744C179.225 49.744 179.652 49.68 180.079 49.552C180.121 49.4667 180.143 49.3173 180.143 49.104L180.462 49.04V48.912H179.182C179.652 48.784 180.078 48.72 180.462 48.72C180.633 48.2933 180.996 46.352 181.551 42.896C182.105 39.3973 182.383 37.3707 182.383 36.816V36.688C182.169 36.688 182.02 36.6667 181.934 36.624C181.934 36.1547 181.913 35.7707 181.87 35.472C181.828 35.1307 181.785 34.8533 181.742 34.64C182.468 35.28 182.895 35.664 183.023 35.792L183.406 35.728C183.321 35.5147 183.257 35.28 183.215 35.024C183.172 34.7253 183.15 34.512 183.15 34.384H182.51C182.766 33.104 182.895 32.336 182.895 32.08C182.895 31.824 182.766 31.5893 182.51 31.376C182.297 31.1627 182.191 30.9493 182.191 30.736C182.191 30.4373 182.276 30.1173 182.447 29.776C182.617 29.392 182.702 29.1147 182.702 28.944C182.702 28.6453 182.574 28.3893 182.318 28.176C182.062 27.92 181.657 27.6427 181.102 27.344C180.548 27.0453 180.271 26.8107 180.271 26.64C180.271 26.2987 180.526 25.6587 181.038 24.72C181.593 23.7813 182.02 23.312 182.318 23.312C182.617 23.312 183.108 23.5253 183.79 23.952C184.345 24.336 184.751 24.528 185.007 24.528C185.433 24.528 186.286 24.3573 187.566 24.016C187.822 23.9733 188.1 23.9093 188.398 23.824C188.697 23.7387 188.996 23.6747 189.294 23.632C189.806 23.5467 190.596 23.504 191.663 23.504ZM183.598 33.04C183.684 32.912 183.769 32.6347 183.855 32.208L183.598 32.08C183.513 32.1653 183.407 32.272 183.279 32.4C183.151 32.528 183.065 32.656 183.023 32.784L183.598 33.04ZM184.238 34.768C184.494 34.768 184.708 34.6613 184.878 34.448C185.049 34.2347 185.135 34 185.135 33.744C185.135 33.5307 185.049 33.296 184.878 33.04C184.708 32.784 184.58 32.592 184.495 32.464H184.174C183.833 33.1467 183.663 33.744 183.663 34.256C183.663 34.4267 183.727 34.5547 183.855 34.64C183.983 34.7253 184.11 34.768 184.238 34.768ZM183.663 39.504C183.364 40.016 183.215 40.528 183.215 41.04C183.215 41.68 183.534 42.2347 184.174 42.704C184.43 42.3627 184.559 42 184.559 41.616C184.559 41.2747 184.473 40.912 184.303 40.528C184.132 40.1013 184.025 39.7813 183.982 39.568C183.982 39.6107 183.961 39.696 183.919 39.824C183.919 39.9093 183.876 40.016 183.79 40.144L183.663 39.504ZM184.622 48.08C184.366 47.568 184.153 47.2053 183.982 46.992C184.494 46.5653 184.751 46.1387 184.751 45.712C184.751 45.2427 184.43 44.7307 183.79 44.176V45.2C183.79 46.096 183.748 46.6293 183.663 46.8C183.236 46.9707 183.023 47.44 183.023 48.208C183.023 48.592 183.342 48.784 183.982 48.784L184.238 48.656L183.727 48.464C183.983 48.2933 184.281 48.1653 184.622 48.08Z" stroke="#9D70E6" stroke-width="3"/>
<path d="M242.494 24.208C242.494 24.848 242.75 25.8933 243.262 27.344C243.518 28.0267 243.731 28.752 243.902 29.52C244.115 30.2453 244.222 30.9493 244.222 31.632C244.222 33.0827 244.03 34.128 243.646 34.768C243.262 35.408 242.43 35.728 241.15 35.728C240.723 35.728 240.041 35.6853 239.102 35.6L237.438 36.944C235.689 38.352 234.515 39.4613 233.918 40.272C233.235 41.168 232.083 42.4693 230.462 44.176L228.99 45.712L229.886 45.52L228.734 46.736L228.862 46.992L230.27 46.608C230.227 46.48 230.206 46.3093 230.206 46.096H231.806H232.382C232.766 46.096 233.086 45.968 233.342 45.712C233.641 45.4133 233.875 45.264 234.046 45.264C234.259 45.264 234.558 45.3067 234.942 45.392C235.326 45.4773 235.603 45.52 235.774 45.52C236.115 45.52 236.393 45.392 236.606 45.136C236.862 44.88 237.139 44.496 237.438 43.984C237.779 43.4293 238.057 43.152 238.27 43.152C238.654 43.152 239.358 43.3013 240.382 43.6C241.406 43.8987 241.918 44.2187 241.918 44.56C241.918 44.7307 241.747 45.072 241.406 45.584C241.107 46.0533 240.958 46.416 240.958 46.672C240.958 47.0133 241.15 47.7173 241.534 48.784C242.217 50.9173 242.558 52.496 242.558 53.52C242.558 55.0133 242.366 56.1227 241.982 56.848C241.641 57.5733 240.83 57.936 239.55 57.936C239.123 57.936 237.886 57.8293 235.838 57.616C234.43 57.4027 233.171 57.296 232.062 57.296C231.166 57.296 230.227 57.36 229.246 57.488C228.905 57.5307 228.499 57.5733 228.03 57.616C227.561 57.6587 227.006 57.68 226.366 57.68H224.446C223.166 57.68 222.227 57.7013 221.63 57.744C221.203 57.744 220.926 57.7653 220.798 57.808C220.798 57.808 220.777 57.8293 220.734 57.872H220.222C220.009 57.6587 219.774 57.552 219.518 57.552C219.219 57.552 218.793 57.68 218.238 57.936C217.726 58.1493 217.406 58.2773 217.278 58.32C216.595 58.6613 216.169 58.832 215.998 58.832C215.742 58.832 215.379 58.6613 214.91 58.32C214.483 58.0213 214.099 57.872 213.758 57.872L210.366 57.808L209.214 57.872C208.958 57.872 208.809 57.744 208.766 57.488C208.723 57.232 208.702 57.0827 208.702 57.04C208.659 56.9547 208.574 56.8693 208.446 56.784C208.318 56.656 208.211 56.5493 208.126 56.464C207.955 56.2933 207.763 55.9093 207.55 55.312C207.337 54.672 207.166 54.2027 207.038 53.904L206.718 53.776L206.59 53.136C206.462 53.2213 206.27 53.3067 206.014 53.392L206.334 52.88L205.95 52.752C206.163 52.4107 206.27 52.2187 206.27 52.176C206.27 51.9627 206.206 51.8347 206.078 51.792C206.121 51.664 206.163 51.472 206.206 51.216C206.249 50.9173 206.313 50.7253 206.398 50.64C206.654 50.4693 207.038 49.9573 207.55 49.104C208.105 48.2507 208.446 47.6533 208.574 47.312L208.702 47.056C209.001 46.9707 209.15 46.8213 209.15 46.608C209.15 46.4373 209.086 45.904 208.958 45.008C209.043 45.1787 209.214 45.4347 209.47 45.776C210.323 44.9227 210.75 44.496 210.75 44.496L211.07 44.432C211.411 44.432 211.667 44.5173 211.838 44.688C212.051 44.816 212.243 44.9227 212.414 45.008L212.03 44.24L212.094 44.112L212.798 44.688V43.792C212.969 43.8347 213.182 43.984 213.438 44.24C213.566 44.1973 213.715 44.176 213.886 44.176C214.142 44.176 214.419 44.2827 214.718 44.496C215.017 44.7093 215.273 44.8373 215.486 44.88C215.657 44.7093 215.785 44.6027 215.87 44.56L216.062 44.624V44.56L215.358 43.984L215.422 43.92C215.55 44.0053 215.678 44.0907 215.806 44.176C215.977 44.2187 216.126 44.2827 216.254 44.368C217.662 43.2587 220.094 40.8693 223.55 37.2L224.638 36.048C223.785 36.1333 223.187 36.2187 222.846 36.304C222.633 36.0907 222.419 35.984 222.206 35.984C221.907 35.984 221.523 36.0907 221.054 36.304C220.627 36.5173 220.329 36.6667 220.158 36.752C219.561 37.136 219.134 37.328 218.878 37.328C218.579 37.328 218.217 37.2 217.79 36.944C217.406 36.6453 217.086 36.496 216.83 36.496H213.438C213.225 36.496 213.011 36.5173 212.798 36.56C212.627 36.6027 212.457 36.624 212.286 36.624C212.03 36.624 211.881 36.496 211.838 36.24C211.795 35.984 211.774 35.8347 211.774 35.792C211.731 35.7067 211.625 35.6213 211.454 35.536C211.326 35.408 211.241 35.3227 211.198 35.28C210.686 34.1707 210.323 33.3173 210.11 32.72L209.79 32.656C209.705 32.4 209.662 32.1867 209.662 32.016L209.086 32.272L209.342 31.76L209.022 31.632C209.193 31.376 209.278 31.184 209.278 31.056C209.278 30.8853 209.214 30.7787 209.086 30.736C209.171 30.0533 209.385 29.456 209.726 28.944C210.11 28.3893 210.323 28.0693 210.366 27.984C210.579 27.6853 210.771 27.3867 210.942 27.088C211.113 26.7893 211.219 26.512 211.262 26.256L211.454 26C211.71 25.9147 211.838 25.744 211.838 25.488C211.838 25.2747 211.795 25.0187 211.71 24.72C211.667 24.3787 211.625 24.1013 211.582 23.888C211.838 24.2293 212.009 24.5067 212.094 24.72C212.222 24.592 212.457 24.336 212.798 23.952C213.139 23.5253 213.438 23.312 213.694 23.312C213.95 23.312 214.142 23.3547 214.27 23.44C214.441 23.5253 214.569 23.6107 214.654 23.696C214.782 23.7813 214.867 23.8453 214.91 23.888L214.526 23.12L214.59 22.992L215.294 23.504V22.672C215.55 22.7147 215.742 22.864 215.87 23.12C216.041 23.376 216.126 23.6533 216.126 23.952C216.126 24.1227 216.169 24.2933 216.254 24.464C216.382 24.592 216.467 24.6987 216.51 24.784H216.958L217.022 24.976H217.15L216.958 23.952H217.022C217.193 24.336 217.299 24.6773 217.342 24.976H217.982H222.59C226.259 24.976 228.627 24.848 229.694 24.592L229.758 24.272C230.099 24.1867 230.761 24.0373 231.742 23.824L230.654 25.04L230.782 25.296L232.126 24.912C232.126 24.6987 232.105 24.528 232.062 24.4C232.318 24.3573 232.702 24.336 233.214 24.336C233.299 24.2933 233.406 24.2507 233.534 24.208C233.705 24.1227 233.833 24.08 233.918 24.08C234.089 24.08 234.195 24.144 234.238 24.272C234.921 24.272 236.03 24.2293 237.566 24.144L240.83 24.08H241.598C241.939 24.08 242.195 24.1013 242.366 24.144C242.409 24.144 242.43 24.144 242.43 24.144C242.473 24.144 242.494 24.1653 242.494 24.208ZM234.43 25.104C234.43 24.976 234.451 24.8907 234.494 24.848L234.366 24.784L234.43 25.104ZM227.006 26.128C226.494 26.0427 226.131 26 225.918 26C225.022 26 224.318 26.3627 223.806 27.088C224.147 27.1733 224.403 27.216 224.574 27.216C225.043 27.216 225.513 27.1093 225.982 26.896C226.494 26.6827 226.835 26.5333 227.006 26.448L226.366 26.32L227.006 26.128ZM219.518 27.6C219.902 27.8987 220.286 28.048 220.67 28.048C221.225 28.048 221.779 27.6853 222.334 26.96C221.054 27.1733 220.265 27.28 219.966 27.28H219.646C219.475 27.0667 219.219 26.96 218.878 26.96H218.622C217.982 26.96 217.662 27.1733 217.662 27.6L217.726 27.856L217.854 28.048L217.982 27.6L218.558 28.304L219.518 27.6ZM224.126 38.288C223.486 38.7147 223.017 39.1627 222.718 39.632C222.419 40.0587 222.27 40.592 222.27 41.232C222.654 41.0187 222.974 40.7413 223.23 40.4C223.486 40.0587 223.699 39.696 223.87 39.312C224.041 38.928 224.169 38.6507 224.254 38.48C224.169 38.608 223.998 38.7573 223.742 38.928C223.742 38.8427 223.87 38.6293 224.126 38.288ZM219.262 44.304C219.006 44.304 218.707 44.4533 218.366 44.752C218.025 45.0507 217.854 45.328 217.854 45.584C217.854 45.712 217.897 45.84 217.982 45.968C218.11 46.0533 218.238 46.1173 218.366 46.16L218.174 45.712L219.006 45.84L219.39 44.624C219.987 44.496 220.414 44.24 220.67 43.856C220.926 43.472 221.075 42.9387 221.118 42.256C220.905 42.512 220.606 42.8533 220.222 43.28C219.881 43.7067 219.561 44.048 219.262 44.304ZM213.886 44.816L213.502 44.432L213.694 44.88L213.886 44.816ZM213.694 45.392L213.822 45.328H213.694V45.392ZM231.742 46.8L232.638 46.928L232.702 46.672L231.998 46.288L231.742 46.8ZM230.59 46.992C230.419 46.992 230.27 47.0347 230.142 47.12C230.014 47.2053 229.95 47.3333 229.95 47.504C229.95 47.7173 230.057 47.888 230.27 48.016C230.526 48.144 230.761 48.208 230.974 48.208C231.187 48.208 231.443 48.1013 231.742 47.888C232.083 47.632 232.297 47.4827 232.382 47.44L232.318 47.184C232.105 47.1413 231.849 47.0987 231.55 47.056C231.294 47.0133 230.974 46.992 230.59 46.992Z" stroke="#9D70E6" stroke-width="3"/>
<path d="M286.605 51.216C286.605 51.4293 286.499 51.7493 286.285 52.176C286.072 52.56 285.944 52.7947 285.901 52.88L286.733 53.136C286.221 53.2213 285.816 53.3067 285.518 53.392C285.219 53.4773 285.069 53.648 285.069 53.904L284.941 54.096C284.685 54.224 284.28 54.672 283.725 55.44C283.213 56.1653 282.915 56.6773 282.829 56.976C282.787 57.0613 282.637 57.168 282.381 57.296C282.168 57.424 282.019 57.5093 281.933 57.552L281.677 57.424C281.549 57.424 281.4 57.5733 281.229 57.872L280.973 57.616L280.653 58.064L280.717 57.36C280.589 57.4027 280.397 57.424 280.141 57.424L280.013 57.168C279.843 57.168 279.437 57.1467 278.797 57.104C278.2 57.0187 277.816 56.9333 277.645 56.848C277.603 56.8053 277.517 56.7413 277.389 56.656C277.261 56.528 277.133 56.464 277.005 56.464C276.621 56.464 276.365 56.4213 276.237 56.336C276.152 56.208 276.088 56.0373 276.045 55.824C276.045 55.568 276.024 55.3333 275.981 55.12C273.165 56.4427 269.475 57.104 264.909 57.104L263.693 57.04L263.821 57.168L263.757 57.424L263.501 57.488C263.459 57.36 263.331 57.296 263.117 57.296H262.669C262.499 57.296 262.328 57.168 262.157 56.912H261.773C261.389 56.912 261.069 56.8053 260.813 56.592C260.301 56.5067 259.917 56.4213 259.661 56.336L259.405 56.4C259.277 56.272 259.064 56.1653 258.766 56.08C256.888 55.4827 255.288 54.352 253.965 52.688C252.643 51.024 251.768 49.168 251.342 47.12L251.214 46.608C251.256 46.5227 251.277 46.3733 251.277 46.16L251.214 45.328V45.136H251.085L251.021 45.776H250.893L250.829 45.52L250.893 45.264C250.851 45.0933 250.893 45.008 251.021 45.008H251.15C251.15 44.7947 251.171 44.6453 251.214 44.56C251.128 44.3893 251.085 44.24 251.085 44.112L251.021 42.448H250.637C250.723 42.32 250.83 42.2133 250.958 42.128L251.021 42.192L251.15 41.744H250.829C250.872 41.7013 250.936 41.6587 251.021 41.616C251.149 41.5733 251.214 41.5093 251.214 41.424V41.296L250.958 41.488L250.893 41.168C250.893 40.9547 250.957 40.6987 251.085 40.4C251.256 40.1013 251.363 39.8453 251.406 39.632H251.277L251.598 39.44C251.555 39.44 251.512 39.4187 251.469 39.376C251.427 39.3333 251.406 39.2907 251.406 39.248C251.406 39.1627 251.534 38.992 251.79 38.736L251.598 38.672L251.79 38.224L251.725 38.16L251.917 37.904L251.854 37.84L251.661 37.968C251.832 37.584 252.003 37.0507 252.173 36.368C252.344 35.6 252.515 35.0667 252.686 34.768C253.368 33.4453 253.774 32.592 253.902 32.208V32.016C254.072 31.9307 254.158 31.824 254.158 31.696V31.568C254.286 31.3547 254.371 31.248 254.413 31.248H254.542L254.798 31.184V31.12H254.477C254.819 30.9493 255.075 30.8 255.245 30.672L254.99 30.608C255.246 30.3947 255.48 30.16 255.693 29.904C255.949 29.7333 256.205 29.4987 256.461 29.2C256.717 28.9013 256.888 28.688 256.974 28.56L256.27 28.752L256.206 28.688L256.845 28.304L256.717 28.24C256.803 28.1547 256.867 27.9627 256.909 27.664C256.995 27.3653 257.059 27.1733 257.102 27.088L256.654 27.216C256.782 27.088 256.973 26.9813 257.229 26.896V26.832L256.526 27.024C256.739 26.6827 257.101 26.4693 257.613 26.384C258.125 26.256 258.467 26.1707 258.638 26.128C258.51 26.0853 258.317 26.064 258.061 26.064L257.613 26.128V26C257.699 25.9573 257.891 25.8933 258.19 25.808C258.488 25.7227 258.766 25.5733 259.022 25.36C258.894 25.4027 258.68 25.424 258.382 25.424V25.36L258.957 25.04L259.022 25.296L259.15 25.36C259.235 25.36 259.32 25.3173 259.405 25.232C259.491 25.104 259.555 25.0187 259.597 24.976L259.341 25.104H259.15C259.235 24.9333 259.384 24.848 259.597 24.848L260.365 24.912C260.579 24.912 260.771 24.8693 260.941 24.784L260.685 24.848C260.685 24.6773 260.6 24.592 260.429 24.592C260.301 24.592 260.11 24.6347 259.854 24.72C259.598 24.7627 259.405 24.8053 259.277 24.848L259.213 24.784L259.341 24.592C259.427 24.5493 259.619 24.5067 259.917 24.464C260.259 24.4213 260.429 24.3787 260.429 24.336V24.144L261.005 24.336L260.621 24.464H260.877L261.069 24.656C261.197 24.6133 261.347 24.5707 261.517 24.528C261.731 24.4853 261.901 24.4213 262.029 24.336L262.221 24.272L262.989 24.4H263.437V24.272L263.181 24.336L263.437 24.208C263.864 24.208 264.184 24.208 264.397 24.208C264.611 24.1653 264.76 24.1013 264.845 24.016C264.973 23.9307 265.187 23.8453 265.485 23.76L265.229 23.696C265.272 23.6533 265.357 23.6107 265.485 23.568C265.613 23.4827 265.677 23.376 265.677 23.248V23.12L265.933 23.248L266.061 23.44L265.933 23.504C266.573 23.2907 267.384 23.12 268.365 22.992C269.389 22.864 270.328 22.8 271.181 22.8C272.675 22.8 274.125 22.992 275.533 23.376C275.747 23.1627 275.917 23.056 276.045 23.056C276.173 23.056 276.493 23.2267 277.005 23.568C277.517 23.9093 277.816 24.1227 277.901 24.208C278.243 24.1653 278.819 24.08 279.63 23.952C280.44 23.7813 281.165 23.696 281.805 23.696C283.043 23.696 284.28 23.888 285.518 24.272C286.755 24.6133 287.373 25.232 287.373 26.128C287.373 26.896 287.011 28.368 286.285 30.544C285.944 31.4827 285.731 32.144 285.645 32.528C285.731 32.8693 285.773 33.1467 285.773 33.36C285.773 33.7013 285.645 33.9787 285.389 34.192C285.389 35.088 285.176 36.5173 284.749 38.48C284.707 38.6933 284.6 39.248 284.429 40.144C284.259 40.9973 284.173 41.7867 284.173 42.512C284.173 42.5973 284.173 42.64 284.173 42.64L284.109 43.088C283.853 43.2587 283.725 43.5147 283.725 43.856C283.725 44.496 283.875 45.264 284.173 46.16V46.288C284.6 47.312 284.92 47.8453 285.133 47.888L284.237 48.08V48.144H284.429L284.557 48.656C284.813 48.7413 285.005 48.784 285.133 48.784L285.261 48.72C285.347 48.6773 285.496 48.656 285.709 48.656C286.179 48.656 286.499 48.848 286.669 49.232L285.965 49.424L286.605 49.936L286.477 50C286.349 50 286.115 49.9573 285.773 49.872C285.816 49.9147 285.965 50.064 286.221 50.32C286.477 50.5333 286.605 50.832 286.605 51.216ZM263.693 29.904C263.139 30.2027 262.584 30.5653 262.029 30.992L262.477 31.056C262.733 31.056 263.032 30.9707 263.373 30.8V30.416L263.757 30.544L263.373 31.056C263.16 31.0987 263.011 31.184 262.925 31.312C262.925 31.3973 262.968 31.4827 263.053 31.568H263.373C263.629 31.44 263.779 31.376 263.821 31.376C263.949 31.2907 264.12 31.2267 264.333 31.184C264.547 31.0987 264.717 31.0347 264.845 30.992V31.184C265.059 31.0987 265.336 31.0347 265.677 30.992C266.019 30.9493 266.296 30.8853 266.509 30.8C266.723 30.672 266.872 30.48 266.957 30.224C266.915 30.224 266.829 30.2027 266.701 30.16C266.616 30.0747 266.573 29.9893 266.573 29.904C266.573 29.776 266.637 29.648 266.765 29.52C266.467 29.5627 266.083 29.6053 265.613 29.648C265.187 29.6907 264.845 29.712 264.589 29.712L265.037 29.52L264.845 29.328C265.187 29.2 265.549 29.0293 265.933 28.816C265.763 28.7307 265.613 28.688 265.485 28.688C265.315 28.688 265.123 28.752 264.909 28.88C264.824 29.008 264.611 29.1573 264.269 29.328C263.971 29.4987 263.779 29.6693 263.693 29.84V29.904ZM261.325 34.896C261.368 34.896 261.539 34.7893 261.837 34.576C262.136 34.1067 262.584 33.6587 263.181 33.232C263.821 32.7627 264.44 32.4213 265.037 32.208L264.973 32.08L263.437 32.272C263.651 32.1867 263.864 32.144 264.077 32.144C264.333 32.1013 264.568 32.0373 264.781 31.952C265.037 31.8667 265.229 31.7173 265.357 31.504C265.144 31.5467 264.824 31.632 264.397 31.76C264.013 31.8453 263.672 31.888 263.373 31.888H262.989C262.947 31.8027 262.861 31.76 262.733 31.76C262.221 31.76 261.816 32.016 261.517 32.528C261.261 33.04 261.048 33.5733 260.877 34.128C260.749 34.64 260.664 34.9813 260.621 35.152H260.813L260.621 35.792L260.749 35.856L261.325 34.896ZM273.677 43.792C273.805 42.9813 273.997 42.1067 274.253 41.168C274.936 38.3093 275.299 36.2613 275.341 35.024L275.021 34.896V33.68C274.253 33.4667 273.549 33.36 272.91 33.36C272.44 33.36 272.099 33.3813 271.885 33.424L271.501 33.552L271.309 33.68C271.437 33.808 271.501 33.8933 271.501 33.936L271.437 34L271.181 33.936L271.309 33.36H271.117C270.861 33.5307 270.669 33.6373 270.541 33.68L270.221 33.232L269.581 33.296V33.552L269.389 33.296L269.133 33.36L269.325 33.68C269.24 33.5947 269.112 33.5093 268.941 33.424V33.36C266.68 33.872 264.931 34.896 263.693 36.432C262.499 37.9253 261.901 39.8453 261.901 42.192C261.901 43.7707 262.349 45.1147 263.245 46.224C264.184 47.2907 265.443 47.824 267.021 47.824C268.941 47.824 270.307 47.6107 271.117 47.184L270.733 47.056C270.819 46.8427 271.053 46.6933 271.437 46.608L271.501 46.416L271.693 46.544H271.885L272.013 46.096L272.397 46.224L272.269 46.544C272.44 46.544 272.547 46.5227 272.589 46.48C272.675 46.2667 272.803 46.1387 272.973 46.096V45.968H273.165C272.952 45.9253 272.653 45.904 272.269 45.904V45.84C272.525 45.84 272.824 45.7973 273.165 45.712C273.336 45.2427 273.443 44.8373 273.485 44.496H273.101L273.165 44.176H273.549L273.677 43.856L273.549 43.728L273.677 43.792ZM276.045 34.128C275.96 34.0427 275.789 33.9573 275.533 33.872L275.917 34.32L276.045 34.256V34.128ZM259.469 40.528C259.555 40.4 259.683 39.4827 259.854 37.776C260.067 36.0693 260.152 35.088 260.109 34.832L260.237 34.576H260.109C259.981 34.7467 259.789 35.2587 259.533 36.112C259.32 36.9653 259.171 37.52 259.086 37.776L258.445 39.952V40.4L258.829 40.08L258.893 40.144C258.851 40.2293 258.808 40.336 258.766 40.464C258.723 40.5493 258.702 40.6773 258.702 40.848L258.893 40.976C259.021 40.7627 259.213 40.6133 259.469 40.528ZM276.301 40.528C276.515 40.1867 276.621 39.8027 276.621 39.376C276.621 39.1627 276.579 38.8853 276.493 38.544C276.451 38.2027 276.408 37.9253 276.365 37.712L276.109 38.288C276.109 37.9893 276.088 37.776 276.045 37.648C275.789 38.2453 275.661 38.736 275.661 39.12C275.661 39.632 275.875 40.1013 276.301 40.528ZM275.981 42.256L276.109 42.128L275.981 41.872C275.939 41.9573 275.917 42.0853 275.917 42.256H275.981Z" stroke="#9D70E6" stroke-width="3"/>
<path d="M346.946 25.232C346.946 25.7867 346.669 26.64 346.114 27.792C345.56 28.944 344.813 30.3947 343.874 32.144C342.808 34.1067 342.168 35.3867 341.954 35.984C341.997 36.1547 341.72 36.944 341.122 38.352C340.525 39.76 340.162 40.6347 340.035 40.976C338.84 43.7067 338.242 45.1787 338.242 45.392V45.456L338.05 45.968C337.453 46.224 337.154 47.0987 337.154 48.592L337.218 49.424C337.218 49.936 336.92 50.4053 336.322 50.832C335.682 51.3013 334.744 53.008 333.506 55.952C333.464 56.1227 333.378 56.2293 333.25 56.272C333.122 56.3147 332.973 56.336 332.802 56.336C332.632 56.8053 332.226 57.104 331.586 57.232C330.946 57.3173 330.306 57.36 329.666 57.36C329.026 57.36 328.578 57.36 328.322 57.36V57.872C328.28 57.7867 328.173 57.6587 328.002 57.488L327.682 57.744L327.49 57.424C327.32 57.4667 327.085 57.5093 326.786 57.552C326.488 57.552 326.232 57.5733 326.018 57.616C325.336 57.0187 324.738 56.6987 324.226 56.656L323.97 56.464C323.842 56.208 323.672 56.08 323.458 56.08C323.288 56.08 323.053 56.1227 322.755 56.208C322.456 56.2507 322.221 56.2933 322.05 56.336L322.626 55.824C322.456 55.6533 322.221 55.4613 321.922 55.248C321.624 54.992 321.389 54.7573 321.218 54.544C321.09 54.288 321.026 53.9893 321.026 53.648C321.026 53.4773 321.112 53.2213 321.282 52.88L320.706 53.264L320.578 53.2C320.621 53.1147 320.728 52.88 320.898 52.496H320.13V52.368C320.13 52.1547 320.258 51.984 320.514 51.856C320.77 51.6853 321.005 51.6 321.218 51.6C321.346 51.6 321.56 51.4933 321.858 51.28L321.73 50.832L321.922 50.704L321.858 50.64L320.962 50.832V50.768L321.794 50.384V50.32C321.794 49.2107 321.325 46.928 320.386 43.472L319.874 41.232C319.746 41.5733 319.448 42.256 318.979 43.28C318.509 44.2613 318.189 45.1573 318.018 45.968C317.421 46.224 317.122 47.0987 317.122 48.592L317.186 49.424C317.186 49.936 316.888 50.4053 316.29 50.832C315.906 51.088 315.522 51.5573 315.138 52.24C314.797 52.9227 314.477 53.6267 314.178 54.352C313.88 55.0773 313.645 55.6107 313.474 55.952C313.389 56.1227 313.282 56.2293 313.154 56.272C313.069 56.3147 312.941 56.336 312.77 56.336C312.6 56.7627 312.173 57.04 311.49 57.168C310.85 57.296 310.21 57.36 309.57 57.36C308.93 57.36 308.504 57.36 308.29 57.36V57.872C308.12 57.7013 308.013 57.5733 307.97 57.488L307.65 57.744L307.458 57.424C307.288 57.4667 307.053 57.5093 306.755 57.552C306.456 57.552 306.2 57.5733 305.986 57.616C305.304 57.0187 304.706 56.6987 304.194 56.656L303.938 56.464C303.81 56.208 303.64 56.08 303.426 56.08C303.128 56.08 302.637 56.1653 301.954 56.336L302.594 55.76C302.466 55.6747 302.232 55.504 301.89 55.248C301.592 54.992 301.357 54.736 301.186 54.48C301.016 54.224 300.93 53.9467 300.93 53.648C300.93 53.52 300.973 53.392 301.058 53.264C301.144 53.0933 301.208 52.9653 301.25 52.88C300.909 53.136 300.696 53.264 300.61 53.264L300.546 53.2C300.589 53.1147 300.696 52.88 300.867 52.496H300.098V52.368C300.098 52.1547 300.226 51.984 300.482 51.856C300.738 51.6853 300.973 51.6 301.186 51.6C301.357 51.6 301.549 51.4933 301.762 51.28C301.762 51.0667 301.741 50.9173 301.698 50.832L301.89 50.704L301.826 50.64L300.93 50.832V50.768L301.762 50.384C301.805 50 301.4 47.9307 300.546 44.176C299.693 40.3787 299.16 38.2453 298.946 37.776L298.626 37.712L297.794 35.664C298.093 35.8773 298.541 36.24 299.138 36.752L299.33 36.624L298.754 35.28C298.541 35.28 298.392 35.3013 298.306 35.344C298.221 35.088 298.114 34.768 297.986 34.384C297.901 34 297.816 33.552 297.73 33.04C297.688 32.7413 297.56 32.5067 297.346 32.336C297.133 32.1653 296.941 31.9947 296.77 31.824C296.642 31.6107 296.578 31.2693 296.578 30.8C296.578 30.032 296.429 29.4773 296.13 29.136C295.832 28.7947 295.405 28.496 294.85 28.24C294.466 28.0693 294.189 27.92 294.018 27.792C293.89 27.664 293.826 27.472 293.826 27.216V26.768L293.762 25.168C293.762 23.8453 293.954 23.184 294.338 23.184C294.552 23.184 294.829 23.2907 295.17 23.504C295.512 23.7173 295.81 23.8667 296.066 23.952C296.152 24.0373 296.322 24.08 296.578 24.08C296.834 23.9947 297.026 23.952 297.154 23.952C297.368 23.952 297.73 24.0373 298.242 24.208C298.754 24.3787 299.138 24.464 299.394 24.464C299.906 24.464 300.354 24.4427 300.738 24.4C301.165 24.3573 301.528 24.3147 301.826 24.272C302.936 24.1013 303.789 24.016 304.386 24.016C304.941 24.016 305.346 24.0373 305.602 24.08C306.285 24.1653 306.733 24.72 306.946 25.744C307.202 26.7253 307.352 27.7067 307.394 28.688C307.48 29.6267 307.544 30.2667 307.586 30.608C307.714 31.9733 307.928 33.2107 308.226 34.32C308.269 34.3627 308.483 35.0667 308.867 36.432C309.251 37.7547 309.528 38.7573 309.698 39.44L311.042 36.24L310.722 36.048L311.234 34.128L311.81 35.472L312.066 35.408L312.386 34C312.173 34 312.002 33.9787 311.874 33.936C311.96 33.7653 312.152 33.3173 312.45 32.592C312.792 31.8667 312.962 31.4613 312.962 31.376C312.962 31.2053 312.92 31.056 312.834 30.928C312.749 30.7573 312.706 30.5867 312.706 30.416C312.706 30.2453 312.877 29.904 313.218 29.392C313.602 28.8373 313.794 28.4533 313.794 28.24C313.794 27.8987 313.602 27.472 313.218 26.96C312.834 26.448 312.643 26.1493 312.643 26.064C312.643 25.8933 312.706 25.7227 312.834 25.552C312.962 25.3813 313.048 25.2747 313.09 25.232C313.475 24.72 313.773 24.144 313.986 23.504C314.114 23.2907 314.221 23.184 314.306 23.184C314.434 23.184 314.52 23.2053 314.562 23.248C314.818 22.992 315.01 22.864 315.138 22.864C315.394 22.864 315.672 23.056 315.97 23.44C316.269 23.824 316.44 24.0373 316.482 24.08H316.674C316.93 23.9947 317.122 23.952 317.25 23.952C317.506 23.952 317.848 24.0373 318.274 24.208C321.474 23.8667 323.48 23.696 324.29 23.696C325.314 23.696 326.082 23.9307 326.594 24.4C326.85 24.6133 327.213 26.576 327.682 30.288C327.938 32.464 328.13 33.7867 328.258 34.256L329.73 39.44C329.858 39.2267 330.093 38.7787 330.434 38.096C330.776 37.3707 330.989 36.752 331.074 36.24L330.755 36.048C331.011 35.1947 331.181 34.5547 331.266 34.128C331.437 34.384 331.65 34.8107 331.906 35.408H332.098L332.419 34C332.205 34 332.034 33.9787 331.906 33.936C331.992 33.7653 332.184 33.3173 332.482 32.592C332.824 31.8667 332.994 31.4613 332.994 31.376C332.994 31.248 332.952 31.0987 332.867 30.928C332.781 30.7147 332.738 30.544 332.738 30.416C332.738 30.2453 332.909 29.904 333.25 29.392C333.634 28.88 333.826 28.496 333.826 28.24C333.826 27.8987 333.634 27.472 333.25 26.96C332.866 26.448 332.674 26.1493 332.674 26.064C332.674 25.808 333.037 25.2107 333.762 24.272C334.488 23.3333 334.978 22.864 335.234 22.864C335.49 22.864 335.789 23.0987 336.13 23.568C336.472 24.0373 336.728 24.272 336.898 24.272C338.008 24.272 339.266 24.1653 340.674 23.952C342.296 23.7813 343.512 23.696 344.322 23.696C344.962 23.696 345.56 23.824 346.114 24.08C346.669 24.2933 346.946 24.6773 346.946 25.232ZM313.41 31.76L312.77 32.336L313.09 32.72C313.176 32.5493 313.346 32.2933 313.602 31.952L313.41 31.76ZM333.442 31.76C333.357 31.8027 333.25 31.888 333.122 32.016C332.994 32.1013 332.909 32.208 332.867 32.336C332.952 32.5493 333.058 32.6773 333.186 32.72C333.357 32.3787 333.506 32.1227 333.634 31.952L333.442 31.76ZM313.09 34.576C313.346 34.576 313.581 34.448 313.794 34.192C314.008 33.936 314.114 33.68 314.114 33.424C314.114 33.168 314.093 32.9547 314.05 32.784C314.008 32.5707 313.965 32.4 313.922 32.272H313.666C313.581 32.4427 313.389 32.7413 313.09 33.168C312.834 33.5947 312.706 33.9147 312.706 34.128C312.706 34.4267 312.834 34.576 313.09 34.576ZM333.122 34.576C333.378 34.576 333.613 34.448 333.826 34.192C334.04 33.936 334.146 33.68 334.146 33.424C334.146 33.168 334.125 32.9547 334.082 32.784C334.04 32.5707 333.997 32.4 333.954 32.272H333.762C333.677 32.4 333.485 32.6987 333.186 33.168C332.888 33.5947 332.738 33.936 332.738 34.192C332.738 34.448 332.866 34.576 333.122 34.576ZM298.562 33.808C298.52 33.5947 298.498 33.296 298.498 32.912L298.242 32.848C298.2 32.9333 298.157 33.04 298.114 33.168C298.072 33.2533 298.05 33.3813 298.05 33.552L298.562 33.808ZM299.522 35.536C299.864 35.536 300.034 35.3013 300.034 34.832C300.034 34.4907 299.885 34.1493 299.586 33.808C299.288 33.4667 299.096 33.2533 299.01 33.168L298.754 33.232C298.754 33.3173 298.776 33.7227 298.818 34.448C298.861 35.1733 299.096 35.536 299.522 35.536ZM310.466 42.512C310.765 42.1707 310.957 41.808 311.042 41.424C311.17 41.04 311.256 40.656 311.298 40.272C311.341 39.8453 311.362 39.5253 311.362 39.312C311.362 39.312 311.235 39.504 310.979 39.888L311.106 39.184C310.509 40.0373 310.21 40.7627 310.21 41.36L310.274 42.064L310.466 42.512ZM330.498 42.512C330.882 42.0853 331.117 41.6587 331.202 41.232C331.288 40.8053 331.352 40.1653 331.394 39.312C331.394 39.312 331.266 39.504 331.01 39.888L331.138 39.184C330.541 40.0373 330.242 40.7627 330.242 41.36L330.307 42.064L330.498 42.512ZM302.402 43.408C302.402 43.024 302.317 42.6613 302.146 42.32C302.018 41.9787 301.848 41.6373 301.634 41.296C301.421 40.9547 301.272 40.6987 301.186 40.528C301.186 40.8267 301.208 41.0613 301.25 41.232L300.867 40.528C300.909 41.2533 301.037 41.8933 301.25 42.448C301.464 42.96 301.848 43.408 302.402 43.792V43.408ZM322.434 43.408C322.434 43.024 322.349 42.6613 322.178 42.32C322.05 41.9787 321.88 41.6373 321.666 41.296C321.453 40.9547 321.304 40.6987 321.218 40.528L321.282 41.232C321.112 40.848 321.005 40.6133 320.962 40.528C320.962 41.9787 321.453 43.0667 322.434 43.792V43.408ZM303.298 48.912C303.597 48.784 303.938 48.7627 304.322 48.848C304.066 48.592 303.896 48.3787 303.81 48.208C303.938 47.952 304.002 47.6747 304.002 47.376C304.002 46.736 303.554 46.0533 302.658 45.328C303.213 46.992 303.49 47.8453 303.49 47.888C303.49 47.9733 303.448 48.08 303.362 48.208C303.277 48.336 303.234 48.464 303.234 48.592L303.298 48.912ZM323.394 48.912C323.693 48.784 324.013 48.7627 324.354 48.848L323.842 48.208C323.97 47.952 324.034 47.6747 324.034 47.376C324.034 46.736 323.586 46.0533 322.69 45.328C322.776 45.6693 322.925 46.1173 323.138 46.672C323.352 47.184 323.48 47.6533 323.522 48.08C323.394 48.208 323.33 48.3573 323.33 48.528L323.394 48.912Z" stroke="#9D70E6" stroke-width="3"/>
<path d="M388.043 51.216C388.043 51.4293 387.936 51.7493 387.723 52.176C387.51 52.56 387.382 52.7947 387.339 52.88L388.171 53.136C387.659 53.2213 387.254 53.3067 386.955 53.392C386.656 53.4773 386.507 53.648 386.507 53.904L386.379 54.096C386.123 54.224 385.718 54.672 385.163 55.44C384.651 56.1653 384.352 56.6773 384.267 56.976C384.224 57.0613 384.075 57.168 383.819 57.296C383.606 57.424 383.456 57.5093 383.371 57.552L383.115 57.424C382.987 57.424 382.838 57.5733 382.667 57.872L382.411 57.616L382.091 58.064L382.155 57.36C382.027 57.4027 381.835 57.424 381.579 57.424L381.451 57.168C381.28 57.168 380.875 57.1467 380.235 57.104C379.638 57.0187 379.254 56.9333 379.083 56.848C379.04 56.8053 378.955 56.7413 378.827 56.656C378.699 56.528 378.571 56.464 378.443 56.464C378.059 56.464 377.803 56.4213 377.675 56.336C377.59 56.208 377.526 56.0373 377.483 55.824C377.483 55.568 377.462 55.3333 377.419 55.12C374.603 56.4427 370.912 57.104 366.347 57.104L365.131 57.04L365.259 57.168L365.195 57.424L364.939 57.488C364.896 57.36 364.768 57.296 364.555 57.296H364.107C363.936 57.296 363.766 57.168 363.595 56.912H363.211C362.827 56.912 362.507 56.8053 362.251 56.592C361.739 56.5067 361.355 56.4213 361.099 56.336L360.843 56.4C360.715 56.272 360.502 56.1653 360.203 56.08C358.326 55.4827 356.726 54.352 355.403 52.688C354.08 51.024 353.206 49.168 352.779 47.12L352.651 46.608C352.694 46.5227 352.715 46.3733 352.715 46.16L352.651 45.328V45.136H352.523L352.459 45.776H352.331L352.267 45.52L352.331 45.264C352.288 45.0933 352.331 45.008 352.459 45.008H352.587C352.587 44.7947 352.608 44.6453 352.651 44.56C352.566 44.3893 352.523 44.24 352.523 44.112L352.459 42.448H352.075C352.16 42.32 352.267 42.2133 352.395 42.128L352.459 42.192L352.587 41.744H352.267C352.31 41.7013 352.374 41.6587 352.459 41.616C352.587 41.5733 352.651 41.5093 352.651 41.424V41.296L352.395 41.488L352.331 41.168C352.331 40.9547 352.395 40.6987 352.523 40.4C352.694 40.1013 352.8 39.8453 352.843 39.632H352.715L353.035 39.44C352.992 39.44 352.95 39.4187 352.907 39.376C352.864 39.3333 352.843 39.2907 352.843 39.248C352.843 39.1627 352.971 38.992 353.227 38.736L353.035 38.672L353.227 38.224L353.163 38.16L353.355 37.904L353.291 37.84L353.099 37.968C353.27 37.584 353.44 37.0507 353.611 36.368C353.782 35.6 353.952 35.0667 354.123 34.768C354.806 33.4453 355.211 32.592 355.339 32.208V32.016C355.51 31.9307 355.595 31.824 355.595 31.696V31.568C355.723 31.3547 355.808 31.248 355.851 31.248H355.979L356.235 31.184V31.12H355.915C356.256 30.9493 356.512 30.8 356.683 30.672L356.427 30.608C356.683 30.3947 356.918 30.16 357.131 29.904C357.387 29.7333 357.643 29.4987 357.899 29.2C358.155 28.9013 358.326 28.688 358.411 28.56L357.707 28.752L357.643 28.688L358.283 28.304L358.155 28.24C358.24 28.1547 358.304 27.9627 358.347 27.664C358.432 27.3653 358.496 27.1733 358.539 27.088L358.091 27.216C358.219 27.088 358.411 26.9813 358.667 26.896V26.832L357.963 27.024C358.176 26.6827 358.539 26.4693 359.051 26.384C359.563 26.256 359.904 26.1707 360.075 26.128C359.947 26.0853 359.755 26.064 359.499 26.064L359.051 26.128V26C359.136 25.9573 359.328 25.8933 359.627 25.808C359.926 25.7227 360.203 25.5733 360.459 25.36C360.331 25.4027 360.118 25.424 359.819 25.424V25.36L360.395 25.04L360.459 25.296L360.587 25.36C360.672 25.36 360.758 25.3173 360.843 25.232C360.928 25.104 360.992 25.0187 361.035 24.976L360.779 25.104H360.587C360.672 24.9333 360.822 24.848 361.035 24.848L361.803 24.912C362.016 24.912 362.208 24.8693 362.379 24.784L362.123 24.848C362.123 24.6773 362.038 24.592 361.867 24.592C361.739 24.592 361.547 24.6347 361.291 24.72C361.035 24.7627 360.843 24.8053 360.715 24.848L360.651 24.784L360.779 24.592C360.864 24.5493 361.056 24.5067 361.355 24.464C361.696 24.4213 361.867 24.3787 361.867 24.336V24.144L362.443 24.336L362.059 24.464H362.315L362.507 24.656C362.635 24.6133 362.784 24.5707 362.955 24.528C363.168 24.4853 363.339 24.4213 363.467 24.336L363.659 24.272L364.427 24.4H364.875V24.272L364.619 24.336L364.875 24.208C365.302 24.208 365.622 24.208 365.835 24.208C366.048 24.1653 366.198 24.1013 366.283 24.016C366.411 23.9307 366.624 23.8453 366.923 23.76L366.667 23.696C366.71 23.6533 366.795 23.6107 366.923 23.568C367.051 23.4827 367.115 23.376 367.115 23.248V23.12L367.371 23.248L367.499 23.44L367.371 23.504C368.011 23.2907 368.822 23.12 369.803 22.992C370.827 22.864 371.766 22.8 372.619 22.8C374.112 22.8 375.563 22.992 376.971 23.376C377.184 23.1627 377.355 23.056 377.483 23.056C377.611 23.056 377.931 23.2267 378.443 23.568C378.955 23.9093 379.254 24.1227 379.339 24.208C379.68 24.1653 380.256 24.08 381.067 23.952C381.878 23.7813 382.603 23.696 383.243 23.696C384.48 23.696 385.718 23.888 386.955 24.272C388.192 24.6133 388.811 25.232 388.811 26.128C388.811 26.896 388.448 28.368 387.723 30.544C387.382 31.4827 387.168 32.144 387.083 32.528C387.168 32.8693 387.211 33.1467 387.211 33.36C387.211 33.7013 387.083 33.9787 386.827 34.192C386.827 35.088 386.614 36.5173 386.187 38.48C386.144 38.6933 386.038 39.248 385.867 40.144C385.696 40.9973 385.611 41.7867 385.611 42.512C385.611 42.5973 385.611 42.64 385.611 42.64L385.547 43.088C385.291 43.2587 385.163 43.5147 385.163 43.856C385.163 44.496 385.312 45.264 385.611 46.16V46.288C386.038 47.312 386.358 47.8453 386.571 47.888L385.675 48.08V48.144H385.867L385.995 48.656C386.251 48.7413 386.443 48.784 386.571 48.784L386.699 48.72C386.784 48.6773 386.934 48.656 387.147 48.656C387.616 48.656 387.936 48.848 388.107 49.232L387.403 49.424L388.043 49.936L387.915 50C387.787 50 387.552 49.9573 387.211 49.872C387.254 49.9147 387.403 50.064 387.659 50.32C387.915 50.5333 388.043 50.832 388.043 51.216ZM365.131 29.904C364.576 30.2027 364.022 30.5653 363.467 30.992L363.915 31.056C364.171 31.056 364.47 30.9707 364.811 30.8V30.416L365.195 30.544L364.811 31.056C364.598 31.0987 364.448 31.184 364.363 31.312C364.363 31.3973 364.406 31.4827 364.491 31.568H364.811C365.067 31.44 365.216 31.376 365.259 31.376C365.387 31.2907 365.558 31.2267 365.771 31.184C365.984 31.0987 366.155 31.0347 366.283 30.992V31.184C366.496 31.0987 366.774 31.0347 367.115 30.992C367.456 30.9493 367.734 30.8853 367.947 30.8C368.16 30.672 368.31 30.48 368.395 30.224C368.352 30.224 368.267 30.2027 368.139 30.16C368.054 30.0747 368.011 29.9893 368.011 29.904C368.011 29.776 368.075 29.648 368.203 29.52C367.904 29.5627 367.52 29.6053 367.051 29.648C366.624 29.6907 366.283 29.712 366.027 29.712L366.475 29.52L366.283 29.328C366.624 29.2 366.987 29.0293 367.371 28.816C367.2 28.7307 367.051 28.688 366.923 28.688C366.752 28.688 366.56 28.752 366.347 28.88C366.262 29.008 366.048 29.1573 365.707 29.328C365.408 29.4987 365.216 29.6693 365.131 29.84V29.904ZM362.763 34.896C362.806 34.896 362.976 34.7893 363.275 34.576C363.574 34.1067 364.022 33.6587 364.619 33.232C365.259 32.7627 365.878 32.4213 366.475 32.208L366.411 32.08L364.875 32.272C365.088 32.1867 365.302 32.144 365.515 32.144C365.771 32.1013 366.006 32.0373 366.219 31.952C366.475 31.8667 366.667 31.7173 366.795 31.504C366.582 31.5467 366.262 31.632 365.835 31.76C365.451 31.8453 365.11 31.888 364.811 31.888H364.427C364.384 31.8027 364.299 31.76 364.171 31.76C363.659 31.76 363.254 32.016 362.955 32.528C362.699 33.04 362.486 33.5733 362.315 34.128C362.187 34.64 362.102 34.9813 362.059 35.152H362.251L362.059 35.792L362.187 35.856L362.763 34.896ZM375.115 43.792C375.243 42.9813 375.435 42.1067 375.691 41.168C376.374 38.3093 376.736 36.2613 376.779 35.024L376.459 34.896V33.68C375.691 33.4667 374.987 33.36 374.347 33.36C373.878 33.36 373.536 33.3813 373.323 33.424L372.939 33.552L372.747 33.68C372.875 33.808 372.939 33.8933 372.939 33.936L372.875 34L372.619 33.936L372.747 33.36H372.555C372.299 33.5307 372.107 33.6373 371.979 33.68L371.659 33.232L371.019 33.296V33.552L370.827 33.296L370.571 33.36L370.763 33.68C370.678 33.5947 370.55 33.5093 370.379 33.424V33.36C368.118 33.872 366.368 34.896 365.131 36.432C363.936 37.9253 363.339 39.8453 363.339 42.192C363.339 43.7707 363.787 45.1147 364.683 46.224C365.622 47.2907 366.88 47.824 368.459 47.824C370.379 47.824 371.744 47.6107 372.555 47.184L372.171 47.056C372.256 46.8427 372.491 46.6933 372.875 46.608L372.939 46.416L373.131 46.544H373.323L373.451 46.096L373.835 46.224L373.707 46.544C373.878 46.544 373.984 46.5227 374.027 46.48C374.112 46.2667 374.24 46.1387 374.411 46.096V45.968H374.603C374.39 45.9253 374.091 45.904 373.707 45.904V45.84C373.963 45.84 374.262 45.7973 374.603 45.712C374.774 45.2427 374.88 44.8373 374.923 44.496H374.539L374.603 44.176H374.987L375.115 43.856L374.987 43.728L375.115 43.792ZM377.483 34.128C377.398 34.0427 377.227 33.9573 376.971 33.872L377.355 34.32L377.483 34.256V34.128ZM360.907 40.528C360.992 40.4 361.12 39.4827 361.291 37.776C361.504 36.0693 361.59 35.088 361.547 34.832L361.675 34.576H361.547C361.419 34.7467 361.227 35.2587 360.971 36.112C360.758 36.9653 360.608 37.52 360.523 37.776L359.883 39.952V40.4L360.267 40.08L360.331 40.144C360.288 40.2293 360.246 40.336 360.203 40.464C360.16 40.5493 360.139 40.6773 360.139 40.848L360.331 40.976C360.459 40.7627 360.651 40.6133 360.907 40.528ZM377.739 40.528C377.952 40.1867 378.059 39.8027 378.059 39.376C378.059 39.1627 378.016 38.8853 377.931 38.544C377.888 38.2027 377.846 37.9253 377.803 37.712L377.547 38.288C377.547 37.9893 377.526 37.776 377.483 37.648C377.227 38.2453 377.099 38.736 377.099 39.12C377.099 39.632 377.312 40.1013 377.739 40.528ZM377.419 42.256L377.547 42.128L377.419 41.872C377.376 41.9573 377.355 42.0853 377.355 42.256H377.419Z" stroke="#9D70E6" stroke-width="3"/>
</svg>
