<svg id="logo" class="logo" width="470" height="100" viewBox="-80 -50 570 130" fill="none" xmlns="http://www.w3.org/2000/svg">

<style>
* {
    margin: 0;
    padding: 0;
}
body {
    width: 100%;
    height: 100vh;
    background: #333;
}

.logo {
    position: absolute;
    top: 50%;
    left: 55%;
    transform: translate(-50%, -50%);
    animation: fill-anm 500ms ease forwards 2500ms;
}

.logo path:nth-child(1) {
    stroke-dasharray: 497;
    stroke-dashoffset: 497;
    animation: line-anm 2s ease forwards;
}

.logo path:nth-child(2) {
    stroke-dasharray: 497;
    stroke-dashoffset: 497;
    animation: line-anm 2s ease forwards 300ms;
}

.logo path:nth-child(3) {
    stroke-dasharray: 400;
    stroke-dashoffset: 400;
    animation: line-anm 2s ease forwards 600ms;
}

.logo path:nth-child(4) {
    stroke-dasharray: 497;
    stroke-dashoffset: 497;
    animation: line-anm 2s ease forwards 900ms;
}

.logo path:nth-child(5) {
    stroke-dasharray: 497;
    stroke-dashoffset: 497;
    animation: line-anm 2s ease forwards 1200ms;
}

.logo path:nth-child(6) {
    stroke-dasharray: 497;
    stroke-dashoffset: 497;
    animation: line-anm 2s ease forwards 1500ms;
}




@keyframes line-anm {
    to {
        stroke-dashoffset: 0;
    }
}

@keyframes fill-anm {
    from {
        fill: transparent;
    }
    to {
        fill: #1EE2D7;
    }
}
</style>




<path d="M40.941 44.12C40.941 44.4187 41.3037 45.2507 42.029 46.616C42.4557 47.4693 42.669 47.9173 42.669 47.96C42.669 48.0453 42.4983 48.2587 42.157 48.6C42.1143 48.6427 42.0717 48.7493 42.029 48.92C41.9863 49.048 41.9437 49.1333 41.901 49.176C41.8157 49.3893 41.517 49.7733 41.005 50.328C40.5357 50.84 40.2583 51.16 40.173 51.288L40.237 51.544L39.853 51.928L40.173 52.248C39.9597 52.248 39.8103 52.2693 39.725 52.312V52.568C39.2557 52.568 38.9783 52.696 38.893 52.952C38.6797 53.08 38.4877 53.1653 38.317 53.208C38.1463 53.2507 38.0183 53.2933 37.933 53.336H37.485H36.205C35.5223 53.336 34.9037 53.4 34.349 53.528L34.093 53.336C34.0503 53.336 33.8157 53.5067 33.389 53.848C32.9623 54.1467 32.7063 54.3173 32.621 54.36L33.069 53.656C32.8557 53.6133 32.5997 53.5707 32.301 53.528C32.0023 53.4853 31.7677 53.4213 31.597 53.336C31.4263 53.1653 31.341 52.9733 31.341 52.76C31.341 52.5467 31.3837 52.2693 31.469 51.928C31.2983 52.2693 31.149 52.504 31.021 52.632H30.893L31.085 51.8C30.6583 52.0987 30.4237 52.2693 30.381 52.312V52.184C30.381 51.9707 30.4663 51.7573 30.637 51.544C30.8503 51.3307 31.0637 51.16 31.277 51.032C31.4903 50.8187 31.6183 50.6053 31.661 50.392L31.597 50.008L31.661 49.88V49.816L30.893 50.392C31.1063 50.136 31.341 49.9013 31.597 49.688C31.5117 49.304 30.8077 47.7893 29.485 45.144C28.205 42.4987 27.4583 41.0267 27.245 40.728L26.989 40.856L25.965 39.64L27.309 39.832L27.373 39.64C27.1597 39.2987 26.925 39.0213 26.669 38.808C26.6263 38.8933 26.5197 38.9787 26.349 39.064C26.221 38.8507 26.029 38.488 25.773 37.976C25.517 37.4213 25.2397 37.144 24.941 37.144C24.3437 37.144 23.917 37.1653 23.661 37.208L22.317 37.272C22.1463 37.4 21.869 37.464 21.485 37.464C21.3143 37.464 21.0583 37.4213 20.717 37.336C18.8397 37.4213 17.4103 37.464 16.429 37.464V37.72C16.429 38.104 16.4077 38.4027 16.365 38.616C16.0663 38.872 15.917 39.2347 15.917 39.704C15.917 40.216 16.0023 40.8987 16.173 41.752C16.3437 42.6907 16.429 43.352 16.429 43.736C16.429 44.12 16.237 44.5467 15.853 45.016C15.6397 45.3573 15.469 45.656 15.341 45.912C15.213 46.168 15.149 46.488 15.149 46.872C15.149 47.4693 14.9997 48.216 14.701 49.112C14.4023 50.2213 14.253 50.968 14.253 51.352C14.2103 51.864 14.1463 52.184 14.061 52.312C13.9757 52.44 13.6983 52.5253 13.229 52.568C12.8023 52.9093 12.2477 53.1867 11.565 53.4C10.8823 53.5707 10.349 53.72 9.965 53.848L9.773 54.232H9.133C9.133 54.4027 9.17566 54.6587 9.261 55L8.813 54.488L8.557 54.872C8.429 54.5307 8.27966 54.36 8.109 54.36C7.93833 54.36 7.81033 54.4453 7.725 54.616C7.63966 54.5733 7.44766 54.488 7.149 54.36C6.893 54.232 6.72233 54.104 6.637 53.976C6.42366 53.592 5.97566 52.9733 5.293 52.12C4.653 51.2667 4.18366 50.776 3.885 50.648L3.629 50.392C3.629 50.008 3.47966 49.7947 3.181 49.752C2.925 49.6667 2.62633 49.6453 2.285 49.688C1.98633 49.688 1.773 49.688 1.645 49.688L2.605 49.176C1.87966 48.152 1.517 47.448 1.517 47.064C1.517 46.7653 1.581 46.5093 1.709 46.296C1.87966 46.04 2.11433 45.7627 2.413 45.464L1.517 45.72L1.453 45.656C1.62366 45.4853 1.837 45.2293 2.093 44.888C1.837 44.76 1.581 44.696 1.325 44.696C1.36766 44.44 1.49566 44.248 1.709 44.12C1.965 43.992 2.221 43.928 2.477 43.928H2.989C3.15966 43.928 3.39433 43.8427 3.693 43.672L3.821 43.096L4.013 43.032V42.904H2.925V42.84C3.053 42.84 3.22366 42.8187 3.437 42.776C3.693 42.7333 3.885 42.6907 4.013 42.648C4.269 41.9227 4.75966 39.3627 5.485 34.968C6.21033 30.5307 6.573 27.9067 6.573 27.096L6.189 26.904L6.253 24.28C6.381 24.4933 6.509 24.728 6.637 24.984C6.80766 25.24 6.99966 25.5387 7.213 25.88L7.469 25.816C7.469 25.048 7.44766 24.472 7.405 24.088H6.893C7.19166 22.5947 7.341 21.528 7.341 20.888C7.341 20.6747 7.25566 20.3973 7.085 20.056C6.957 19.7147 6.893 19.416 6.893 19.16C6.893 18.8613 6.97833 18.456 7.149 17.944C7.31966 17.432 7.405 17.048 7.405 16.792C7.405 16.152 7.04233 15.4693 6.317 14.744C5.84766 14.2747 5.613 13.912 5.613 13.656C5.613 13.3573 5.869 12.5893 6.381 11.352C6.93566 10.1147 7.31966 9.496 7.533 9.496C7.74633 9.496 8.109 9.752 8.621 10.264C8.70633 10.3493 8.85566 10.4987 9.069 10.712C9.28233 10.9253 9.49566 11.0747 9.709 11.16L10.989 10.904C12.3543 10.52 13.5703 10.328 14.637 10.328C15.8743 10.328 16.9837 10.5627 17.965 11.032C20.5677 10.6053 23.3837 10.392 26.413 10.392C29.6983 10.392 32.429 10.712 34.605 11.352C36.141 11.7787 37.6343 12.8027 39.085 14.424C40.5783 16.0453 41.5383 17.6667 41.965 19.288L42.093 19.8C42.0077 19.9707 41.965 20.0987 41.965 20.184C41.965 20.312 41.9863 20.44 42.029 20.568C42.0717 20.696 42.093 20.824 42.093 20.952V21.016H42.221V20.504H42.349C42.3917 20.5893 42.413 20.7813 42.413 21.08C42.413 21.1227 42.3703 21.144 42.285 21.144H42.157L42.093 21.464C42.1783 21.6347 42.221 21.784 42.221 21.912V23.256C42.3063 23.2987 42.4557 23.32 42.669 23.32C42.5837 23.4053 42.4557 23.4907 42.285 23.576H42.221L42.157 23.96L42.413 23.896C42.413 23.9387 42.349 23.9813 42.221 24.024C42.093 24.0667 42.029 24.1307 42.029 24.216L42.093 24.28L42.221 24.216H42.285L42.349 24.472C42.349 24.6853 42.2637 24.9413 42.093 25.24C41.965 25.496 41.8797 25.6667 41.837 25.752H41.965L41.645 25.816C41.773 25.8587 41.837 25.9227 41.837 26.008L41.517 26.456H41.581L41.453 26.968L41.517 27.032L41.325 27.224L41.517 27.16C41.4317 27.288 41.325 27.4587 41.197 27.672C41.069 27.8853 40.941 28.056 40.813 28.184C40.7703 28.6107 40.3863 29.2507 39.661 30.104V30.296C39.4477 30.424 39.3623 30.5307 39.405 30.616C39.3623 30.8293 39.2343 30.9573 39.021 31C38.8503 31.0427 38.7437 31.064 38.701 31.064L39.021 31.128L38.253 31.448L38.509 31.512L36.653 33.048L36.461 33.304L37.165 33.112V33.176C37.0797 33.2187 36.8663 33.304 36.525 33.432L36.653 33.496C36.6103 33.6667 36.4823 33.816 36.269 33.944C36.397 33.944 36.5463 33.9013 36.717 33.816L36.525 34.072L36.141 34.136C36.269 34.136 36.5037 34.0933 36.845 34.008L36.461 34.328L35.757 34.456C35.885 34.712 36.0343 34.968 36.205 35.224C36.3757 35.48 36.525 35.736 36.653 35.992L37.421 37.528C37.9757 38.6373 38.317 39.2987 38.445 39.512C38.445 39.5547 38.4663 39.6187 38.509 39.704C38.5943 39.7893 38.6583 39.832 38.701 39.832L38.893 40.152C38.765 40.536 38.8077 40.856 39.021 41.112C39.2343 41.3253 39.5757 41.56 40.045 41.816C40.7703 42.2 41.133 42.584 41.133 42.968C41.133 43.1813 41.0903 43.3733 41.005 43.544C40.9623 43.7147 40.941 43.9067 40.941 44.12ZM21.101 27.8C21.0157 27.7147 20.973 27.6507 20.973 27.608V27.544L21.229 27.608L21.101 28.12C21.3997 28.0347 21.6343 27.9067 21.805 27.736C22.061 27.9067 22.2317 28.056 22.317 28.184C22.6157 28.184 22.829 28.1627 22.957 28.12V27.928L23.085 28.12H23.341L23.149 27.8L23.597 28.056L25.709 27.608C27.0743 27.224 28.269 26.6693 29.293 25.944C30.317 25.2187 30.829 24.28 30.829 23.128C30.829 21.7627 30.3383 20.8453 29.357 20.376C28.4183 19.864 27.2023 19.608 25.709 19.608C24.429 19.608 23.0423 19.8 21.549 20.184C20.0557 20.5253 19.1383 20.7387 18.797 20.824C18.7543 21.08 18.605 21.72 18.349 22.744C18.093 23.768 17.965 24.6853 17.965 25.496C17.965 25.7093 17.9223 26.0293 17.837 26.456C17.7517 26.8827 17.709 27.224 17.709 27.48L17.773 27.544L17.901 26.968C18.4983 27.5227 19.373 27.8853 20.525 28.056L20.909 27.928L21.101 27.8ZM7.853 22.36L8.173 21.336L7.981 21.08C7.68233 21.5067 7.51166 21.784 7.469 21.912L7.853 22.36ZM8.301 24.664C8.51433 24.664 8.685 24.5147 8.813 24.216C8.98366 23.9173 9.069 23.64 9.069 23.384C9.069 23.128 8.91966 22.552 8.621 21.656H8.365C8.365 21.8267 8.25833 22.1893 8.045 22.744C7.87433 23.256 7.789 23.576 7.789 23.704C7.789 24.344 7.95966 24.664 8.301 24.664ZM33.069 25.048C33.069 25.6027 33.0477 26.0293 33.005 26.328L32.941 27.608L33.005 27.864L32.941 28.12V28.184H33.005C33.4743 27.5013 33.901 26.6053 34.285 25.496V25.048L33.901 25.368L33.837 25.304C33.8797 25.2187 33.965 25.0053 34.093 24.664L33.837 24.536C33.7943 24.792 33.581 24.92 33.197 24.92L33.069 25.048ZM7.597 35.096C7.853 34.6267 7.981 34.0293 7.981 33.304C7.981 32.7493 7.89566 31.96 7.725 30.936C7.597 31.192 7.533 31.448 7.533 31.704L7.405 30.808C7.10633 31.6187 6.957 32.3653 6.957 33.048C6.957 33.688 7.17033 34.3707 7.597 35.096ZM7.085 40.6C7.597 40.088 7.853 39.5333 7.853 38.936C7.853 38.296 7.61833 37.6347 7.149 36.952C7.06366 38.488 6.97833 39.64 6.893 40.408C6.67966 40.536 6.509 40.7707 6.381 41.112C6.253 41.4107 6.189 41.7093 6.189 42.008C6.189 42.6053 6.445 42.9253 6.957 42.968L7.149 42.904L6.765 42.584L7.533 42.008C7.31966 41.2827 7.17033 40.8133 7.085 40.6ZM27.309 38.68C27.4797 38.68 27.6077 38.616 27.693 38.488C27.7783 38.3173 27.821 38.1467 27.821 37.976C27.821 37.592 27.5863 37.3147 27.117 37.144V37.336C26.9037 37.208 26.7757 37.1227 26.733 37.08L26.861 37.016L26.669 36.952L26.477 37.144C26.5197 37.2293 26.5837 37.5067 26.669 37.976C26.797 38.4453 27.0103 38.68 27.309 38.68ZM25.901 37.72C26.1143 37.72 26.2637 37.6987 26.349 37.656C26.3063 37.528 26.2637 37.4213 26.221 37.336C26.1783 37.208 26.1357 37.1013 26.093 37.016L25.901 37.08V37.72ZM29.421 41.944C29.549 43.1387 30.1463 43.8 31.213 43.928C31.1703 43.544 31.0637 43.2453 30.893 43.032C30.7223 42.776 30.4877 42.5413 30.189 42.328C29.933 42.1147 29.741 41.944 29.613 41.816L29.805 42.392L29.421 41.944ZM33.517 47.96L33.901 47.128C33.7303 47.0853 33.581 47.0427 33.453 47C33.325 46.9147 33.1757 46.8507 33.005 46.808C33.0477 46.68 33.069 46.488 33.069 46.232C33.069 45.5493 32.5783 45.144 31.597 45.016C31.725 45.2293 31.917 45.528 32.173 45.912C32.429 46.2533 32.621 46.5733 32.749 46.872C32.7063 46.9147 32.685 47.0213 32.685 47.192C32.685 47.448 32.7277 47.704 32.813 47.96C32.941 48.1733 33.0903 48.28 33.261 48.28C33.389 48.28 33.581 48.1947 33.837 48.024L33.901 47.832L33.517 47.96Z" stroke="#1EE2D7"/>
<path d="M83.763 32.344C83.8057 32.6853 83.827 33.1973 83.827 33.88C83.827 35.0747 83.699 36.056 83.443 36.824L83.379 37.08C83.379 37.1227 83.2297 37.5493 82.931 38.36C82.6323 39.1707 82.3123 39.448 81.971 39.192L80.499 39.256H71.539C71.283 39.256 70.8137 39.448 70.131 39.832C69.5337 40.216 69.0857 40.408 68.787 40.408C68.3603 40.408 67.9337 40.088 67.507 39.448H67.187C66.931 39.32 66.7817 39.256 66.739 39.256C66.4403 39.256 65.9923 39.384 65.395 39.64C64.7977 39.8533 64.371 39.96 64.115 39.96C63.9443 39.96 63.7097 39.896 63.411 39.768C63.1123 39.64 62.8563 39.576 62.643 39.576L61.107 39.512H60.275C60.3603 41.176 60.8937 42.5413 61.875 43.608C62.899 44.632 64.2217 45.144 65.843 45.144L66.035 45.272L66.739 44.696L67.059 44.952L67.379 44.504L67.763 44.696C67.763 44.7813 67.699 44.888 67.571 45.016C67.6563 45.016 67.7843 45.0587 67.955 45.144C68.1683 44.888 68.3817 44.76 68.595 44.76C68.7657 44.76 69.0217 44.8027 69.363 44.888C69.6617 44.8027 69.939 44.696 70.195 44.568C70.4937 44.3973 70.7923 44.2693 71.091 44.184L70.963 44.12L72.691 42.968H72.371C71.9017 42.968 71.4323 43.032 70.963 43.16C70.7923 43.2027 70.579 43.2453 70.323 43.288C70.067 43.3307 69.7683 43.352 69.427 43.352L69.235 43.288C69.235 43.2027 69.299 43.096 69.427 42.968L69.939 43.16L70.195 43.032L69.939 42.648C70.0243 42.6907 70.1523 42.7547 70.323 42.84C70.5363 42.9253 70.7497 42.968 70.963 42.968C71.1337 42.968 71.3683 42.904 71.667 42.776C72.0083 42.648 72.2643 42.5627 72.435 42.52L70.771 42.392C71.155 42.0933 71.539 41.944 71.923 41.944C72.051 41.944 72.1577 41.9653 72.243 42.008C72.371 42.0507 72.4777 42.072 72.563 42.072C72.947 42.072 74.099 41.5387 76.019 40.472L77.235 39.832C77.235 40.0027 77.3417 40.152 77.555 40.28C77.7683 40.3653 77.9817 40.408 78.195 40.408C78.835 40.408 79.219 40.472 79.347 40.6C79.5177 40.728 79.603 41.112 79.603 41.752C79.6883 41.7093 79.8163 41.6027 79.987 41.432V42.456C79.987 42.84 79.859 43.3733 79.603 44.056C79.3897 44.6107 79.283 45.0587 79.283 45.4C79.283 45.5707 79.4537 45.72 79.795 45.848L80.627 44.568C80.6697 44.6107 80.691 44.696 80.691 44.824C80.691 44.9093 80.6483 45.016 80.563 45.144C80.5203 45.272 80.499 45.3573 80.499 45.4L80.563 45.528L80.627 45.784C80.627 46.04 80.5417 46.3387 80.371 46.68C80.2003 46.9787 80.0723 47.192 79.987 47.32H80.051L80.819 46.488V46.68C80.819 46.808 80.7123 47.0427 80.499 47.384C80.2857 47.7253 80.0937 47.9813 79.923 48.152L80.243 48.408C79.8163 48.664 79.3043 49.0053 78.707 49.432L78.515 49.816L77.363 50.84H77.299L77.363 50.904C77.107 51.032 76.6163 51.352 75.891 51.864C75.2083 52.376 74.7177 52.696 74.419 52.824L74.611 52.504C71.8803 53.784 68.3603 54.424 64.051 54.424H63.219L63.411 54.68L63.347 54.936L63.091 55C63.0483 54.872 62.899 54.808 62.643 54.808H62.195C62.067 54.808 61.875 54.68 61.619 54.424H61.235C60.7657 54.424 60.4457 54.3387 60.275 54.168C59.891 54.04 59.4217 53.976 58.867 53.976C58.6537 53.848 58.419 53.7627 58.163 53.72C56.4137 53.2507 54.6857 52.12 52.979 50.328C51.315 48.536 50.3337 46.744 50.035 44.952C50.035 44.8667 49.9923 44.696 49.907 44.44C49.9497 44.3547 49.971 44.2267 49.971 44.056C49.971 43.928 49.9497 43.8 49.907 43.672C49.8643 43.5013 49.843 43.3307 49.843 43.16V42.968H49.715V43.608H49.587C49.5443 43.5227 49.523 43.352 49.523 43.096L49.459 42.904C49.459 42.8187 49.4803 42.7973 49.523 42.84C49.6083 42.84 49.651 42.84 49.651 42.84H49.779V42.328C49.6937 42.2427 49.6083 41.9653 49.523 41.496C49.4803 41.0267 49.459 40.6427 49.459 40.344H49.075L49.331 39.896L49.459 39.96L49.523 39.576H49.203C49.2457 39.5333 49.3097 39.4907 49.395 39.448C49.523 39.4053 49.587 39.3413 49.587 39.256L49.523 39.128C49.4803 39.128 49.395 39.192 49.267 39.32L49.203 38.936C49.203 38.68 49.2457 38.4027 49.331 38.104C49.459 37.8053 49.5443 37.5707 49.587 37.4H49.523L49.779 37.272C49.7363 37.272 49.6937 37.2507 49.651 37.208C49.6083 37.1653 49.587 37.1227 49.587 37.08C49.587 37.0373 49.6297 36.9733 49.715 36.888L49.843 36.504L49.715 36.44C49.8003 36.2693 49.843 36.12 49.843 35.992L49.779 35.928L49.971 35.672L49.907 35.608L49.779 35.736C49.8217 35.608 49.9283 35.0747 50.099 34.136C50.2697 33.1547 50.4403 32.536 50.611 32.28C50.6963 31.896 50.8457 31.4907 51.059 31.064C51.2723 30.5947 51.443 30.2107 51.571 29.912V29.656C51.699 29.528 51.763 29.4427 51.763 29.4V29.272C51.8057 29.1013 51.8697 28.9947 51.955 28.952C52.083 28.8667 52.211 28.824 52.339 28.824L52.275 28.76H52.019C52.1043 28.6747 52.211 28.6107 52.339 28.568C52.5097 28.4827 52.6377 28.3973 52.723 28.312L52.467 28.248C52.7657 28.0347 53.0857 27.6933 53.427 27.224C53.7683 26.7547 54.067 26.392 54.323 26.136L53.683 26.328L53.619 26.264C53.619 26.264 53.811 26.136 54.195 25.88L54.003 25.816C54.0883 25.6027 54.195 25.2187 54.323 24.664L53.875 24.728L54.131 24.536L54.451 24.472L54.387 24.344C54.3017 24.3867 54.195 24.4293 54.067 24.472C53.9817 24.5147 53.875 24.5573 53.747 24.6L54.131 24.152C54.5577 23.9813 55.0483 23.832 55.603 23.704L55.731 23.576C55.3043 23.576 55.0057 23.5973 54.835 23.64L54.771 23.512C55.155 23.4267 55.4537 23.2987 55.667 23.128C55.923 22.9573 56.0723 22.8507 56.115 22.808H55.475L56.051 22.552L56.115 22.744H56.243C56.3283 22.744 56.4777 22.6373 56.691 22.424L56.499 22.552H56.243C56.3283 22.3813 56.4777 22.296 56.691 22.296L57.459 22.36C57.587 22.36 57.779 22.3173 58.035 22.232H57.715C57.715 22.104 57.651 22.04 57.523 22.04C57.3523 22.04 57.139 22.0827 56.883 22.168C56.627 22.2533 56.435 22.296 56.307 22.296H56.243L56.435 22.04C56.5203 21.9973 56.7123 21.9547 57.011 21.912C57.3523 21.8693 57.523 21.8267 57.523 21.784L57.459 21.592C57.587 21.592 57.779 21.6347 58.035 21.72L57.651 21.848V21.912L57.907 21.848L58.099 22.04C58.227 21.9973 58.3763 21.9547 58.547 21.912C58.7603 21.8693 58.931 21.784 59.059 21.656C59.2297 21.656 59.4643 21.6773 59.763 21.72C60.0617 21.72 60.3177 21.6987 60.531 21.656L60.467 21.592L60.211 21.656L60.467 21.528C60.979 21.528 61.4057 21.464 61.747 21.336C62.131 21.1653 62.387 21.0587 62.515 21.016L62.195 20.888C62.4937 20.8027 62.643 20.6747 62.643 20.504V20.312L62.899 20.44L63.027 20.632L62.771 20.76C63.4537 20.4613 64.3923 20.248 65.587 20.12C66.7817 19.9493 67.8483 19.864 68.787 19.864C70.2377 19.864 71.4323 19.9707 72.371 20.184C73.3523 20.3973 74.1843 20.696 74.867 21.08C75.5923 21.4213 76.787 22.0827 78.451 23.064C78.5363 22.8933 78.6217 22.7867 78.707 22.744C79.347 23.2987 79.8377 23.8107 80.179 24.28C80.563 24.7067 80.819 25.1973 80.947 25.752C81.0323 26.2213 81.3097 26.648 81.779 27.032C82.291 27.4587 82.7177 27.992 83.059 28.632C83.4003 29.272 83.635 30.36 83.763 31.896L83.827 32.024C83.827 32.1947 83.8057 32.3013 83.763 32.344ZM61.235 27.16C61.107 27.3307 60.8297 27.544 60.403 27.8C60.019 28.056 59.763 28.248 59.635 28.376H59.955C60.3817 28.376 60.7017 28.2907 60.915 28.12V27.8C61.0857 27.8 61.2137 27.8213 61.299 27.864L60.787 28.504C60.7017 28.504 60.6163 28.568 60.531 28.696C60.531 28.7387 60.5737 28.8027 60.659 28.888C60.8723 28.888 61.1923 28.8027 61.619 28.632C62.0457 28.4613 62.323 28.3547 62.451 28.312V28.504C62.6217 28.4613 62.8563 28.3973 63.155 28.312C63.4963 28.2267 63.7737 28.12 63.987 27.992C64.2003 27.864 64.3497 27.672 64.435 27.416C64.3923 27.416 64.307 27.3947 64.179 27.352C64.0937 27.2667 64.051 27.1813 64.051 27.096C64.051 27.0107 64.115 26.904 64.243 26.776L62.003 27.032L62.515 26.84L62.323 26.648L63.347 26.072C63.1763 25.9867 63.027 25.944 62.899 25.944C62.6857 25.944 62.515 26.008 62.387 26.136C62.259 26.2213 62.131 26.3493 62.003 26.52C61.9177 26.5627 61.7897 26.6267 61.619 26.712C61.4483 26.7973 61.3203 26.9467 61.235 27.16ZM59.507 29.72C59.123 29.9333 58.867 30.424 58.739 31.192C58.611 31.9173 58.5257 32.3867 58.483 32.6H58.675C58.5897 32.856 58.547 33.0693 58.547 33.24L58.611 33.304C58.8243 33.048 59.187 32.6 59.699 31.96C60.211 31.32 60.7017 30.7653 61.171 30.296C61.683 29.8267 62.131 29.592 62.515 29.592L62.707 29.464L62.643 29.4L61.107 29.592C61.2777 29.5493 61.5977 29.4853 62.067 29.4C62.5363 29.3147 62.835 29.1227 62.963 28.824C62.1097 28.9947 61.4697 29.144 61.043 29.272C60.787 29.272 60.595 29.208 60.467 29.08C60.1683 29.1653 59.8483 29.3787 59.507 29.72ZM66.291 33.304L70.579 33.368C72.0297 33.368 73.075 33.304 73.715 33.176L73.843 32.984L74.291 32.92C74.2057 32.408 74.0563 31.9173 73.843 31.448C73.6297 30.9787 73.4803 30.6373 73.395 30.424C72.5417 29.656 71.5603 29.272 70.451 29.272C69.8963 29.272 69.491 29.3787 69.235 29.592L69.427 29.848V29.976L69.171 29.912V29.272L68.979 29.336L68.531 29.72C68.3603 29.592 68.211 29.4427 68.083 29.272C67.7843 29.272 67.571 29.2933 67.443 29.336V29.592L67.251 29.336L67.059 29.4L67.251 29.72L66.803 29.4C66.419 29.4853 65.651 29.9333 64.499 30.744C63.3897 31.512 62.6643 32.088 62.323 32.472C62.6217 32.472 62.8777 32.5573 63.091 32.728L62.899 32.344L62.963 32.28C63.091 32.408 63.2403 32.4933 63.411 32.536L63.539 32.088C63.795 32.1307 63.923 32.344 63.923 32.728V32.792L64.051 33.24H64.435V33.368L64.499 33.304C64.499 33.048 64.5203 32.856 64.563 32.728L64.691 33.304H66.291ZM57.715 38.04C57.8003 37.912 57.843 37.7413 57.843 37.528C57.843 37.3147 57.843 37.1867 57.843 37.144L57.651 37.208L57.843 37.016V36.952L57.651 36.824L57.843 36.696C57.843 36.312 57.8857 35.6933 57.971 34.84L58.035 32.984C58.035 32.728 57.9923 32.5147 57.907 32.344L58.035 32.024H57.907C57.779 32.2373 57.5443 33.1333 57.203 34.712C56.9043 36.2907 56.7337 37.2293 56.691 37.528L56.755 37.912L57.075 37.656H57.139L57.011 38.36L57.203 38.488C57.2883 38.36 57.459 38.2107 57.715 38.04ZM71.475 34.2C71.3897 34.1573 71.2617 34.136 71.091 34.136L71.539 34.008C71.3683 33.9653 71.1123 33.944 70.771 33.944C70.2163 33.944 69.6617 34.1147 69.107 34.456C69.235 34.4987 69.4483 34.52 69.747 34.52C70.0457 34.52 70.3657 34.4773 70.707 34.392C71.091 34.3067 71.347 34.2427 71.475 34.2ZM65.907 34.776C66.0777 34.904 66.3123 34.968 66.611 34.968C67.0377 34.968 67.507 34.7973 68.019 34.456C67.6777 34.456 67.3363 34.4773 66.995 34.52C66.6963 34.5627 66.3763 34.584 66.035 34.584C65.8643 34.4987 65.715 34.456 65.587 34.456H65.331C64.819 34.456 64.563 34.6053 64.563 34.904L64.627 34.968L64.819 34.712L65.075 35.096C65.4163 34.9253 65.6937 34.8187 65.907 34.776Z" stroke="#1EE2D7"/>
<path d="M126.744 7.384C126.957 7.55467 127.149 7.78933 127.32 8.088C127.533 8.344 127.64 8.55733 127.64 8.728C127.64 8.984 127.491 9.24 127.192 9.496C126.936 9.752 126.808 10.0293 126.808 10.328C126.808 10.6267 126.893 10.84 127.064 10.968C126.765 11.0533 125.421 11.3947 123.032 11.992C122.691 12.0773 122.456 12.248 122.328 12.504C122.243 12.76 122.136 12.952 122.008 13.08C121.88 13.208 121.56 13.272 121.048 13.272C121.176 13.144 121.325 12.9307 121.496 12.632C121.709 12.3333 121.88 12.12 122.008 11.992C121.453 12.1627 121.112 12.2907 120.984 12.376C120.856 12.4613 120.749 12.632 120.664 12.888C120.621 13.1013 120.536 13.3573 120.408 13.656L120.28 13.144L120.024 13.208L119.832 13.784C119.789 13.784 119.725 13.784 119.64 13.784C119.597 13.7413 119.533 13.6773 119.448 13.592C119.448 13.464 119.661 13.208 120.088 12.824C120.557 12.44 120.941 12.1413 121.24 11.928C121.368 11.8853 121.475 11.8 121.56 11.672C121.688 11.544 121.773 11.4373 121.816 11.352C120.877 11.5227 120.195 11.608 119.768 11.608V11.48C119.384 11.5653 118.851 11.7787 118.168 12.12L117.976 12.44C117.976 12.568 117.933 12.696 117.848 12.824C117.805 12.9093 117.72 12.952 117.592 12.952L117.272 12.888C117.144 13.016 117.08 13.1227 117.08 13.208C117.336 13.208 117.485 13.3147 117.528 13.528C117.528 13.6133 117.507 13.6773 117.464 13.72C117.421 13.7627 117.379 13.8053 117.336 13.848L116.824 13.656C116.824 13.912 116.845 14.0827 116.888 14.168H115.992C115.053 17.9227 114.413 20.76 114.072 22.68H114.52C115.032 22.68 115.309 22.5307 115.352 22.232C115.821 21.9333 116.077 21.784 116.12 21.784C116.291 21.784 116.525 21.848 116.824 21.976C117.165 22.0613 117.443 22.104 117.656 22.104C118.04 22.104 118.339 21.976 118.552 21.72C118.808 21.464 119.064 21.08 119.32 20.568C119.576 20.0133 119.789 19.736 119.96 19.736C120.429 19.736 121.091 19.9067 121.944 20.248C122.84 20.5467 123.288 20.8453 123.288 21.144C123.288 21.3147 123.16 21.656 122.904 22.168C122.648 22.68 122.52 23.1067 122.52 23.448C122.52 23.704 122.691 24.2373 123.032 25.048C123.843 27.2667 124.248 28.9947 124.248 30.232C124.248 31.64 124.077 32.6853 123.736 33.368C123.395 34.0507 122.627 34.392 121.432 34.392C120.664 34.392 119.512 34.3067 117.976 34.136C116.696 33.9227 115.523 33.816 114.456 33.816H112.728C112.685 34.1147 112.579 34.712 112.408 35.608C112.024 37.3147 111.832 38.744 111.832 39.896C111.832 39.9387 111.832 39.9813 111.832 40.024C111.832 40.024 111.853 40.024 111.896 40.024C111.853 40.2373 111.832 40.536 111.832 40.92C111.491 41.1333 111.32 41.5387 111.32 42.136C111.32 42.6053 111.405 43.352 111.576 44.376C111.789 45.2293 111.896 46.0187 111.896 46.744C111.896 47.0427 111.832 47.32 111.704 47.576C111.576 47.832 111.427 48.0667 111.256 48.28C110.744 48.9627 110.488 49.6667 110.488 50.392C110.488 50.8187 110.424 51.3307 110.296 51.928C110.168 52.4827 110.083 52.8453 110.04 53.016C109.699 54.2107 109.528 55.064 109.528 55.576C109.485 56.216 109.421 56.6 109.336 56.728C109.251 56.8987 108.931 57.0053 108.376 57.048C108.291 57.048 108.184 57.1333 108.056 57.304C107.928 57.4747 107.821 57.5813 107.736 57.624C107.608 57.7093 106.563 58.0293 104.6 58.584L104.472 59.032H103.768L103.896 59.928C103.683 59.5867 103.533 59.3947 103.448 59.352C103.363 59.48 103.277 59.6293 103.192 59.8C103.021 59.416 102.829 59.224 102.616 59.224C102.488 59.224 102.36 59.288 102.232 59.416C102.104 59.3307 101.869 59.224 101.528 59.096C101.229 58.968 101.059 58.84 101.016 58.712C100.888 58.3707 100.419 57.6667 99.608 56.6C98.84 55.576 98.3067 54.9787 98.008 54.808L97.688 54.616C97.688 54.1893 97.56 53.9333 97.304 53.848C97.0907 53.72 96.792 53.6773 96.408 53.72C96.0667 53.72 95.7893 53.6987 95.576 53.656L96.536 53.208C96.4507 52.9947 96.2373 52.5893 95.896 51.992C95.5547 51.352 95.384 50.9253 95.384 50.712C95.384 50.328 95.4693 50.008 95.64 49.752C95.8107 49.4533 96.0667 49.112 96.408 48.728C96.28 48.8133 96.1307 48.8987 95.96 48.984C95.7893 49.0267 95.6187 49.0907 95.448 49.176L95.384 49.048L96.024 48.152L95.192 47.96C95.2347 47.6613 95.384 47.4267 95.64 47.256C95.9387 47.0427 96.2373 46.936 96.536 46.936H97.112C97.2827 46.936 97.5173 46.872 97.816 46.744L97.944 46.168L98.2 46.104V45.912C97.9867 45.8693 97.6027 45.848 97.048 45.848V45.784C97.176 45.7413 97.56 45.656 98.2 45.528C98.584 44.0773 98.9893 41.816 99.416 38.744C99.5013 37.9333 99.672 36.76 99.928 35.224C99.544 35.3093 99.1387 35.1813 98.712 34.84C98.2853 34.4987 97.9227 34.328 97.624 34.328L94.488 34.264L93.4 34.328C93.144 34.328 92.8027 33.8587 92.376 32.92C91.9493 31.9387 91.5867 31.064 91.288 30.296L90.968 30.232C90.968 29.976 90.9253 29.784 90.84 29.656L90.264 29.912C90.392 29.7413 90.4773 29.5493 90.52 29.336L90.2 29.208C90.328 29.1227 90.4347 28.9307 90.52 28.632C90.52 28.504 90.4347 28.4187 90.264 28.376C90.392 27.5227 90.8187 26.6053 91.544 25.624C91.7573 25.3253 91.9493 25.0267 92.12 24.728C92.2907 24.4293 92.3973 24.152 92.44 23.896L92.568 23.576C92.8667 23.4907 93.016 23.3627 93.016 23.192C93.016 22.9787 92.9733 22.7013 92.888 22.36C92.8453 22.0187 92.8027 21.7413 92.76 21.528C92.888 21.784 93.08 22.04 93.336 22.296C93.8907 21.4427 94.36 21.016 94.744 21.016C95.256 21.016 95.6613 21.208 95.96 21.592L95.64 20.888L95.704 20.696C95.8747 20.9093 96.1093 21.0587 96.408 21.144C96.3653 20.9733 96.344 20.7173 96.344 20.376C96.6 20.4187 96.792 20.568 96.92 20.824C97.048 21.0373 97.1547 21.336 97.24 21.72C97.3253 22.0613 97.4107 22.36 97.496 22.616H97.944L98.072 22.872L98.136 22.808L97.944 21.656H98.008L98.392 22.808C99.0747 22.8507 100.12 22.872 101.528 22.872C101.571 22.616 101.656 22.232 101.784 21.72C101.912 21.1653 101.976 20.7387 101.976 20.44C101.976 20.0987 101.869 19.6933 101.656 19.224C101.443 18.7547 101.336 18.3707 101.336 18.072C101.336 17.7733 101.443 17.4107 101.656 16.984C101.869 16.5573 101.976 16.2587 101.976 16.088C101.976 15.96 101.891 15.8107 101.72 15.64H102.168V15.512H101.976C102.275 14.616 102.765 13.272 103.448 11.48C103.875 10.456 104.237 9.51733 104.536 8.664H104.984C106.264 6.57333 107.587 5.05866 108.952 4.12C110.317 3.18133 112.173 2.43466 114.52 1.88C114.179 1.70933 113.965 1.624 113.88 1.624C113.624 1.624 113.432 1.73066 113.304 1.944L112.472 1.624C113.069 1.45333 113.517 1.34666 113.816 1.304C115.224 0.834665 116.419 0.599998 117.4 0.599998C117.912 0.599998 118.403 0.663998 118.872 0.791996C119.043 0.834665 119.235 0.877332 119.448 0.919998C119.704 0.962664 120.003 0.983997 120.344 0.983997C120.515 0.983997 120.685 0.941331 120.856 0.855999C121.069 0.770664 121.24 0.727997 121.368 0.727997V1.24C121.709 1.28266 122.072 1.38933 122.456 1.56C122.883 1.688 123.181 1.85867 123.352 2.072C123.224 2.02933 123.032 1.98666 122.776 1.944C122.52 1.90133 122.328 1.88 122.2 1.88V1.944C122.499 2.072 122.861 2.264 123.288 2.52C123.715 2.776 123.949 3.01067 123.992 3.224C124.376 3.48 124.675 3.736 124.888 3.992C124.632 3.94933 124.333 3.864 123.992 3.736C123.693 3.56533 123.459 3.45866 123.288 3.416L123.224 3.8C123.224 4.056 123.416 4.29066 123.8 4.504C125.08 5.18666 126.232 6.168 127.256 7.448C127.171 7.40533 127 7.384 126.744 7.384ZM102.616 20.376C102.531 20.5467 102.424 20.696 102.296 20.824C102.211 20.952 102.125 21.1013 102.04 21.272L102.552 21.784C102.595 21.5707 102.637 21.3787 102.68 21.208C102.723 20.9947 102.765 20.7813 102.808 20.568L102.616 20.376ZM103.064 21.08C102.851 21.592 102.701 22.1893 102.616 22.872H103.768L103.32 21.08H103.064ZM114.84 23.256C114.755 23.0853 114.541 22.9573 114.2 22.872L113.944 23.384L114.84 23.448V23.256ZM114.52 23.768C114.392 23.6827 114.264 23.64 114.136 23.64C114.051 23.64 113.965 23.6187 113.88 23.576C113.88 23.6613 113.859 23.768 113.816 23.896C113.816 24.024 113.773 24.1733 113.688 24.344L113.88 24.536L114.584 24.024L114.52 23.768ZM113.688 24.536V24.664C113.688 24.6213 113.731 24.6 113.816 24.6L113.688 24.536ZM99.416 26.2C99.544 26.072 99.7147 25.9653 99.928 25.88C100.141 25.752 100.312 25.624 100.44 25.496L100.76 25.752V25.24C100.589 25.1547 100.376 25.048 100.12 24.92C99.864 24.792 99.5867 24.728 99.288 24.728C99.0747 24.728 98.904 24.8133 98.776 24.984C98.6907 25.1547 98.648 25.3467 98.648 25.56V25.752L98.776 25.88C98.904 25.624 98.968 25.4533 98.968 25.368C99.0533 25.5387 99.1173 25.688 99.16 25.816C99.2453 25.9013 99.3307 26.0293 99.416 26.2ZM102.04 25.88V25.112L101.336 25.176L101.72 25.88H102.04ZM102.168 36.696C102.467 36.0987 102.616 35.416 102.616 34.648V34.072L101.464 34.456C101.464 35.2667 101.699 36.0133 102.168 36.696ZM101.656 43.16C102.168 42.5627 102.424 41.9227 102.424 41.24C102.424 40.472 102.168 39.6827 101.656 38.872C101.656 39.4267 101.613 40.2373 101.528 41.304C101.443 42.328 101.379 42.8613 101.336 42.904C100.824 43.416 100.568 44.12 100.568 45.016C100.568 45.272 100.632 45.4853 100.76 45.656C100.931 45.8267 101.144 45.912 101.4 45.912L101.656 45.784L101.144 45.464C101.528 45.1653 101.848 44.9733 102.104 44.888L101.656 43.16Z" stroke="#1EE2D7"/>
<path d="M165.626 27.544C165.583 27.7573 165.434 27.928 165.178 28.056C164.965 28.184 164.73 28.248 164.474 28.248H164.154C163.941 28.248 163.727 28.3333 163.514 28.504L163.386 28.888L163.194 28.952V29.08L164.154 29.016V29.08C163.727 29.1653 163.407 29.2507 163.194 29.336C163.066 29.6347 162.789 31.576 162.362 35.16C161.935 38.744 161.722 40.8347 161.722 41.432V41.56L162.106 41.688C162.106 42.1573 162.149 42.8187 162.234 43.672C162.191 43.6293 161.85 43.224 161.21 42.456L161.018 42.52C161.018 42.8613 161.061 43.3307 161.146 43.928H161.594C161.466 45.464 161.402 46.2747 161.402 46.36C161.402 46.5307 161.487 46.744 161.658 47C161.871 47.256 161.978 47.4907 161.978 47.704C161.978 47.9173 161.893 48.216 161.722 48.6C161.594 48.984 161.53 49.2613 161.53 49.432C161.53 49.7307 161.637 50.008 161.85 50.264C162.063 50.52 162.383 50.8187 162.81 51.16C163.237 51.5013 163.45 51.7573 163.45 51.928C163.45 52.2267 163.237 52.8667 162.81 53.848C162.426 54.7867 162.127 55.256 161.914 55.256C161.743 55.256 161.402 55.064 160.89 54.68C160.421 54.296 160.058 54.104 159.802 54.104C159.503 54.104 158.799 54.232 157.69 54.488C156.239 54.8293 155.151 55 154.426 55C153.359 55 152.314 54.8293 151.29 54.488C150.309 54.104 149.775 53.5067 149.69 52.696C149.477 52.8667 149.178 53.016 148.794 53.144C148.41 53.272 148.111 53.3787 147.898 53.464V53.528L149.05 53.4C148.879 53.528 148.175 53.7413 146.938 54.04C146.895 54.1253 146.874 54.2533 146.874 54.424C146.106 54.296 145.679 54.232 145.594 54.232H145.146L144.698 54.424C144.143 54.424 143.717 54.4453 143.418 54.488L142.138 54.552C141.37 54.552 140.623 54.424 139.898 54.168L140.602 53.912C140.73 54.1253 140.922 54.232 141.178 54.232C141.391 54.232 141.626 54.1467 141.882 53.976C140.901 53.8053 140.09 53.6347 139.45 53.464C138.853 53.2507 138.213 52.9307 137.53 52.504C137.402 52.504 137.253 52.568 137.082 52.696C136.954 52.7813 136.869 52.8453 136.826 52.888L136.698 52.568L136.122 52.888L136.506 52.312C136.335 52.2693 136.079 52.248 135.738 52.248C134.757 51.5653 133.925 50.6907 133.242 49.624C132.559 48.5573 132.154 47.4693 132.026 46.36L132.154 45.848C132.154 45.592 132.026 45.2933 131.77 44.952C131.557 44.6107 131.45 44.3333 131.45 44.12C131.45 43.9067 131.706 43.3733 132.218 42.52C132.858 41.496 133.178 40.8133 133.178 40.472C133.178 40.216 133.093 40.024 132.922 39.896L133.05 39.448L133.69 39.64V37.08C133.69 36.5253 133.754 35.9707 133.882 35.416C133.967 34.648 134.01 34.0933 134.01 33.752V33.624C133.967 33.624 133.925 33.6667 133.882 33.752C133.839 33.8373 133.797 33.88 133.754 33.88C133.754 33.88 133.733 33.88 133.69 33.88C133.69 33.8373 133.69 33.816 133.69 33.816C133.69 33.304 133.839 32.792 134.138 32.28C134.394 31.6827 134.522 31.192 134.522 30.808C134.522 30.424 134.458 30.04 134.33 29.656C134.202 29.2293 134.117 28.952 134.074 28.824L133.882 29.336L133.114 25.816L133.242 25.432C133.541 25.1333 133.69 24.8133 133.69 24.472V24.088C133.69 23.5333 133.818 23.128 134.074 22.872C134.629 22.2747 135.61 21.784 137.018 21.4C138.469 20.9733 139.685 20.76 140.666 20.76C141.477 20.76 142.309 20.824 143.162 20.952C143.674 21.0373 144.421 21.784 145.402 23.192C146.383 24.6 146.938 25.6453 147.066 26.328V26.392C147.066 26.4347 146.959 26.4773 146.746 26.52C146.533 26.5627 146.426 26.6693 146.426 26.84C146.426 27.0107 146.447 27.2027 146.49 27.416C146.575 27.5867 146.618 27.7573 146.618 27.928C146.618 28.0133 146.511 28.1413 146.298 28.312C146.127 28.4827 146.021 28.6747 145.978 28.888L145.658 31.128H145.146L144.506 32.472L144.762 32.6C145.018 32.472 145.274 32.28 145.53 32.024C145.829 31.7253 146.085 31.512 146.298 31.384C145.914 32.4507 145.679 33.1333 145.594 33.432C145.423 33.432 145.274 33.496 145.146 33.624C144.805 34.7333 144.634 36.2053 144.634 38.04C144.634 38.296 144.613 38.7653 144.57 39.448C144.527 40.088 144.463 40.6853 144.378 41.24C144.293 41.5813 144.25 41.8373 144.25 42.008C144.25 42.4773 144.506 42.776 145.018 42.904L145.21 43.608C145.381 43.608 145.487 43.5867 145.53 43.544V43.672L146.362 43.8L146.298 43.864H145.594C145.551 43.992 145.466 44.056 145.338 44.056V44.376C145.637 44.3333 145.807 44.44 145.85 44.696H146.298C147.151 44.696 147.599 44.9093 147.642 45.336L146.81 45.464L147.45 45.592V45.464C147.919 45.464 148.538 45.5493 149.306 45.72C149.178 45.464 148.858 45.144 148.346 44.76C147.877 44.3333 147.599 44.0347 147.514 43.864C147.514 43.8213 147.557 43.7787 147.642 43.736C147.77 43.6933 147.855 43.672 147.898 43.672L147.962 44.12L148.218 44.184L148.538 43.736C148.538 44.248 148.559 44.568 148.602 44.696C148.645 44.7813 148.773 44.8667 148.986 44.952C149.199 44.9947 149.434 45.08 149.69 45.208L149.05 44.12C149.221 44.12 149.434 44.1627 149.69 44.248C149.989 44.3333 150.138 44.44 150.138 44.568C150.138 44.7813 150.181 44.9307 150.266 45.016C150.394 45.1013 150.522 45.1653 150.65 45.208C150.821 45.2507 150.927 45.272 150.97 45.272C151.013 45.1013 151.055 44.8667 151.098 44.568C151.141 44.2693 151.162 43.9067 151.162 43.48C151.162 42.4133 151.29 40.8133 151.546 38.68C151.589 38.296 151.653 37.6133 151.738 36.632C151.823 35.608 151.866 34.6907 151.866 33.88C151.866 33.8373 151.866 33.7947 151.866 33.752C151.866 33.6667 151.845 33.624 151.802 33.624V33.112C152.058 32.8987 152.186 32.6427 152.186 32.344C152.186 32.0027 152.058 31.448 151.802 30.68C151.759 30.552 151.695 30.3387 151.61 30.04C151.525 29.6987 151.482 29.4 151.482 29.144C151.482 28.8453 151.653 28.4827 151.994 28.056C152.335 27.5867 152.506 27.1813 152.506 26.84C152.506 26.4133 152.591 25.816 152.762 25.048C152.933 24.1947 153.018 23.5547 153.018 23.128V22.872C153.018 22.5733 153.061 22.4027 153.146 22.36C153.231 22.3173 153.487 22.2747 153.914 22.232L154.426 21.72C155.023 21.4213 155.877 21.1867 156.986 21.016L157.05 20.696C157.178 20.6533 157.391 20.632 157.69 20.632C157.69 20.4613 157.647 20.248 157.562 19.992L157.946 20.376L158.138 20.056C158.394 20.312 158.586 20.44 158.714 20.44C158.885 20.44 158.991 20.376 159.034 20.248C159.759 20.5467 160.527 21.1013 161.338 21.912C162.149 22.6373 162.639 23.0427 162.81 23.128L163.066 23.32C163.066 23.576 163.215 23.704 163.514 23.704H164.986C164.901 23.7467 164.623 23.896 164.154 24.152C164.239 24.2373 164.431 24.4507 164.73 24.792C165.071 25.1333 165.242 25.4533 165.242 25.752C165.242 26.0507 165.221 26.264 165.178 26.392L164.538 27.096C164.879 26.9253 165.135 26.8187 165.306 26.776L165.434 26.84C165.391 26.968 165.306 27.096 165.178 27.224C165.05 27.3093 164.943 27.3733 164.858 27.416L165.626 27.544ZM145.082 29.848L145.658 29.464C145.615 29.2933 145.509 29.08 145.338 28.824L145.082 28.952V29.848ZM160.698 31.192C160.826 31.1067 160.933 30.936 161.018 30.68C161.146 30.3813 161.21 30.1253 161.21 29.912C161.21 29.4427 160.933 29.208 160.378 29.208L160.25 29.336L160.634 29.528C160.506 29.656 160.271 29.8053 159.93 29.976C160.058 30.1893 160.207 30.552 160.378 31.064C159.994 31.448 159.802 31.8533 159.802 32.28C159.802 32.7493 160.058 33.2827 160.57 33.88V32.536C160.57 31.896 160.613 31.448 160.698 31.192ZM144.442 29.272C144.357 29.3573 144.165 29.5707 143.866 29.912C143.567 30.2533 143.418 30.5733 143.418 30.872C143.418 31.0427 143.482 31.2133 143.61 31.384C143.738 31.512 143.887 31.576 144.058 31.576C144.314 31.576 144.549 31.3627 144.762 30.936V29.272H144.442ZM142.778 37.016C143.717 36.2907 144.186 35.416 144.186 34.392L144.122 33.688C144.079 33.944 143.973 34.1787 143.802 34.392V33.752C143.717 33.9227 143.503 34.2853 143.162 34.84C142.821 35.3947 142.65 35.928 142.65 36.44C142.65 36.568 142.693 36.76 142.778 37.016ZM160.698 38.616C160.911 38.0613 161.018 37.5493 161.018 37.08C161.018 36.3973 160.783 35.8213 160.314 35.352C160.143 35.6933 160.058 36.0773 160.058 36.504C160.058 36.8027 160.101 37.1653 160.186 37.592C160.314 38.0187 160.399 38.36 160.442 38.616L160.57 37.976L160.698 38.616ZM142.906 40.792L143.354 39.064C142.458 39.7467 142.01 40.408 142.01 41.048L142.906 40.792ZM160.378 45.848C160.421 45.6773 160.485 45.4 160.57 45.016C160.698 44.632 160.762 44.2907 160.762 43.992C160.762 43.6933 160.613 43.544 160.314 43.544C160.101 43.544 159.93 43.672 159.802 43.928C159.674 44.1413 159.61 44.3547 159.61 44.568C159.61 44.696 159.802 45.144 160.186 45.912L160.378 45.848ZM160.826 45.272C160.698 45.784 160.634 46.0613 160.634 46.104L160.826 46.232L161.274 45.656L160.826 45.272ZM149.69 51.48C149.434 51.736 149.306 51.9493 149.306 52.12V52.248L149.626 52.184C149.669 52.0133 149.69 51.7787 149.69 51.48Z" stroke="#1EE2D7"/>
<path d="M207.34 38.616V39C207.34 39.5547 207.276 40.1947 207.148 40.92H207.533L207.212 41.304L207.085 41.24L206.956 41.624H207.277C207.234 41.6667 207.17 41.7093 207.085 41.752C206.999 41.752 206.935 41.7733 206.893 41.816V41.88C206.935 41.88 206.999 41.8373 207.085 41.752V42.008C207.085 42.3067 206.999 42.584 206.829 42.84C206.658 43.096 206.53 43.288 206.445 43.416H206.508L206.189 43.48L206.38 43.672L205.932 44.184L206.124 44.248C206.082 44.3333 206.039 44.4187 205.997 44.504C205.954 44.5467 205.911 44.6107 205.868 44.696L205.932 44.76L205.676 44.952L205.741 45.016L205.932 44.824L205.1 45.848C204.247 46.9573 203.735 47.704 203.564 48.088C203.351 48.216 203.266 48.3227 203.309 48.408C203.138 48.6213 202.925 48.728 202.669 48.728V48.792H202.861C202.306 49.0053 202.05 49.112 202.092 49.112L202.221 49.24L201.133 50.136C200.535 50.5627 200.151 50.8613 199.98 51.032L200.685 50.84V50.968C200.514 51.096 200.3 51.16 200.044 51.16L200.236 51.288C200.151 51.3733 200.066 51.544 199.98 51.8C199.895 52.0133 199.789 52.1627 199.661 52.248L200.109 52.184L199.853 52.312L199.469 52.376V52.504L200.236 52.312C200.066 52.4827 199.895 52.6107 199.725 52.696C199.341 52.7387 198.722 52.8453 197.868 53.016C198.082 53.0587 198.444 53.08 198.956 53.08V53.144C198.828 53.2293 198.573 53.272 198.189 53.272L197.421 53.592C197.549 53.6347 197.762 53.656 198.061 53.656V53.72L197.421 53.912V53.72L197.292 53.656C197.122 53.656 196.951 53.7413 196.781 53.912C196.866 53.8693 197.036 53.848 197.292 53.848C197.164 53.976 196.994 54.04 196.781 54.04C196.61 54.04 196.439 54.0187 196.268 53.976C196.14 53.9333 195.97 53.912 195.757 53.912C195.586 53.912 195.458 53.9333 195.372 53.976H195.564C195.607 54.1467 195.756 54.232 196.012 54.232L197.165 54.168L196.973 54.296C196.93 54.3387 196.717 54.36 196.333 54.36C195.991 54.36 195.82 54.4027 195.82 54.488V54.68C195.65 54.68 195.458 54.616 195.245 54.488L195.629 54.36L195.564 54.296H195.436L195.372 54.232C194.69 54.232 194.221 54.296 193.965 54.424C193.709 54.3387 193.367 54.296 192.941 54.296C192.77 54.3387 192.535 54.36 192.236 54.36C191.98 54.3173 191.725 54.296 191.469 54.296C191.383 54.3387 191.234 54.424 191.021 54.552C190.807 54.6373 190.615 54.68 190.445 54.68L190.764 54.808C190.722 54.8507 190.615 54.9147 190.445 55C190.274 55.0427 190.189 55.128 190.189 55.256L189.868 54.936L190.189 54.872L189.932 54.808C188.908 54.936 187.245 55 184.941 55C184.087 55 183.063 54.68 181.868 54.04C181.015 53.656 180.439 53.4213 180.141 53.336C179.97 53.2933 179.65 53.2293 179.18 53.144C178.711 53.016 178.348 52.8453 178.092 52.632C177.922 52.4613 177.751 52.376 177.581 52.376L177.452 51.928L176.941 52.312L177.133 51.736H176.684C176.77 51.5653 176.812 51.416 176.812 51.288V51.224C176.258 50.9253 175.788 50.584 175.404 50.2C175.063 49.816 174.594 49.2187 173.997 48.408V48.664C173.997 49.048 174.167 49.2613 174.508 49.304V49.944C173.996 49.3467 173.485 48.3653 172.973 47C172.887 46.7867 172.738 46.4667 172.525 46.04C172.354 45.6133 172.183 45.2507 172.012 44.952L172.333 44.824C172.333 44.696 172.29 44.4187 172.204 43.992C172.162 43.5227 172.205 43.224 172.333 43.096C172.375 43.1813 172.396 43.3093 172.396 43.48C172.396 43.608 172.439 43.7787 172.525 43.992H172.589C172.589 42.7547 172.781 41.88 173.165 41.368C173.207 41.624 173.229 42.0507 173.229 42.648C173.399 42.6053 173.548 42.4133 173.676 42.072C173.804 41.7307 173.89 41.432 173.932 41.176C174.018 40.92 174.082 40.728 174.124 40.6C174.38 39.4907 174.615 38.808 174.829 38.552L174.956 38.808C174.999 38.7227 175.063 38.5733 175.148 38.36C175.276 38.1467 175.383 37.976 175.469 37.848C175.597 37.72 175.767 37.656 175.98 37.656C176.066 37.656 176.194 37.6987 176.365 37.784H176.492C176.663 37.784 176.855 37.7627 177.068 37.72C177.282 37.6347 177.41 37.528 177.452 37.4C177.623 37.6987 178.05 38.232 178.732 39C179.415 39.7253 179.863 40.088 180.077 40.088C180.333 40.088 180.503 40.1307 180.589 40.216C180.717 40.2587 180.845 40.408 180.973 40.664L179.885 40.536C180.183 41.0053 180.461 41.24 180.717 41.24C180.845 41.24 180.994 41.2187 181.165 41.176C181.378 41.0907 181.527 41.0267 181.613 40.984C181.57 41.1547 181.442 41.2827 181.229 41.368L181.421 41.56L181.868 41.432V41.624C181.868 41.7093 181.826 41.752 181.74 41.752C181.442 41.752 181.037 41.624 180.525 41.368C180.055 41.0693 179.692 40.92 179.436 40.92C179.522 41.1333 179.65 41.368 179.82 41.624C180.034 41.8373 180.183 42.008 180.268 42.136V42.2L180.46 42.52L180.333 42.072H180.396C180.61 42.072 180.823 42.1787 181.036 42.392C181.292 42.5627 181.442 42.7547 181.484 42.968L181.613 43.16C181.869 43.16 182.018 43.2453 182.061 43.416L182.316 43.352L182.508 43.16C182.38 42.9893 182.274 42.8187 182.189 42.648L182.637 43.16H182.701V43.288L182.764 43.352C182.978 43.9067 184.002 44.4613 185.837 45.016C187.671 45.528 189.015 45.784 189.868 45.784C192.172 45.784 194.071 45.08 195.564 43.672C197.1 42.264 197.868 40.408 197.868 38.104C197.868 36.6533 197.186 35.5653 195.82 34.84C194.498 34.072 193.047 33.688 191.469 33.688C190.317 33.688 188.909 33.8373 187.245 34.136C186.903 34.1787 186.285 34.264 185.389 34.392C184.493 34.52 183.682 34.584 182.956 34.584L183.021 34.904L182.637 34.648L182.508 34.904L182.189 34.648C181.762 34.7333 181.378 34.6907 181.036 34.52C180.738 34.3493 180.375 34.072 179.949 33.688C179.266 33.0907 178.711 32.7493 178.285 32.664L178.092 32.536C178.092 32.3227 177.922 32.216 177.581 32.216L176.301 32.152C176.386 32.152 176.514 32.1307 176.684 32.088C176.855 32.0027 177.005 31.96 177.133 31.96C177.047 31.8747 176.876 31.704 176.62 31.448C176.407 31.192 176.301 30.9787 176.301 30.808C176.301 30.7227 176.343 30.5947 176.428 30.424C176.556 30.3387 176.663 30.2533 176.749 30.168C176.877 30.0827 177.005 29.9973 177.133 29.912C176.791 29.9973 176.514 30.0827 176.301 30.168L176.236 30.04C176.236 30.04 176.429 29.912 176.812 29.656L176.044 29.592C176.258 29.336 176.621 29.208 177.133 29.208C177.645 29.1653 178.007 29.1227 178.221 29.08L178.285 28.76L178.605 28.696H177.516V28.632C177.644 28.5893 177.815 28.568 178.029 28.568C178.242 28.568 178.434 28.5467 178.605 28.504C178.733 28.3333 179.074 27.2667 179.628 25.304C180.226 23.3413 180.653 21.848 180.909 20.824C180.567 20.9093 180.354 20.952 180.268 20.952C180.012 20.952 179.885 20.696 179.885 20.184C179.629 19.9707 179.437 19.7147 179.309 19.416C179.181 19.0747 179.074 18.712 178.988 18.328C178.903 17.944 178.839 17.6453 178.796 17.432H178.605C178.562 17.304 178.54 17.112 178.54 16.856L177.965 17.112L178.285 16.6L178.029 16.472C178.114 16.344 178.199 16.152 178.285 15.896L178.156 15.64C178.199 15.512 178.242 15.3413 178.285 15.128C178.327 14.872 178.412 14.7013 178.54 14.616C178.839 14.2747 179.202 13.784 179.628 13.144C180.098 12.504 180.354 12.0773 180.396 11.864L180.589 11.608C180.802 11.48 180.909 11.3307 180.909 11.16L180.844 9.816L181.229 10.584C181.357 10.456 181.57 10.2213 181.868 9.88C182.21 9.496 182.466 9.304 182.637 9.304C182.893 9.304 183.106 9.38933 183.277 9.56C183.447 9.73066 183.554 9.83733 183.596 9.88C183.468 9.496 183.404 9.24 183.404 9.112C183.49 9.15467 183.575 9.21866 183.661 9.304C183.746 9.38933 183.852 9.45333 183.98 9.496L184.109 8.792C184.407 8.87733 184.557 9.24 184.557 9.88C184.557 10.0507 184.578 10.2 184.62 10.328C184.663 10.456 184.748 10.584 184.876 10.712H185.26L185.324 10.904H185.389V10.008L185.581 10.904C185.709 10.9467 186.754 10.9893 188.717 11.032C190.722 11.0747 192.194 11.096 193.133 11.096H194.348C194.903 11.096 195.308 11.0747 195.564 11.032L195.693 10.712C195.991 10.6693 196.546 10.5627 197.357 10.392C197.186 10.5627 197.015 10.7333 196.844 10.904C196.674 11.0747 196.503 11.2453 196.333 11.416L196.46 11.608C196.631 11.5227 196.802 11.4587 196.973 11.416C197.186 11.3733 197.378 11.3307 197.549 11.288V10.904C197.933 10.8613 198.551 10.84 199.404 10.84C199.66 10.84 199.895 10.7547 200.109 10.584C200.322 10.4133 200.492 10.3067 200.62 10.264C200.834 10.264 201.068 10.3067 201.324 10.392C201.58 10.4347 201.815 10.456 202.029 10.456C202.327 10.456 202.562 10.3493 202.732 10.136C202.946 9.92266 203.18 9.58133 203.436 9.112C203.735 8.64266 203.97 8.408 204.141 8.408C204.397 8.408 204.908 8.536 205.676 8.792C206.487 9.048 206.893 9.28267 206.893 9.496C206.893 9.70933 206.743 10.072 206.445 10.584C206.146 11.0533 205.975 11.3947 205.932 11.608C206.018 11.9493 206.189 12.6533 206.445 13.72C206.701 14.744 206.829 15.7253 206.829 16.664C206.829 19.6507 205.933 21.144 204.141 21.144C203.629 21.144 203.031 21.1013 202.349 21.016C201.709 20.9307 201.239 20.8667 200.941 20.824C199.746 20.6107 198.679 20.504 197.741 20.504C197.442 20.504 197.186 20.5467 196.973 20.632C196.162 20.5893 195.031 20.6107 193.581 20.696C192.301 20.7813 191.383 20.824 190.829 20.824C190.829 21.336 190.743 21.8907 190.572 22.488C190.402 23.0853 190.295 23.448 190.253 23.576L189.868 24.92C192.13 24.8347 194.626 24.984 197.357 25.368C200.13 25.752 202.135 26.4133 203.372 27.352C204.567 28.2907 205.548 29.7413 206.316 31.704C207.127 33.624 207.533 35.4373 207.533 37.144V37.272C207.49 37.4853 207.447 37.6987 207.405 37.912C207.405 38.1253 207.383 38.3387 207.34 38.552H207.469L207.596 37.976H207.661V38.232C207.661 38.232 207.661 38.296 207.661 38.424C207.661 38.552 207.597 38.616 207.469 38.616H207.34ZM198.764 11.48C198.85 11.48 198.957 11.5013 199.085 11.544C199.213 11.5867 199.319 11.608 199.404 11.608L199.469 11.352C199.298 11.1813 199.127 11.096 198.956 11.096L198.764 11.48ZM197.805 11.672C197.463 11.672 197.292 11.8213 197.292 12.12C197.292 12.2907 197.356 12.44 197.484 12.568C197.655 12.6533 197.847 12.696 198.061 12.696C198.189 12.696 198.359 12.632 198.573 12.504C198.829 12.3333 199.02 12.184 199.148 12.056V11.864C198.38 11.736 197.933 11.672 197.805 11.672ZM193.26 12.248C192.663 12.1627 192.258 12.12 192.044 12.12C192.215 12.2053 192.364 12.2693 192.492 12.312C192.62 12.312 192.727 12.312 192.812 12.312L193.26 12.248ZM193.068 12.504L193.26 12.44C193.09 12.44 192.962 12.4187 192.876 12.376L193.068 12.504ZM181.868 24.536C182.124 24.1947 182.253 23.8533 182.253 23.512C182.253 23.256 182.167 22.872 181.997 22.36C181.911 22.5307 181.868 22.68 181.868 22.808C181.826 22.7227 181.805 22.5733 181.805 22.36C181.506 22.872 181.357 23.256 181.357 23.512C181.357 23.8533 181.527 24.1947 181.868 24.536ZM181.421 27.416C181.847 27.16 182.061 26.8613 182.061 26.52C182.061 26.2213 181.868 25.88 181.484 25.496L181.229 26.968L180.973 27.288C180.802 27.3307 180.674 27.4587 180.589 27.672C180.503 27.8853 180.46 28.0987 180.46 28.312C180.46 28.568 180.695 28.696 181.165 28.696L181.421 28.632L180.909 28.44C181.25 28.3547 181.527 28.2693 181.74 28.184C181.57 27.8 181.463 27.544 181.421 27.416Z" stroke="#1EE2D7"/>
</svg>
