<svg id="logo" class="logo" width="670" height="240" viewBox="-50 -50 870 200" fill="none" xmlns="http://www.w3.org/2000/svg">

<style>
* {
    margin: 0;
    padding: 0;
}
body {
    width: 100%;
    height: 100vh;
    background: #333;
}

.logo {
    position: absolute;
    top: 50%;
    left: 55%;
    transform: translate(-50%, -50%);
    animation: fill-anm 500ms ease forwards 4000ms;
}

.logo path:nth-child(1) {
    stroke-dasharray: 497;
    stroke-dashoffset: 497;
    animation: line-anm 2s ease forwards;
}

.logo path:nth-child(2) {
    stroke-dasharray: 497;
    stroke-dashoffset: 497;
    animation: line-anm 2s ease forwards 300ms;
}

.logo path:nth-child(3) {
    stroke-dasharray: 400;
    stroke-dashoffset: 400;
    animation: line-anm 2s ease forwards 600ms;
}

.logo path:nth-child(4) {
    stroke-dasharray: 497;
    stroke-dashoffset: 497;
    animation: line-anm 2s ease forwards 900ms;
}

.logo path:nth-child(5) {
    stroke-dasharray: 497;
    stroke-dashoffset: 497;
    animation: line-anm 2s ease forwards 1200ms;
}

.logo path:nth-child(6) {
    stroke-dasharray: 497;
    stroke-dashoffset: 497;
    animation: line-anm 2s ease forwards 1500ms;
}

.logo path:nth-child(7) {
    stroke-dasharray: 600;
    stroke-dashoffset: 600;
    animation: line-anm 2s ease forwards 1800ms;
}
    
.logo path:nth-child(8) {
    stroke-dasharray: 600;
    stroke-dashoffset: 600;
    animation: line-anm 2s ease forwards 2100ms;
}

.logo path:nth-child(9) {
    stroke-dasharray: 600;
    stroke-dashoffset: 600;
    animation: line-anm 2s ease forwards 2400ms;
}

.logo path:nth-child(10) {
    stroke-dasharray: 600;
    stroke-dashoffset: 600;
    animation: line-anm 2s ease forwards 2600ms;
}

.logo path:nth-child(11) {
    stroke-dasharray: 600;
    stroke-dashoffset: 600;
    animation: line-anm 2s ease forwards 3000ms;
}

.logo path:nth-child(12) {
    stroke-dasharray: 600;
    stroke-dashoffset: 600;
    animation: line-anm 2s ease forwards 3300ms;
}

.logo path:nth-child(13) {
    stroke-dasharray: 800;
    stroke-dashoffset: 800;
    animation: line-anm 2s ease forwards 3600ms;
}

@keyframes line-anm {
    to {
        stroke-dashoffset: 0;
    }
}

@keyframes fill-anm {
    from {
        fill: transparent;
    }
    to {
        fill: #02AAF2;
    }
}
</style>



<path d="M56.6246 76C55.4913 73 54.4246 70.0667 53.4246 67.2C52.4246 64.2667 51.3913 61.3 50.3246 58.3H18.9246L12.6246 76H2.5246C5.19126 68.6667 7.69126 61.9 10.0246 55.7C12.3579 49.4333 14.6246 43.5 16.8246 37.9C19.0913 32.3 21.3246 26.9667 23.5246 21.9C25.7246 16.7667 28.0246 11.7 30.4246 6.7H39.3246C41.7246 11.7 44.0246 16.7667 46.2246 21.9C48.4246 26.9667 50.6246 32.3 52.8246 37.9C55.0913 43.5 57.3913 49.4333 59.7246 55.7C62.0579 61.9 64.5579 68.6667 67.2246 76H56.6246ZM47.5246 50.3C45.3913 44.5 43.2579 38.9 41.1246 33.5C39.0579 28.0333 36.8913 22.8 34.6246 17.8C32.2913 22.8 30.0579 28.0333 27.9246 33.5C25.8579 38.9 23.7913 44.5 21.7246 50.3H47.5246Z" stroke="#02AAF2" stroke-width="3"/>
<path d="M76.6332 6.7H86.3332V76H76.6332V6.7Z" stroke="#02AAF2" stroke-width="3"/>
<path d="M114.989 69.3C118.789 69.3 121.589 68.8 123.389 67.8C125.255 66.8 126.189 65.2 126.189 63C126.189 60.7333 125.289 58.9333 123.489 57.6C121.689 56.2667 118.722 54.7667 114.589 53.1C112.589 52.3 110.655 51.5 108.789 50.7C106.989 49.8333 105.422 48.8333 104.089 47.7C102.755 46.5667 101.689 45.2 100.889 43.6C100.089 42 99.6887 40.0333 99.6887 37.7C99.6887 33.1 101.389 29.4667 104.789 26.8C108.189 24.0667 112.822 22.7 118.689 22.7C120.155 22.7 121.622 22.8 123.089 23C124.555 23.1333 125.922 23.3333 127.189 23.6C128.455 23.8 129.555 24.0333 130.489 24.3C131.489 24.5667 132.255 24.8 132.789 25L131.089 33C130.089 32.4667 128.522 31.9333 126.389 31.4C124.255 30.8 121.689 30.5 118.689 30.5C116.089 30.5 113.822 31.0333 111.889 32.1C109.955 33.1 108.989 34.7 108.989 36.9C108.989 38.0333 109.189 39.0333 109.589 39.9C110.055 40.7667 110.722 41.5667 111.589 42.3C112.522 42.9667 113.655 43.6 114.989 44.2C116.322 44.8 117.922 45.4333 119.789 46.1C122.255 47.0333 124.455 47.9667 126.389 48.9C128.322 49.7667 129.955 50.8 131.289 52C132.689 53.2 133.755 54.6667 134.489 56.4C135.222 58.0667 135.589 60.1333 135.589 62.6C135.589 67.4 133.789 71.0333 130.189 73.5C126.655 75.9667 121.589 77.2 114.989 77.2C110.389 77.2 106.789 76.8 104.189 76C101.589 75.2667 99.822 74.7 98.8887 74.3L100.589 66.3C101.655 66.7 103.355 67.3 105.689 68.1C108.022 68.9 111.122 69.3 114.989 69.3Z" stroke="#02AAF2" stroke-width="3"/>
<path d="M156.218 24H175.918V31.8H156.218V55.8C156.218 58.4 156.418 60.5667 156.818 62.3C157.218 63.9667 157.818 65.3 158.618 66.3C159.418 67.2333 160.418 67.9 161.618 68.3C162.818 68.7 164.218 68.9 165.818 68.9C168.618 68.9 170.851 68.6 172.518 68C174.251 67.3333 175.451 66.8667 176.118 66.6L177.918 74.3C176.984 74.7667 175.351 75.3333 173.018 76C170.684 76.7333 168.018 77.1 165.018 77.1C161.484 77.1 158.551 76.6667 156.218 75.8C153.951 74.8667 152.118 73.5 150.718 71.7C149.318 69.9 148.318 67.7 147.718 65.1C147.184 62.4333 146.918 59.3667 146.918 55.9V9.5L156.218 7.89999V24Z" stroke="#02AAF2" stroke-width="3"/>
<path d="M206.952 22.9C207.752 22.9 208.652 22.9667 209.652 23.1C210.719 23.1667 211.752 23.3 212.752 23.5C213.752 23.6333 214.652 23.8 215.452 24C216.319 24.1333 216.952 24.2667 217.352 24.4L215.752 32.5C215.019 32.2333 213.785 31.9333 212.052 31.6C210.385 31.2 208.219 31 205.552 31C203.819 31 202.085 31.2 200.352 31.6C198.685 31.9333 197.585 32.1667 197.052 32.3V76H187.752V26.2C189.952 25.4 192.685 24.6667 195.952 24C199.219 23.2667 202.885 22.9 206.952 22.9Z" stroke="#02AAF2" stroke-width="3"/>
<path d="M272.226 50C272.226 54.1333 271.626 57.8667 270.426 61.2C269.226 64.5333 267.526 67.4 265.326 69.8C263.193 72.2 260.626 74.0667 257.626 75.4C254.626 76.6667 251.359 77.3 247.826 77.3C244.293 77.3 241.026 76.6667 238.026 75.4C235.026 74.0667 232.426 72.2 230.226 69.8C228.093 67.4 226.426 64.5333 225.226 61.2C224.026 57.8667 223.426 54.1333 223.426 50C223.426 45.9333 224.026 42.2333 225.226 38.9C226.426 35.5 228.093 32.6 230.226 30.2C232.426 27.8 235.026 25.9667 238.026 24.7C241.026 23.3667 244.293 22.7 247.826 22.7C251.359 22.7 254.626 23.3667 257.626 24.7C260.626 25.9667 263.193 27.8 265.326 30.2C267.526 32.6 269.226 35.5 270.426 38.9C271.626 42.2333 272.226 45.9333 272.226 50ZM262.526 50C262.526 44.1333 261.193 39.5 258.526 36.1C255.926 32.6333 252.359 30.9 247.826 30.9C243.293 30.9 239.693 32.6333 237.026 36.1C234.426 39.5 233.126 44.1333 233.126 50C233.126 55.8667 234.426 60.5333 237.026 64C239.693 67.4 243.293 69.1 247.826 69.1C252.359 69.1 255.926 67.4 258.526 64C261.193 60.5333 262.526 55.8667 262.526 50Z" stroke="#02AAF2" stroke-width="3"/>
<path d="M282.411 50.1C282.411 45.5 283.077 41.5 284.411 38.1C285.744 34.6333 287.511 31.7667 289.711 29.5C291.911 27.2333 294.444 25.5333 297.311 24.4C300.177 23.2667 303.111 22.7 306.111 22.7C313.111 22.7 318.477 24.9 322.211 29.3C325.944 33.6333 327.811 40.2667 327.811 49.2C327.811 49.6 327.811 50.1333 327.811 50.8C327.811 51.4 327.777 51.9667 327.711 52.5H292.111C292.511 57.9 294.077 62 296.811 64.8C299.544 67.6 303.811 69 309.611 69C312.877 69 315.611 68.7333 317.811 68.2C320.077 67.6 321.777 67.0333 322.911 66.5L324.211 74.3C323.077 74.9 321.077 75.5333 318.211 76.2C315.411 76.8667 312.211 77.2 308.611 77.2C304.077 77.2 300.144 76.5333 296.811 75.2C293.544 73.8 290.844 71.9 288.711 69.5C286.577 67.1 284.977 64.2667 283.911 61C282.911 57.6667 282.411 54.0333 282.411 50.1ZM318.111 45C318.177 40.8 317.111 37.3667 314.911 34.7C312.777 31.9667 309.811 30.6 306.011 30.6C303.877 30.6 301.977 31.0333 300.311 31.9C298.711 32.7 297.344 33.7667 296.211 35.1C295.077 36.4333 294.177 37.9667 293.511 39.7C292.911 41.4333 292.511 43.2 292.311 45H318.111Z" stroke="#02AAF2" stroke-width="3"/>
<path d="M341.17 25.5C343.303 24.9667 346.103 24.4 349.57 23.8C353.103 23.2 357.17 22.9 361.77 22.9C365.103 22.9 367.903 23.3667 370.17 24.3C372.437 25.1667 374.337 26.4667 375.87 28.2C376.337 27.8667 377.07 27.4 378.07 26.8C379.07 26.2 380.303 25.6333 381.77 25.1C383.237 24.5 384.87 24 386.67 23.6C388.47 23.1333 390.403 22.9 392.47 22.9C396.47 22.9 399.737 23.5 402.27 24.7C404.803 25.8333 406.77 27.4667 408.17 29.6C409.637 31.7333 410.603 34.2667 411.07 37.2C411.603 40.1333 411.87 43.3333 411.87 46.8V76H402.57V48.8C402.57 45.7333 402.403 43.1 402.07 40.9C401.803 38.7 401.237 36.8667 400.37 35.4C399.57 33.9333 398.437 32.8667 396.97 32.2C395.57 31.4667 393.737 31.1 391.47 31.1C388.337 31.1 385.737 31.5333 383.67 32.4C381.67 33.2 380.303 33.9333 379.57 34.6C380.103 36.3333 380.503 38.2333 380.77 40.3C381.037 42.3667 381.17 44.5333 381.17 46.8V76H371.87V48.8C371.87 45.7333 371.703 43.1 371.37 40.9C371.037 38.7 370.437 36.8667 369.57 35.4C368.77 33.9333 367.637 32.8667 366.17 32.2C364.77 31.4667 362.97 31.1 360.77 31.1C359.837 31.1 358.837 31.1333 357.77 31.2C356.703 31.2667 355.67 31.3667 354.67 31.5C353.737 31.5667 352.87 31.6667 352.07 31.8C351.27 31.9333 350.737 32.0333 350.47 32.1V76H341.17V25.5Z" stroke="#02AAF2" stroke-width="3"/>
<path d="M424.403 50.1C424.403 45.5 425.069 41.5 426.403 38.1C427.736 34.6333 429.503 31.7667 431.703 29.5C433.903 27.2333 436.436 25.5333 439.303 24.4C442.169 23.2667 445.103 22.7 448.103 22.7C455.103 22.7 460.469 24.9 464.203 29.3C467.936 33.6333 469.803 40.2667 469.803 49.2C469.803 49.6 469.803 50.1333 469.803 50.8C469.803 51.4 469.769 51.9667 469.703 52.5H434.103C434.503 57.9 436.069 62 438.803 64.8C441.536 67.6 445.803 69 451.603 69C454.869 69 457.603 68.7333 459.803 68.2C462.069 67.6 463.769 67.0333 464.903 66.5L466.203 74.3C465.069 74.9 463.069 75.5333 460.203 76.2C457.403 76.8667 454.203 77.2 450.603 77.2C446.069 77.2 442.136 76.5333 438.803 75.2C435.536 73.8 432.836 71.9 430.703 69.5C428.569 67.1 426.969 64.2667 425.903 61C424.903 57.6667 424.403 54.0333 424.403 50.1ZM460.103 45C460.169 40.8 459.103 37.3667 456.903 34.7C454.769 31.9667 451.803 30.6 448.003 30.6C445.869 30.6 443.969 31.0333 442.303 31.9C440.703 32.7 439.336 33.7667 438.203 35.1C437.069 36.4333 436.169 37.9667 435.503 39.7C434.903 41.4333 434.503 43.2 434.303 45H460.103Z" stroke="#02AAF2" stroke-width="3"/>
<path d="M502.362 22.9C503.162 22.9 504.062 22.9667 505.062 23.1C506.129 23.1667 507.162 23.3 508.162 23.5C509.162 23.6333 510.062 23.8 510.862 24C511.729 24.1333 512.362 24.2667 512.762 24.4L511.162 32.5C510.429 32.2333 509.195 31.9333 507.462 31.6C505.795 31.2 503.629 31 500.962 31C499.229 31 497.495 31.2 495.762 31.6C494.095 31.9333 492.995 32.1667 492.462 32.3V76H483.162V26.2C485.362 25.4 488.095 24.6667 491.362 24C494.629 23.2667 498.295 22.9 502.362 22.9Z" stroke="#02AAF2" stroke-width="3"/>
<path d="M531.036 76H521.736V24H531.036V76ZM526.336 14.6C524.67 14.6 523.236 14.0667 522.036 13C520.903 11.8667 520.336 10.3667 520.336 8.5C520.336 6.63333 520.903 5.16667 522.036 4.1C523.236 2.96666 524.67 2.39999 526.336 2.39999C528.003 2.39999 529.403 2.96666 530.536 4.1C531.736 5.16667 532.336 6.63333 532.336 8.5C532.336 10.3667 531.736 11.8667 530.536 13C529.403 14.0667 528.003 14.6 526.336 14.6Z" stroke="#02AAF2" stroke-width="3"/>
<path d="M564.629 69.3C566.829 69.3 568.763 69.2667 570.429 69.2C572.163 69.0667 573.596 68.8667 574.729 68.6V53.1C574.063 52.7667 572.963 52.5 571.429 52.3C569.963 52.0333 568.163 51.9 566.029 51.9C564.629 51.9 563.129 52 561.529 52.2C559.996 52.4 558.563 52.8333 557.229 53.5C555.963 54.1 554.896 54.9667 554.029 56.1C553.163 57.1667 552.729 58.6 552.729 60.4C552.729 63.7333 553.796 66.0667 555.929 67.4C558.063 68.6667 560.963 69.3 564.629 69.3ZM563.829 22.7C567.563 22.7 570.696 23.2 573.229 24.2C575.829 25.1333 577.896 26.5 579.429 28.3C581.029 30.0333 582.163 32.1333 582.829 34.6C583.496 37 583.829 39.6667 583.829 42.6V75.1C583.029 75.2333 581.896 75.4333 580.429 75.7C579.029 75.9 577.429 76.1 575.629 76.3C573.829 76.5 571.863 76.6667 569.729 76.8C567.663 77 565.596 77.1 563.529 77.1C560.596 77.1 557.896 76.8 555.429 76.2C552.963 75.6 550.829 74.6667 549.029 73.4C547.229 72.0667 545.829 70.3333 544.829 68.2C543.829 66.0667 543.329 63.5 543.329 60.5C543.329 57.6333 543.896 55.1667 545.029 53.1C546.229 51.0333 547.829 49.3667 549.829 48.1C551.829 46.8333 554.163 45.9 556.829 45.3C559.496 44.7 562.296 44.4 565.229 44.4C566.163 44.4 567.129 44.4667 568.129 44.6C569.129 44.6667 570.063 44.8 570.929 45C571.863 45.1333 572.663 45.2667 573.329 45.4C573.996 45.5333 574.463 45.6333 574.729 45.7V43.1C574.729 41.5667 574.563 40.0667 574.229 38.6C573.896 37.0667 573.296 35.7333 572.429 34.6C571.563 33.4 570.363 32.4667 568.829 31.8C567.363 31.0667 565.429 30.7 563.029 30.7C559.963 30.7 557.263 30.9333 554.929 31.4C552.663 31.8 550.963 32.2333 549.829 32.7L548.729 25C549.929 24.4667 551.929 23.9667 554.729 23.5C557.529 22.9667 560.563 22.7 563.829 22.7Z" stroke="#02AAF2" stroke-width="3"/>
</svg>
