<svg id="logo" class="logo" width="670" height="240" viewBox="-50 -50 550 200" fill="none" xmlns="http://www.w3.org/2000/svg">

<style>
* {
    margin: 0;
    padding: 0;
}
body {
    width: 100%;
    height: 100vh;
    background: #333;
}

.logo {
    position: absolute;
    top: 50%;
    left: 55%;
    transform: translate(-50%, -50%);
    animation: fill-anm 500ms ease forwards 3800ms;
}

.logo path:nth-child(1) {
    stroke-dasharray: 497;
    stroke-dashoffset: 497;
    animation: line-anm 2s ease forwards;
}

.logo path:nth-child(2) {
    stroke-dasharray: 497;
    stroke-dashoffset: 497;
    animation: line-anm 2s ease forwards 300ms;
}

.logo path:nth-child(3) {
    stroke-dasharray: 400;
    stroke-dashoffset: 400;
    animation: line-anm 2s ease forwards 600ms;
}

.logo path:nth-child(4) {
    stroke-dasharray: 497;
    stroke-dashoffset: 497;
    animation: line-anm 2s ease forwards 900ms;
}

.logo path:nth-child(5) {
    stroke-dasharray: 497;
    stroke-dashoffset: 497;
    animation: line-anm 2s ease forwards 1200ms;
}

.logo path:nth-child(6) {
    stroke-dasharray: 497;
    stroke-dashoffset: 497;
    animation: line-anm 2s ease forwards 1500ms;
}

.logo path:nth-child(7) {
    stroke-dasharray: 600;
    stroke-dashoffset: 600;
    animation: line-anm 2s ease forwards 1800ms;
}
    
.logo path:nth-child(8) {
    stroke-dasharray: 600;
    stroke-dashoffset: 600;
    animation: line-anm 2s ease forwards 2100ms;
}

@keyframes line-anm {
    to {
        stroke-dashoffset: 0;
    }
}

@keyframes fill-anm {
    from {
        fill: transparent;
    }
    to {
        fill: #FF49A1;
    }
}
</style>




<path d="M22.8125 106.031C15.3646 106.031 10.1172 105.016 7.07031 102.984C3.6849 100.953 1.99219 97.2292 1.99219 91.8125C1.99219 88.7656 2.66927 83.1797 4.02344 75.0547L17.2266 2.4375H32.9688L20.2734 75.0547C18.9193 81.487 18.2422 85.7188 18.2422 87.75C18.2422 89.1042 18.5807 90.1198 19.2578 90.7969C19.9349 91.8125 21.1198 92.3203 22.8125 92.3203C24.1667 92.6589 26.7057 92.8281 30.4297 92.8281H37.5391L31.9531 106.031H22.8125Z" stroke="#FF49A1" stroke-width="3"/>
<path d="M57.8516 20.2109L60.8984 3.45312H77.6562L74.6094 20.2109H57.8516ZM43.125 106.031L56.3281 32.3984H72.0703L59.375 106.031H43.125Z" stroke="#FF49A1" stroke-width="3"/>
<path d="M130.977 32.3984C139.102 32.3984 144.857 33.4141 148.242 35.4453C151.628 37.4766 153.32 40.862 153.32 45.6016C153.32 47.9714 152.643 53.2188 151.289 61.3438L143.672 106.031H127.422L135.039 62.8672C136.055 57.112 136.562 53.2188 136.562 51.1875C136.562 49.8333 136.224 48.6484 135.547 47.6328C134.531 46.9557 133.177 46.4479 131.484 46.1094C129.792 45.7708 127.93 45.6016 125.898 45.6016H109.648L98.9844 106.031H82.7344L95.9375 32.3984H130.977Z" stroke="#FF49A1" stroke-width="3"/>
<path d="M201.562 31.3828C210.026 31.3828 216.12 32.737 219.844 35.4453C223.229 38.1536 224.922 42.5547 224.922 48.6484C224.922 51.6953 224.414 56.2656 223.398 62.3594L215.273 108.062C214.596 112.464 213.581 116.188 212.227 119.234C210.534 122.281 208.164 124.651 205.117 126.344C201.732 128.375 196.484 129.391 189.375 129.391H161.445L159.414 116.188H185.82C189.883 116.188 192.591 115.849 193.945 115.172C195.299 114.495 196.484 113.479 197.5 112.125C198.177 111.109 198.854 108.401 199.531 104L200.547 98.9219H182.266C173.802 98.9219 167.878 97.5677 164.492 94.8594C160.768 92.151 158.906 87.75 158.906 81.6562C158.906 78.9479 159.414 74.3776 160.43 67.9453L162.461 56.7734C163.138 51.3568 164.154 47.125 165.508 44.0781C166.523 41.0312 168.216 38.4922 170.586 36.4609C172.617 34.7682 175.495 33.4141 179.219 32.3984C182.604 31.7214 187.174 31.3828 192.93 31.3828H201.562ZM186.328 85.7188H203.086L207.148 62.3594C208.164 57.2812 208.672 53.388 208.672 50.6797C208.672 48.3099 207.826 46.6172 206.133 45.6016C204.44 44.9245 201.393 44.5859 196.992 44.5859H191.914C187.174 44.5859 183.958 45.4323 182.266 47.125C180.573 48.8177 179.388 52.0339 178.711 56.7734L176.68 67.9453C175.664 73.0234 175.156 76.7474 175.156 79.1172C175.156 81.8255 176.003 83.5182 177.695 84.1953C179.049 85.2109 181.927 85.7188 186.328 85.7188Z" stroke="#FF49A1" stroke-width="3"/>
<path d="M276.211 31.3828C283.32 31.3828 288.568 32.3984 291.953 34.4297C295.339 36.7995 297.031 40.6927 297.031 46.1094C297.031 48.1406 296.862 50.0026 296.523 51.6953L295 61.8516C293.984 67.6068 292.292 71.6693 289.922 74.0391C287.214 76.4089 283.151 77.5938 277.734 77.5938H249.297L248.281 81.6562C247.943 84.026 247.773 85.888 247.773 87.2422C247.773 89.612 248.451 91.1354 249.805 91.8125C251.159 92.4896 253.867 92.8281 257.93 92.8281H283.828L278.75 106.031H254.375C246.25 106.031 240.495 104.846 237.109 102.477C233.385 100.445 231.523 96.7214 231.523 91.3047C231.523 88.9349 231.862 85.888 232.539 82.1641L237.617 53.2188C238.633 48.4792 239.818 44.9245 241.172 42.5547C242.188 40.1849 243.542 38.3229 245.234 36.9688C247.266 34.9375 250.143 33.4141 253.867 32.3984C257.253 31.7214 261.823 31.3828 267.578 31.3828H276.211ZM280.781 51.6953V48.6484C280.781 47.2943 280.443 46.2786 279.766 45.6016C279.089 44.9245 276.888 44.5859 273.164 44.5859H264.023C259.961 44.5859 257.422 45.263 256.406 46.6172C255.052 48.3099 254.036 50.5104 253.359 53.2188L251.328 64.8984H273.672C275.026 64.8984 276.211 64.5599 277.227 63.8828C278.242 63.5443 278.919 62.3594 279.258 60.3281L280.781 51.6953Z" stroke="#FF49A1" stroke-width="3"/>
<path d="M301.094 106.031L309.727 56.2656C310.742 49.8333 312.096 44.9245 313.789 41.5391C315.482 38.4922 318.021 36.1224 321.406 34.4297C324.792 33.0755 330.378 32.3984 338.164 32.3984H356.445L350.859 45.6016H338.672C335.286 45.6016 332.747 45.9401 331.055 46.6172C329.362 47.6328 328.177 48.987 327.5 50.6797C326.823 52.3724 326.315 54.5729 325.977 57.2812L317.344 106.031H301.094Z" stroke="#FF49A1" stroke-width="3"/>
<path d="M445.82 32.3984H461.055L428.555 106.031H409.766L405.703 56.2656L380.82 106.031H362.539L360.508 32.3984H376.25L376.758 87.2422L403.164 32.3984H419.414L422.969 87.2422L445.82 32.3984Z" stroke="#FF49A1" stroke-width="3"/>
</svg>
