<svg width="28" height="71.5078125" viewBox="0 0 28 72.5078125" xmlns="http://www.w3.org/2000/svg" data-copyright="https://github.com/oubenruing/svg-text-animate" style="vertical-align: text-top; ">
          <g id="svgGroup" stroke-linecap="round" stroke="#000" fill="none" style="fill:none; 
            stroke:#FF16AE;
            stroke-width:1px;"><path d="M4.29 70.73L4.43 70.80Q2.18 69.19 1.27 67.04Q0.35 64.90 0.35 62.30L0.35 62.30Q0.35 59.70 1.16 56.71Q1.97 53.72 3.20 50.80Q4.43 47.88 5.87 45.14Q7.31 42.40 8.51 40.22L8.51 40.22Q9.07 39.16 9.60 38.32Q10.13 37.48 10.48 36.70L10.48 36.70Q10.62 36.28 11.39 34.70Q12.16 33.12 13.15 31.22L13.15 31.22Q13.78 30.02 14.38 28.79Q14.98 27.56 15.50 26.51Q16.03 25.45 16.42 24.68Q16.80 23.91 16.88 23.55L16.88 23.55Q17.02 23.41 17.12 23.10Q17.23 22.78 17.44 22.36L17.44 22.36L17.37 22.36Q17.79 21.30 18.39 19.83Q18.98 18.35 19.76 17.02Q20.53 15.68 21.45 14.73Q22.36 13.78 23.41 13.78L23.41 13.78Q24.40 13.78 25.31 14.70Q26.23 15.61 27 17.79L27 17.79Q26.72 18.56 25.66 20.78Q24.61 22.99 22.99 26.02L22.99 26.02Q21.52 28.97 19.72 32.59Q17.93 36.21 16.10 40.04Q14.27 43.88 12.55 47.67Q10.83 51.47 9.49 54.81Q8.16 58.15 7.35 60.82Q6.54 63.49 6.54 64.97L6.54 64.97L6.54 65.81Q7.17 66.16 8.58 66.16L8.58 66.16Q9.70 66.16 11.25 65.92Q12.80 65.67 14.34 65.32L14.34 65.32Q15.82 65.04 17.44 64.83Q19.05 64.62 20.88 64.76L20.88 64.76Q21.52 66.16 20.29 67.39Q19.05 68.63 16.95 69.54Q14.84 70.45 12.30 70.98Q9.77 71.51 7.80 71.51L7.80 71.51Q6.68 71.51 5.73 71.37Q4.78 71.23 4.29 70.73L4.29 70.73Z" style="stroke-dasharray: 157, 159; stroke-dashoffset: 158;"><animate attributeName="stroke-dashoffset" to="0" dur="1500ms" calcMode="linear" repeatCount="1" fill="freeze" begin="0ms"></animate></path></g>
      </svg><svg width="22.234375" height="72.10227272727272" viewBox="0 0 22.234375 73.10227272727272" xmlns="http://www.w3.org/2000/svg" data-copyright="https://github.com/oubenruing/svg-text-animate" style="vertical-align: text-top; ">
          <g id="svgGroup" stroke-linecap="round" stroke="#000" fill="none" style="fill:none; 
            stroke:#FF16AE;
            stroke-width:1px;"><path d="M0.07 70.31L0 69.40Q2.39 61.73 4.57 56.25Q6.75 50.77 8.61 47.25Q10.48 43.73 11.88 42.08Q13.29 40.43 14.13 40.43L14.13 40.43Q15.19 40.43 15.40 42.68Q15.61 44.93 14.59 49.04Q13.57 53.16 11.25 58.96Q8.93 64.76 4.92 71.79L4.92 71.79Q3.73 72.28 2.21 72Q0.70 71.72 0.07 70.31L0.07 70.31ZM14.41 30.73L14.41 30.59Q14.34 30.38 14.31 29.78Q14.27 29.18 14.34 28.51Q14.41 27.84 14.52 27.25Q14.63 26.65 14.77 26.37L14.77 26.37Q15.75 26.02 16.38 25.88Q17.02 25.73 17.51 25.73L17.51 25.73Q19.55 25.73 20.39 26.86Q21.23 27.98 21.23 29.53L21.23 29.53Q21.23 31.15 20.29 32.55Q19.34 33.96 17.93 33.96L17.93 33.96Q16.95 33.96 16.07 33.26Q15.19 32.55 14.41 30.73L14.41 30.73Z" style="stroke-dasharray: 97, 99; stroke-dashoffset: 98;"><animate attributeName="stroke-dashoffset" to="0" dur="1500ms" calcMode="linear" repeatCount="1" fill="freeze" begin="200ms"></animate></path></g>
      </svg><svg width="48.109375" height="72.10753676470588" viewBox="0 0 48.109375 73.10753676470588" xmlns="http://www.w3.org/2000/svg" data-copyright="https://github.com/oubenruing/svg-text-animate" style="vertical-align: text-top; ">
          <g id="svgGroup" stroke-linecap="round" stroke="#000" fill="none" style="fill:none; 
            stroke:#FF16AE;
            stroke-width:1px;"><path d="M31.64 70.38L31.50 69.89Q31.29 67.78 31.64 65.78Q31.99 63.77 32.66 61.77Q33.33 59.77 34.28 57.83Q35.23 55.90 36.21 54L36.21 54Q37.83 50.84 39.09 47.88Q40.36 44.93 40.36 42.12L40.36 42.12Q40.36 41.13 40.15 40.15L40.15 40.15Q38.18 39.87 35.51 41.31Q32.84 42.75 29.81 45.18Q26.79 47.60 23.63 50.63Q20.46 53.65 17.51 56.60L17.51 56.60Q14.48 59.63 11.74 62.19Q9 64.76 6.82 66.23Q4.64 67.71 3.09 67.64Q1.55 67.57 0.91 65.32L0.91 65.32Q0.91 65.25 2.00 63.07Q3.09 60.89 4.78 57.69Q6.47 54.49 8.47 50.70Q10.48 46.90 12.27 43.63Q14.06 40.36 15.43 38.11Q16.80 35.86 17.16 35.65L17.16 35.65Q18.84 36.84 19.51 37.97Q20.18 39.09 20.18 40.22L20.18 40.22Q20.18 41.20 19.86 42.19Q19.55 43.17 19.20 44.09L19.20 44.09Q19.05 44.51 18.91 44.93Q18.77 45.35 18.63 45.77L18.63 45.77Q20.88 44.30 23.98 42.29Q27.07 40.29 30.34 38.50Q33.61 36.70 36.70 35.47Q39.80 34.24 42.12 34.24L42.12 34.24Q44.37 34.24 45.74 35.44Q47.11 36.63 47.11 39.59L47.11 39.59Q47.11 41.27 46.44 43.80Q45.77 46.34 44.30 49.85L44.30 49.85L44.37 49.71Q44.23 49.99 43.88 50.80Q43.52 51.61 43.07 52.70Q42.61 53.79 42.01 55.09Q41.41 56.39 40.85 57.66L40.85 57.66Q39.87 59.91 38.92 62.02Q37.97 64.13 37.76 64.69L37.76 64.69Q37.69 64.83 37.69 65.11L37.69 65.11Q37.62 65.32 37.62 65.57Q37.62 65.81 37.55 66.09L37.55 66.09Q37.41 67.43 37.02 69.01Q36.63 70.59 35.65 71.58L35.65 71.58Q35.09 72.14 34.42 72.11Q33.75 72.07 33.19 71.72Q32.63 71.37 32.17 70.95Q31.71 70.52 31.64 70.38L31.64 70.38Z" style="stroke-dasharray: 201, 203; stroke-dashoffset: 202;"><animate attributeName="stroke-dashoffset" to="0" dur="1500ms" calcMode="linear" repeatCount="1" fill="freeze" begin="400ms"></animate></path></g>
      </svg><svg width="30.109375" height="96.2578125" viewBox="0 0 30.109375 97.2578125" xmlns="http://www.w3.org/2000/svg" data-copyright="https://github.com/oubenruing/svg-text-animate" style="vertical-align: text-top; ">
          <g id="svgGroup" stroke-linecap="round" stroke="#000" fill="none" style="fill:none; 
            stroke:#FF16AE;
            stroke-width:1px;"><path d="M-11.46 95.13L-11.46 95.13Q-13.92 94.29-15.57 92.71Q-17.23 91.13-18.21 89.23Q-19.20 87.33-19.65 85.29Q-20.11 83.25-20.11 81.42L-20.11 81.42Q-20.11 77.98-18.56 76.18Q-17.02 74.39-14.70 75.52L-14.70 75.52Q-14.70 79.66-14.17 82.55Q-13.64 85.43-12.66 87.26Q-11.67 89.09-10.34 89.93Q-9 90.77-7.38 90.77L-7.38 90.77Q-4.85 90.77-1.90 89.30Q1.05 87.82 3.97 85.32Q6.89 82.83 9.60 79.56Q12.30 76.29 14.38 72.74Q16.45 69.19 17.68 65.57Q18.91 61.95 18.91 58.71L18.91 58.71Q18.91 58.29 18.91 57.90Q18.91 57.52 18.84 57.16L18.84 57.16Q13.64 60.75 10.27 62.23Q6.89 63.70 4.71 63.70L4.71 63.70Q2.25 63.70 1.13 62.33Q0 60.96 0 58.64L0 58.64Q0 56.53 1.02 53.58Q2.04 50.63 3.76 47.50Q5.48 44.37 7.70 41.31Q9.91 38.25 12.34 35.82Q14.77 33.40 17.19 31.92Q19.62 30.45 21.66 30.45L21.66 30.45Q22.92 30.45 24.12 31.01Q25.31 31.57 26.30 32.77L26.30 32.77Q27.77 34.73 28.44 37.58Q29.11 40.43 29.11 43.88L29.11 43.88Q29.11 48.73 27.84 54.49Q26.58 60.26 24.29 66.06Q22.01 71.86 18.84 77.31Q15.68 82.76 11.85 86.98Q8.02 91.20 3.62 93.73Q-0.77 96.26-5.48 96.26L-5.48 96.26Q-7.03 96.26-8.54 96.01Q-10.05 95.77-11.46 95.13ZM6.96 53.51L6.96 53.51Q6.89 53.65 6.89 54.14Q6.89 54.63 6.89 55.20L6.89 55.20Q6.89 55.97 6.82 56.14Q6.75 56.32 6.89 56.53L6.89 56.53Q8.51 56.67 10.20 55.72Q11.88 54.77 13.46 53.19Q15.05 51.61 16.42 49.61Q17.79 47.60 18.84 45.60Q19.90 43.59 20.50 41.80Q21.09 40.01 21.09 38.88L21.09 38.88Q21.09 38.74 21.23 38.67L21.23 38.67Q20.74 38.74 19.90 39.27Q19.05 39.80 17.72 40.99L17.72 40.99L17.79 40.99Q16.80 41.91 15.19 43.42Q13.57 44.93 11.95 46.69Q10.34 48.45 8.93 50.24Q7.52 52.03 6.96 53.51Z" style="stroke-dasharray: 291, 293; stroke-dashoffset: 292;"><animate attributeName="stroke-dashoffset" to="0" dur="1500ms" calcMode="linear" repeatCount="1" fill="freeze" begin="600ms"></animate></path></g>
      </svg><svg width="41.78125" height="71.6484375" viewBox="0 0 41.78125 72.6484375" xmlns="http://www.w3.org/2000/svg" data-copyright="https://github.com/oubenruing/svg-text-animate" style="vertical-align: text-top; ">
          <g id="svgGroup" stroke-linecap="round" stroke="#000" fill="none" style="fill:none; 
            stroke:#FF16AE;
            stroke-width:1px;"><path d="M7.24 71.02L7.24 71.02Q3.52 69.75 2.14 67.04Q0.77 64.34 0.77 61.17L0.77 61.17Q0.77 59.48 1.05 57.69Q1.34 55.90 1.90 54.21L1.90 54.21Q2.67 53.44 3.52 52.49Q4.36 51.54 5.13 50.63L5.13 50.63Q7.52 48.02 10.41 45.04Q13.29 42.05 16.42 39.23Q19.55 36.42 22.89 34.10Q26.23 31.78 29.53 30.45L29.53 30.45Q30.94 29.88 31.96 30.20Q32.98 30.52 33.61 31.46Q34.24 32.41 34.52 33.82Q34.80 35.23 34.80 36.77L34.80 36.77Q34.80 38.11 34.63 39.48Q34.45 40.85 34.14 42.08Q33.82 43.31 33.47 44.26Q33.12 45.21 32.70 45.70L32.70 45.70Q31.57 46.97 28.90 48.48Q26.23 49.99 22.99 51.68L22.99 51.68Q20.39 53.02 17.65 54.53Q14.91 56.04 12.69 57.52Q10.48 58.99 9.04 60.40Q7.59 61.80 7.59 62.93L7.59 62.93Q7.59 63.84 9.07 64.76L9.07 64.76Q9.42 64.83 9.84 64.83Q10.27 64.83 10.62 64.83L10.62 64.83Q12.80 64.83 15.40 64.44Q18 64.05 20.74 63.42Q23.48 62.79 26.23 62.02Q28.97 61.24 31.43 60.54L31.43 60.54Q33.19 60.05 35.12 59.59Q37.05 59.13 38.25 58.78L38.25 58.78L40.78 60.82Q39.09 63.14 35.72 65.11Q32.34 67.08 28.30 68.52Q24.26 69.96 20.04 70.80Q15.82 71.65 12.45 71.65L12.45 71.65Q10.97 71.65 9.67 71.51Q8.37 71.37 7.24 71.02ZM27 39.66L26.23 39.02Q26.30 39.16 25.49 39.83Q24.68 40.50 23.38 41.52Q22.08 42.54 20.53 43.70Q18.98 44.86 17.51 45.91Q16.03 46.97 14.87 47.74Q13.71 48.52 13.29 48.73L13.29 48.73Q14.34 48.80 15.82 48.38Q17.30 47.95 18.91 47.25Q20.53 46.55 22.11 45.60Q23.70 44.65 24.96 43.66Q26.23 42.68 27 41.73Q27.77 40.78 27.77 40.01L27.77 40.01Q27.77 39.87 27 39.66L27 39.66Z" style="stroke-dasharray: 214, 216; stroke-dashoffset: 215;"><animate attributeName="stroke-dashoffset" to="0" dur="1500ms" calcMode="linear" repeatCount="1" fill="freeze" begin="800ms"></animate></path></g>
      </svg><svg width="42.34375" height="72" viewBox="0 0 42.34375 73" xmlns="http://www.w3.org/2000/svg" data-copyright="https://github.com/oubenruing/svg-text-animate" style="vertical-align: text-top; ">
          <g id="svgGroup" stroke-linecap="round" stroke="#000" fill="none" style="fill:none; 
            stroke:#FF16AE;
            stroke-width:1px;"><path d="M2.60 71.09L2.60 71.02L2.60 71.09ZM3.09 71.09L2.53 70.95Q2.39 70.88 2.53 68.87Q2.67 66.87 3.02 63.84Q3.38 60.82 3.97 57.20Q4.57 53.58 5.31 50.27Q6.05 46.97 6.89 44.40Q7.73 41.84 8.65 40.92L8.65 40.92Q9.35 40.22 9.95 40.11Q10.55 40.01 11.04 40.32Q11.53 40.64 11.95 41.24Q12.38 41.84 12.80 42.47L12.80 42.47Q12.94 42.75 13.15 43.03Q13.36 43.31 13.50 43.45L13.50 43.45Q15.82 40.29 18.56 37.41Q21.30 34.52 24.68 32.41L24.68 32.41Q25.10 32.13 26.58 31.57Q28.05 31.01 29.95 30.48Q31.85 29.95 33.89 29.53Q35.93 29.11 37.48 29.11L37.48 29.11Q39.23 29.11 40.29 29.67Q41.34 30.23 41.34 31.71L41.34 31.71Q41.34 32.84 40.08 34.80L40.08 34.80Q36.49 34.88 33.29 36.42Q30.09 37.97 27.21 40.43Q24.33 42.89 21.80 46.05Q19.27 49.22 17.16 52.52Q15.05 55.83 13.29 59.03Q11.53 62.23 10.13 64.83L10.13 64.83Q8.44 68.06 7.21 70.03Q5.98 72 4.85 72L4.85 72Q4.50 72 3.83 71.72Q3.16 71.44 2.60 71.09L2.60 71.09L3.09 71.09Z" style="stroke-dasharray: 132, 134; stroke-dashoffset: 133;"><animate attributeName="stroke-dashoffset" to="0" dur="1500ms" calcMode="linear" repeatCount="1" fill="freeze" begin="1000ms"></animate></path></g>
      </svg><svg width="62.1015625" height="72" viewBox="0 0 62.1015625 73" xmlns="http://www.w3.org/2000/svg" data-copyright="https://github.com/oubenruing/svg-text-animate" style="vertical-align: text-top; ">
          <g id="svgGroup" stroke-linecap="round" stroke="#000" fill="none" style="fill:none; 
            stroke:#FF16AE;
            stroke-width:1px;"><path d="M23.63 55.13L23.70 55.05Q23.63 55.13 23.63 55.13L23.63 55.13ZM27.70 70.80L27.70 70.80Q26.09 69.61 25.14 67.82Q24.19 66.02 23.63 64.02Q23.06 62.02 22.85 59.91Q22.64 57.80 22.57 55.97L22.57 55.97Q20.46 57.66 18.53 59.84Q16.59 62.02 14.63 64.34L14.63 64.34Q13.22 65.95 11.64 67.75Q10.05 69.54 8.65 70.95L8.65 70.95Q7.17 71.51 5.52 71.26Q3.87 71.02 2.67 70.14Q1.48 69.26 0.98 67.85Q0.49 66.45 1.27 64.55L1.27 64.55L1.20 64.69Q2.81 59.70 4.68 54.04Q6.54 48.38 8.58 43.24L8.58 43.24Q9.77 40.36 11.74 40.36L11.74 40.36Q13.15 40.36 14.20 41.94Q15.26 43.52 15.26 45.56L15.26 45.56Q15.26 46.13 15.19 46.72Q15.12 47.32 14.77 47.95L14.77 47.95Q14.55 48.45 14.17 49.50Q13.78 50.55 13.29 51.86Q12.80 53.16 12.27 54.56Q11.74 55.97 11.32 57.16L11.32 57.16Q11.11 57.73 10.93 58.22Q10.76 58.71 10.62 59.06L10.62 59.06Q12.80 56.81 14.45 54.88Q16.10 52.95 18 50.63L18 50.63L18 50.70Q18.98 49.43 20.14 47.95Q21.30 46.48 22.78 44.79L22.78 44.79Q25.31 41.84 27.14 41.84L27.14 41.84Q28.13 41.84 28.76 42.43Q29.39 43.03 29.74 44.09Q30.09 45.14 30.23 46.58Q30.38 48.02 30.38 49.64L30.38 49.64Q30.38 51.05 30.34 52.52Q30.30 54 30.16 55.41L30.16 55.41Q30.09 56.60 30.02 57.87Q29.95 59.13 29.95 60.12L29.95 60.12Q29.95 60.54 29.92 60.93Q29.88 61.31 29.81 61.66L29.81 61.66Q29.95 61.31 30.23 60.93Q30.52 60.54 30.73 60.19L30.73 60.19Q32.13 57.94 34.14 54.77Q36.14 51.61 38.57 48.27Q40.99 44.93 43.73 41.70Q46.48 38.46 49.39 36.04Q52.31 33.61 55.27 32.27Q58.22 30.94 61.03 31.36L61.03 31.36Q61.31 32.20 60.47 33.86Q59.63 35.51 58.11 37.55Q56.60 39.59 54.67 41.84Q52.73 44.09 50.91 46.13L50.91 46.13Q48.80 48.59 46.97 50.63Q45.14 52.66 44.51 53.72L44.51 53.72Q44.23 54.07 43.42 55.23Q42.61 56.39 41.52 57.94Q40.43 59.48 39.23 61.21Q38.04 62.93 36.98 64.48Q35.93 66.02 35.16 67.18Q34.38 68.34 34.10 68.70L34.10 68.70Q33.05 70.31 32.34 71.16Q31.64 72 30.30 72L30.30 72Q29.74 72 29.11 71.68Q28.48 71.37 27.70 70.80Z" style="stroke-dasharray: 243, 245; stroke-dashoffset: 244;"><animate attributeName="stroke-dashoffset" to="0" dur="1500ms" calcMode="linear" repeatCount="1" fill="freeze" begin="1200ms"></animate></path></g>
      </svg>