<svg id="logo" class="logo" width="631" height="165" viewBox="-110 0 571 95" fill="none" xmlns="http://www.w3.org/2000/svg">
<style>
* {
    margin: 0;
    padding: 0;
}
body {
    width: 100%;
    height: 100vh;
    background: #333;
}

.logo {
    position: absolute;
    top: 50%;
    left: 55%;
    transform: translate(-50%, -50%);
    animation: fill-anm 500ms ease forwards 3600ms;
}

.logo path:nth-child(1) {
    stroke-dasharray: 1000;
    stroke-dashoffset: 1000;
    animation: line-anm 3s ease forwards;
}

.logo path:nth-child(2) {
    stroke-dasharray: 1000;
    stroke-dashoffset: 1000;
    animation: line-anm 3s ease forwards 300ms;
}

.logo path:nth-child(3) {
    stroke-dasharray: 1000;
    stroke-dashoffset: 1000;
    animation: line-anm 3s ease forwards 600ms;
}

.logo path:nth-child(4) {
    stroke-dasharray: 1000;
    stroke-dashoffset: 1000;
    animation: line-anm 3s ease forwards 900ms;
}

.logo path:nth-child(5) {
    stroke-dasharray: 1000;
    stroke-dashoffset: 1000;
    animation: line-anm 3s ease forwards 1200ms;
}

.logo path:nth-child(6) {
    stroke-dasharray: 1000;
    stroke-dashoffset: 1000;
    animation: line-anm 3s ease forwards 1500ms;
}

.logo path:nth-child(7) {
    stroke-dasharray: 1000;
    stroke-dashoffset: 1000;
    animation: line-anm 3s ease forwards 1800ms;
}
    
.logo path:nth-child(8) {
    stroke-dasharray: 1000;
    stroke-dashoffset: 1000;
    animation: line-anm 3s ease forwards 2100ms;
}

.logo path:nth-child(9) {
    stroke-dasharray: 1000;
    stroke-dashoffset: 1000;
    animation: line-anm 3s ease forwards 2400ms;
}

.logo path:nth-child(10) {
    stroke-dasharray: 1000;
    stroke-dashoffset: 1000;
    animation: line-anm 3s ease forwards 2700ms;
}

.logo path:nth-child(11) {
    stroke-dasharray: 1000;
    stroke-dashoffset: 1000;
    animation: line-anm 3s ease forwards 3000ms;
}

.logo path:nth-child(12) {
    stroke-dasharray: 1000;
    stroke-dashoffset: 1000;
    animation: line-anm 3s ease forwards 3300ms;
}


@keyframes line-anm {
    to {
        stroke-dashoffset: 0;
    }
}

@keyframes fill-anm {
    from {
        fill: transparent;
    }
    to {
        fill: #FD3FD3;
    }
}
</style>





<path d="M14.296 44.184C17.752 44.184 20.44 43.5653 22.36 42.328C24.28 41.048 25.24 39 25.24 36.184C25.24 34.5627 24.92 33.2187 24.28 32.152C23.6827 31.0427 22.872 30.1253 21.848 29.4C20.824 28.632 19.6507 27.992 18.328 27.48C17.0053 26.9253 15.6187 26.3493 14.168 25.752C12.3333 25.0267 10.6907 24.28 9.24 23.512C7.78933 22.744 6.55199 21.8907 5.528 20.952C4.50399 19.9707 3.71466 18.8613 3.16 17.624C2.64799 16.3867 2.39199 14.936 2.39199 13.272C2.39199 9.47466 3.65066 6.59466 6.16799 4.632C8.68533 2.66933 12.184 1.688 16.664 1.688C17.8587 1.688 19.032 1.77333 20.184 1.944C21.336 2.11466 22.4027 2.34933 23.384 2.648C24.408 2.904 25.3253 3.20266 26.136 3.544C26.9893 3.88533 27.6933 4.248 28.248 4.632L26.712 8.28C25.4747 7.42667 23.96 6.744 22.168 6.232C20.4187 5.72 18.52 5.464 16.472 5.464C15.064 5.464 13.7627 5.61333 12.568 5.912C11.416 6.168 10.4133 6.616 9.56 7.256C8.70666 7.85333 8.024 8.62133 7.51199 9.56C7.04266 10.4987 6.808 11.6293 6.808 12.952C6.808 14.3173 7.064 15.4693 7.57599 16.408C8.088 17.3467 8.792 18.1573 9.688 18.84C10.6267 19.5227 11.7147 20.1413 12.952 20.696C14.1893 21.2507 15.5333 21.8267 16.984 22.424C18.7333 23.1493 20.376 23.8747 21.912 24.6C23.4907 25.3253 24.856 26.1787 26.008 27.16C27.16 28.1413 28.0773 29.336 28.76 30.744C29.4427 32.152 29.784 33.88 29.784 35.928C29.784 39.9387 28.376 42.9467 25.56 44.952C22.7867 46.9573 19.0107 47.96 14.232 47.96C12.5253 47.96 10.968 47.8533 9.56 47.64C8.152 47.4267 6.89333 47.1707 5.784 46.872C4.67466 46.5307 3.736 46.1893 2.96799 45.848C2.19999 45.5067 1.60266 45.208 1.17599 44.952L2.58399 41.176C3.01066 41.432 3.58666 41.7307 4.312 42.072C5.03733 42.4133 5.89066 42.7547 6.87199 43.096C7.85333 43.3947 8.96266 43.6507 10.2 43.864C11.4373 44.0773 12.8027 44.184 14.296 44.184Z" stroke="#FD3FD3"/>
<path d="M41.4705 13.912H54.6545V17.432H41.4705V35.032C41.4705 36.9093 41.6198 38.4453 41.9185 39.64C42.2598 40.792 42.7292 41.688 43.3265 42.328C43.9238 42.968 44.6492 43.3947 45.5025 43.608C46.3558 43.8213 47.2945 43.928 48.3185 43.928C50.0678 43.928 51.4758 43.736 52.5425 43.352C53.6092 42.9253 54.4412 42.5413 55.0385 42.2L56.0625 45.656C55.4652 46.04 54.4198 46.488 52.9265 47C51.4332 47.4693 49.8118 47.704 48.0625 47.704C46.0145 47.704 44.2865 47.448 42.8785 46.936C41.5132 46.3813 40.4038 45.5707 39.5505 44.504C38.7398 43.3947 38.1638 42.0293 37.8225 40.408C37.4812 38.7867 37.3105 36.8667 37.3105 34.648V4.184L41.4705 3.416V13.912Z" stroke="#FD3FD3"/>
<path d="M72.7485 43.992C74.3698 43.992 75.7778 43.9493 76.9725 43.864C78.2098 43.736 79.2552 43.5867 80.1085 43.416V31.768C79.6392 31.5547 78.8925 31.3413 77.8685 31.128C76.8445 30.872 75.4365 30.744 73.6445 30.744C72.6205 30.744 71.5538 30.8293 70.4445 31C69.3352 31.128 68.3112 31.448 67.3725 31.96C66.4338 32.4293 65.6658 33.0907 65.0685 33.944C64.4712 34.7973 64.1725 35.928 64.1725 37.336C64.1725 38.5733 64.3645 39.6187 64.7485 40.472C65.1752 41.3253 65.7512 42.008 66.4765 42.52C67.2445 43.032 68.1405 43.416 69.1645 43.672C70.2312 43.8853 71.4258 43.992 72.7485 43.992ZM72.3645 13.144C74.5405 13.144 76.3752 13.464 77.8685 14.104C79.4045 14.7013 80.6418 15.5547 81.5805 16.664C82.5192 17.7307 83.2018 19.0107 83.6285 20.504C84.0552 21.9973 84.2685 23.6187 84.2685 25.368V46.232C83.8418 46.36 83.2232 46.5093 82.4125 46.68C81.6018 46.808 80.6632 46.9573 79.5965 47.128C78.5298 47.2987 77.3352 47.4267 76.0125 47.512C74.7325 47.64 73.4098 47.704 72.0445 47.704C70.2952 47.704 68.6738 47.512 67.1805 47.128C65.7298 46.744 64.4498 46.1467 63.3405 45.336C62.2738 44.4827 61.4205 43.416 60.7805 42.136C60.1832 40.8133 59.8845 39.2133 59.8845 37.336C59.8845 35.544 60.2258 34.008 60.9085 32.728C61.5912 31.448 62.5512 30.4027 63.7885 29.592C65.0258 28.7387 66.4978 28.12 68.2045 27.736C69.9112 27.352 71.7672 27.16 73.7725 27.16C74.3698 27.16 74.9885 27.2027 75.6285 27.288C76.3112 27.3307 76.9512 27.416 77.5485 27.544C78.1885 27.6293 78.7218 27.736 79.1485 27.864C79.6178 27.9493 79.9378 28.0347 80.1085 28.12V26.072C80.1085 24.92 80.0232 23.8107 79.8525 22.744C79.6818 21.6347 79.2978 20.6533 78.7005 19.8C78.1458 18.904 77.3352 18.2 76.2685 17.688C75.2445 17.1333 73.8792 16.856 72.1725 16.856C69.7405 16.856 67.9272 17.0267 66.7325 17.368C65.5378 17.7093 64.6632 17.9867 64.1085 18.2L63.5325 14.552C64.2578 14.2107 65.3672 13.8907 66.8605 13.592C68.3965 13.2933 70.2312 13.144 72.3645 13.144Z" stroke="#FD3FD3"/>
<path d="M106.143 13.272C107.508 13.272 108.788 13.3787 109.983 13.592C111.22 13.8053 112.074 14.0187 112.543 14.232L111.711 17.816C111.37 17.6453 110.666 17.4747 109.599 17.304C108.575 17.0907 107.21 16.984 105.503 16.984C103.711 16.984 102.26 17.112 101.151 17.368C100.084 17.624 99.3803 17.8373 99.039 18.008V47H94.879V15.448C95.9457 14.9787 97.4177 14.5093 99.295 14.04C101.172 13.528 103.455 13.272 106.143 13.272Z" stroke="#FD3FD3"/>
<path d="M130.081 13.272C131.446 13.272 132.726 13.3787 133.921 13.592C135.158 13.8053 136.011 14.0187 136.48 14.232L135.648 17.816C135.307 17.6453 134.603 17.4747 133.536 17.304C132.512 17.0907 131.147 16.984 129.441 16.984C127.649 16.984 126.198 17.112 125.088 17.368C124.022 17.624 123.318 17.8373 122.976 18.008V47H118.816V15.448C119.883 14.9787 121.355 14.5093 123.232 14.04C125.11 13.528 127.393 13.272 130.081 13.272Z" stroke="#FD3FD3"/>
<path d="M153.153 47.704C151.745 45.1013 150.38 42.392 149.057 39.576C147.777 36.76 146.561 33.9227 145.409 31.064C144.3 28.1627 143.276 25.2827 142.337 22.424C141.398 19.5227 140.588 16.6853 139.905 13.912H144.321C144.79 15.96 145.388 18.1787 146.113 20.568C146.838 22.9147 147.649 25.3467 148.545 27.864C149.484 30.3813 150.508 32.9627 151.617 35.608C152.726 38.2533 153.921 40.856 155.201 43.416C156.14 40.7707 156.972 38.2747 157.697 35.928C158.422 33.5813 159.084 31.256 159.681 28.952C160.321 26.6053 160.918 24.216 161.473 21.784C162.07 19.352 162.689 16.728 163.329 13.912H167.489C166.124 20.0987 164.566 26.1147 162.817 31.96C161.068 37.8053 159.169 43.16 157.121 48.024C156.31 49.944 155.478 51.5867 154.625 52.952C153.772 54.36 152.812 55.512 151.745 56.408C150.721 57.304 149.505 57.9653 148.097 58.392C146.732 58.8187 145.11 59.032 143.233 59.032C142.166 59.032 141.185 58.904 140.289 58.648C139.436 58.392 138.902 58.2 138.689 58.072L139.521 54.616C139.692 54.744 140.161 54.9147 140.929 55.128C141.74 55.384 142.572 55.512 143.425 55.512C144.62 55.512 145.686 55.384 146.625 55.128C147.606 54.872 148.481 54.424 149.249 53.784C150.017 53.1867 150.7 52.3973 151.297 51.416C151.937 50.4347 152.556 49.1973 153.153 47.704Z" stroke="#FD3FD3"/>
<path d="M199.913 43.224V47H174.697V2.648H179.049V43.224H199.913Z" stroke="#FD3FD3"/>
<path d="M210.727 47H206.566V13.912H210.727V47ZM211.686 3.928C211.686 4.90933 211.388 5.69866 210.79 6.296C210.193 6.85066 209.468 7.128 208.615 7.128C207.761 7.128 207.036 6.85066 206.439 6.296C205.841 5.69866 205.542 4.90933 205.542 3.928C205.542 2.94666 205.841 2.17866 206.439 1.624C207.036 1.02666 207.761 0.727997 208.615 0.727997C209.468 0.727997 210.193 1.02666 210.79 1.624C211.388 2.17866 211.686 2.94666 211.686 3.928Z" stroke="#FD3FD3"/>
<path d="M221.754 15.064C222.991 14.7227 224.655 14.3387 226.746 13.912C228.837 13.4853 231.397 13.272 234.426 13.272C236.943 13.272 239.034 13.6347 240.698 14.36C242.405 15.0853 243.749 16.1307 244.73 17.496C245.754 18.8187 246.479 20.4187 246.906 22.296C247.333 24.1733 247.546 26.2427 247.546 28.504V47H243.386V29.848C243.386 27.5013 243.215 25.5173 242.874 23.896C242.575 22.2747 242.042 20.952 241.274 19.928C240.549 18.904 239.567 18.1787 238.33 17.752C237.135 17.2827 235.621 17.048 233.786 17.048C231.823 17.048 230.117 17.1547 228.666 17.368C227.258 17.5813 226.341 17.7733 225.914 17.944V47H221.754V15.064Z" stroke="#FD3FD3"/>
<path d="M279.759 43.16C279.503 43.3733 279.12 43.6293 278.608 43.928C278.096 44.184 277.455 44.4613 276.688 44.76C275.962 45.0587 275.109 45.3147 274.128 45.528C273.189 45.6987 272.122 45.784 270.927 45.784C269.007 45.784 267.151 45.4853 265.359 44.888C263.567 44.2907 261.989 43.352 260.624 42.072C259.301 40.792 258.234 39.1493 257.423 37.144C256.613 35.096 256.207 32.6213 256.207 29.72C256.207 27.3733 256.57 25.1973 257.296 23.192C258.021 21.1867 259.045 19.4587 260.367 18.008C261.733 16.5147 263.376 15.3627 265.296 14.552C267.258 13.6987 269.456 13.272 271.888 13.272C274.96 13.272 277.413 13.4853 279.247 13.912C281.125 14.296 282.661 14.68 283.855 15.064V45.272C283.855 50.2213 282.576 53.7413 280.016 55.832C277.456 57.9653 273.594 59.032 268.431 59.032C266.298 59.032 264.357 58.8613 262.608 58.52C260.901 58.2213 259.429 57.8587 258.191 57.432L259.023 53.656C260.047 54.1253 261.434 54.5307 263.184 54.872C264.976 55.2133 266.768 55.384 268.56 55.384C272.485 55.384 275.322 54.616 277.072 53.08C278.864 51.5867 279.759 49.0053 279.759 45.336V43.16ZM279.695 17.944C278.97 17.7307 278.032 17.5387 276.88 17.368C275.728 17.1547 274.085 17.048 271.952 17.048C270.16 17.048 268.559 17.368 267.151 18.008C265.786 18.6053 264.613 19.48 263.632 20.632C262.65 21.7413 261.904 23.0853 261.392 24.664C260.88 26.2 260.624 27.9067 260.624 29.784C260.624 31.96 260.922 33.8373 261.52 35.416C262.117 36.952 262.885 38.2107 263.823 39.192C264.805 40.1733 265.914 40.8987 267.151 41.368C268.389 41.7947 269.647 42.008 270.927 42.008C272.805 42.008 274.511 41.7307 276.047 41.176C277.626 40.6213 278.842 39.9813 279.695 39.256V17.944Z" stroke="#FD3FD3"/>
</svg>



