<svg id="logo" class="logo" width="531" height="35" viewBox="0 0 531 35" fill="none" xmlns="http://www.w3.org/2000/svg">
<style>
* {
    margin: 0;
    padding: 0;
}
body {
    width: 100%;
    height: 100vh;
    background: #333;
}

.logo {
    position: absolute;
    top: 50%;
    left: 55%;
    transform: translate(-50%, -50%);
    animation: fill-anm 500ms ease forwards 3000ms;
}

.logo path:nth-child(1) {
    stroke-dasharray: 600;
    stroke-dashoffset: 600;
    animation: line-anm 3s ease forwards;
}

.logo path:nth-child(2) {
    stroke-dasharray: 600;
    stroke-dashoffset: 600;
    animation: line-anm 3s ease forwards 300ms;
}

.logo path:nth-child(3) {
    stroke-dasharray: 600;
    stroke-dashoffset: 600;
    animation: line-anm 3s ease forwards 600ms;
}

.logo path:nth-child(4) {
    stroke-dasharray: 600;
    stroke-dashoffset: 600;
    animation: line-anm 3s ease forwards 900ms;
}

.logo path:nth-child(5) {
    stroke-dasharray: 600;
    stroke-dashoffset: 600;
    animation: line-anm 3s ease forwards 1200ms;
}

.logo path:nth-child(6) {
    stroke-dasharray: 600;
    stroke-dashoffset: 600;
    animation: line-anm 3s ease forwards 1500ms;
}

.logo path:nth-child(7) {
    stroke-dasharray: 600;
    stroke-dashoffset: 600;
    animation: line-anm 3s ease forwards 1800ms;
}
    
.logo path:nth-child(8) {
    stroke-dasharray: 600;
    stroke-dashoffset: 600;
    animation: line-anm 3s ease forwards 2100ms;
}

.logo path:nth-child(9) {
    stroke-dasharray: 600;
    stroke-dashoffset: 600;
    animation: line-anm 2s ease forwards 900ms;
}

.logo path:nth-child(10) {
    stroke-dasharray: 600;
    stroke-dashoffset: 600;
    animation: line-anm 2s ease forwards 1800ms;
}

.logo path:nth-child(11) {
    stroke-dasharray: 600;
    stroke-dashoffset: 600;
    animation: line-anm 2s ease forwards 600ms;
}

.logo path:nth-child(12) {
    stroke-dasharray: 600;
    stroke-dashoffset: 600;
    animation: line-anm 2s ease forwards 900ms;
}


.logo path:nth-child(13) {
    stroke-dasharray: 600;
    stroke-dashoffset: 600;
    animation: line-anm 2s ease forwards 1200ms;
}

.logo path:nth-child(14) {
    stroke-dasharray: 600;
    stroke-dashoffset: 600;
    animation: line-anm 2s ease forwards 1500ms;
}


.logo path:nth-child(15) {
    stroke-dasharray: 600;
    stroke-dashoffset: 600;
    animation: line-anm 2s ease forwards 1800ms;
}

.logo path:nth-child(16) {
    stroke-dasharray: 600;
    stroke-dashoffset: 600;
    animation: line-anm 2s ease forwards 2100ms;
}


.logo path:nth-child(17) {
    stroke-dasharray: 600;
    stroke-dashoffset: 600;
    animation: line-anm 2s ease forwards 2400ms;
}

.logo path:nth-child(18) {
    stroke-dasharray: 600;
    stroke-dashoffset: 600;
    animation: line-anm 2s ease forwards 600ms;
}


.logo path:nth-child(19) {
    stroke-dasharray: 600;
    stroke-dashoffset: 600;
    animation: line-anm 2s ease forwards 900ms;
}

.logo path:nth-child(20) {
    stroke-dasharray: 600;
    stroke-dashoffset: 600;
    animation: line-anm 2s ease forwards 1200ms;
}


.logo path:nth-child(21) {
    stroke-dasharray: 600;
    stroke-dashoffset: 600;
    animation: line-anm 2s ease forwards 1500ms;
}

.logo path:nth-child(22) {
    stroke-dasharray: 600;
    stroke-dashoffset: 600;
    animation: line-anm 2s ease forwards 1800ms;
}


.logo path:nth-child(23) {
    stroke-dasharray: 600;
    stroke-dashoffset: 600;
    animation: line-anm 2s ease forwards 2100ms;
}

.logo path:nth-child(24) {
    stroke-dasharray: 600;
    stroke-dashoffset: 600;
    animation: line-anm 2s ease forwards 2400ms;
}


.logo path:nth-child(25) {
    stroke-dasharray: 600;
    stroke-dashoffset: 600;
    animation: line-anm 2s ease forwards 1500ms;
}

.logo path:nth-child(26) {
    stroke-dasharray: 600;
    stroke-dashoffset: 600;
    animation: line-anm 2s ease forwards 1800ms;
}

.logo path:nth-child(27) {
    stroke-dasharray: 600;
    stroke-dashoffset: 600;
    animation: line-anm 2s ease forwards 2000ms;
}

.logo path:nth-child(28) {
    stroke-dasharray: 600;
    stroke-dashoffset: 600;
    animation: line-anm 2s ease forwards 2400ms;
}

@keyframes line-anm {
    to {
        stroke-dashoffset: 0;
    }
}

@keyframes fill-anm {
    from {
        fill: transparent;
    }
    to {
        fill: #F537B5;
    }
}
</style>



<path d="M24.9336 1.73438H28.5664L19.543 24.4688H14.6211L13.6836 7.59375L6.18359 24.4688H1.37891L1.02734 1.73438H5.12891L5.01172 19.5469L12.8633 1.73438H17.1992L18.1367 19.5469L24.9336 1.73438Z" stroke="#F537B5"/>
<path d="M40.2852 7.24219C41.9258 7.24219 43.1367 7.47656 43.918 7.94531C44.6992 8.49219 45.0898 9.39062 45.0898 10.6406C45.0898 11.1094 45.0508 11.5391 44.9727 11.9297L44.6211 14.2734C44.3867 15.6016 43.9961 16.5391 43.4492 17.0859C42.8242 17.6328 41.8867 17.9062 40.6367 17.9062H34.0742L33.8398 18.8438C33.7617 19.3906 33.7227 19.8203 33.7227 20.1328C33.7227 20.6797 33.8789 21.0312 34.1914 21.1875C34.5039 21.3438 35.1289 21.4219 36.0664 21.4219H42.043L40.8711 24.4688H35.2461C33.3711 24.4688 32.043 24.1953 31.2617 23.6484C30.4023 23.1797 29.9727 22.3203 29.9727 21.0703C29.9727 20.5234 30.0508 19.8203 30.207 18.9609L31.3789 12.2812C31.6133 11.1875 31.8867 10.3672 32.1992 9.82031C32.4336 9.27344 32.7461 8.84375 33.1367 8.53125C33.6055 8.0625 34.2695 7.71094 35.1289 7.47656C35.9102 7.32031 36.9648 7.24219 38.293 7.24219H40.2852ZM41.3398 11.9297V11.2266C41.3398 10.9141 41.2617 10.6797 41.1055 10.5234C40.9492 10.3672 40.4414 10.2891 39.582 10.2891H37.4727C36.5352 10.2891 35.9492 10.4453 35.7148 10.7578C35.4023 11.1484 35.168 11.6562 35.0117 12.2812L34.543 14.9766H39.6992C40.0117 14.9766 40.2852 14.8984 40.5195 14.7422C40.7539 14.6641 40.9102 14.3906 40.9883 13.9219L41.3398 11.9297Z" stroke="#F537B5"/>
<path d="M51.5352 24.4688C49.8164 24.4688 48.6055 24.2344 47.9023 23.7656C47.1211 23.2969 46.7305 22.4375 46.7305 21.1875C46.7305 20.4844 46.8867 19.1953 47.1992 17.3203L50.2461 0.5625H53.8789L50.9492 17.3203C50.6367 18.8047 50.4805 19.7812 50.4805 20.25C50.4805 20.5625 50.5586 20.7969 50.7148 20.9531C50.8711 21.1875 51.1445 21.3047 51.5352 21.3047C51.8477 21.3828 52.4336 21.4219 53.293 21.4219H54.9336L53.6445 24.4688H51.5352Z" stroke="#F537B5"/>
<path d="M61.6133 24.4688C59.7383 24.4688 58.3711 24.1562 57.5117 23.5312C56.6523 22.9844 56.2227 22.0078 56.2227 20.6016C56.2227 19.8984 56.3789 18.8047 56.6914 17.3203L57.2773 13.4531C57.5117 12.2031 57.7852 11.1875 58.0977 10.4062C58.332 9.70312 58.7227 9.15625 59.2695 8.76562C59.582 8.375 60.1289 8.0625 60.9102 7.82812C61.6133 7.59375 62.7461 7.47656 64.3086 7.47656H69.9336L68.6445 10.5234H64.1914C63.0977 10.5234 62.3555 10.6797 61.9648 10.9922C61.5742 11.3828 61.2617 12.1641 61.0273 13.3359L60.3242 17.3203C60.0898 18.6484 59.9727 19.5078 59.9727 19.8984C59.9727 20.5234 60.168 20.9141 60.5586 21.0703C60.9492 21.3047 61.6523 21.4219 62.668 21.4219H67.9414L66.6523 24.4688H61.6133Z" stroke="#F537B5"/>
<path d="M76.6133 24.7031C74.6602 24.7031 73.293 24.3906 72.5117 23.7656C71.6523 23.2188 71.2227 22.2031 71.2227 20.7188C71.2227 20.0938 71.3398 19.0391 71.5742 17.5547L72.3945 13.1016C72.5508 11.8516 72.7852 10.875 73.0977 10.1719C73.332 9.46875 73.7227 8.88281 74.2695 8.41406C74.7383 8.02344 75.4023 7.71094 76.2617 7.47656C77.043 7.32031 78.0977 7.24219 79.4258 7.24219H81.418C83.3711 7.24219 84.7773 7.55469 85.6367 8.17969C86.418 8.80469 86.8086 9.82031 86.8086 11.2266C86.8086 12.0078 86.6914 13.0625 86.457 14.3906L85.6367 18.8438C85.4023 20.3281 85.1289 21.3828 84.8164 22.0078C84.5039 22.6328 84.1523 23.1406 83.7617 23.5312C83.293 23.9219 82.668 24.1953 81.8867 24.3516C81.0273 24.5859 79.9336 24.7031 78.6055 24.7031H76.6133ZM77.5508 21.6562H78.957C79.5039 21.6562 79.9727 21.6172 80.3633 21.5391C80.6758 21.4609 80.9102 21.3047 81.0664 21.0703C81.457 20.6797 81.7695 19.9375 82.0039 18.8438L82.707 14.3906C82.9414 13.2188 83.0586 12.3203 83.0586 11.6953C83.0586 11.1484 82.8633 10.7578 82.4727 10.5234C82.082 10.3672 81.418 10.2891 80.4805 10.2891H79.1914C78.0977 10.2891 77.3555 10.4453 76.9648 10.7578C76.5742 11.1484 76.2617 11.9297 76.0273 13.1016L75.3242 17.5547C75.0898 18.8047 74.9727 19.6641 74.9727 20.1328C74.9727 20.7578 75.168 21.1484 75.5586 21.3047C75.8711 21.5391 76.5352 21.6562 77.5508 21.6562Z" stroke="#F537B5"/>
<path d="M108.488 7.47656C110.363 7.47656 111.691 7.71094 112.473 8.17969C113.176 8.64844 113.527 9.42969 113.527 10.5234C113.527 11.3047 113.371 12.5156 113.059 14.1562L111.184 24.4688H107.551L109.309 14.5078C109.543 13.0234 109.66 12.125 109.66 11.8125C109.66 11.3438 109.504 10.9922 109.191 10.7578C108.801 10.6016 108.137 10.5234 107.199 10.5234H103.801L101.34 24.4688H97.5898L100.051 10.5234H94.3086L91.8477 24.4688H88.0977L91.1445 7.47656H108.488Z" stroke="#F537B5"/>
<path d="M125.246 7.24219C126.887 7.24219 128.098 7.47656 128.879 7.94531C129.66 8.49219 130.051 9.39062 130.051 10.6406C130.051 11.1094 130.012 11.5391 129.934 11.9297L129.582 14.2734C129.348 15.6016 128.957 16.5391 128.41 17.0859C127.785 17.6328 126.848 17.9062 125.598 17.9062H119.035L118.801 18.8438C118.723 19.3906 118.684 19.8203 118.684 20.1328C118.684 20.6797 118.84 21.0312 119.152 21.1875C119.465 21.3438 120.09 21.4219 121.027 21.4219H127.004L125.832 24.4688H120.207C118.332 24.4688 117.004 24.1953 116.223 23.6484C115.363 23.1797 114.934 22.3203 114.934 21.0703C114.934 20.5234 115.012 19.8203 115.168 18.9609L116.34 12.2812C116.574 11.1875 116.848 10.3672 117.16 9.82031C117.395 9.27344 117.707 8.84375 118.098 8.53125C118.566 8.0625 119.23 7.71094 120.09 7.47656C120.871 7.32031 121.926 7.24219 123.254 7.24219H125.246ZM126.301 11.9297V11.2266C126.301 10.9141 126.223 10.6797 126.066 10.5234C125.91 10.3672 125.402 10.2891 124.543 10.2891H122.434C121.496 10.2891 120.91 10.4453 120.676 10.7578C120.363 11.1484 120.129 11.6562 119.973 12.2812L119.504 14.9766H124.66C124.973 14.9766 125.246 14.8984 125.48 14.7422C125.715 14.6641 125.871 14.3906 125.949 13.9219L126.301 11.9297Z" stroke="#F537B5"/>
<path d="M149.035 10.5234L147.863 17.3203C147.551 18.8047 147.395 19.7812 147.395 20.25C147.395 20.5625 147.473 20.7969 147.629 20.9531C147.707 21.1875 147.941 21.3047 148.332 21.3047C148.723 21.3828 149.309 21.4219 150.09 21.4219H152.199L150.91 24.4688H148.684C146.965 24.4688 145.715 24.1953 144.934 23.6484C144.074 23.1016 143.645 22.2031 143.645 20.9531C143.645 20.4062 143.801 19.1953 144.113 17.3203L145.285 10.5234H143.059L143.645 7.47656H145.871L146.809 2.4375H150.441L149.621 7.47656H154.309L153.723 10.5234H149.035Z" stroke="#F537B5"/>
<path d="M161.34 24.7031C159.387 24.7031 158.02 24.3906 157.238 23.7656C156.379 23.2188 155.949 22.2031 155.949 20.7188C155.949 20.0938 156.066 19.0391 156.301 17.5547L157.121 13.1016C157.277 11.8516 157.512 10.875 157.824 10.1719C158.059 9.46875 158.449 8.88281 158.996 8.41406C159.465 8.02344 160.129 7.71094 160.988 7.47656C161.77 7.32031 162.824 7.24219 164.152 7.24219H166.145C168.098 7.24219 169.504 7.55469 170.363 8.17969C171.145 8.80469 171.535 9.82031 171.535 11.2266C171.535 12.0078 171.418 13.0625 171.184 14.3906L170.363 18.8438C170.129 20.3281 169.855 21.3828 169.543 22.0078C169.23 22.6328 168.879 23.1406 168.488 23.5312C168.02 23.9219 167.395 24.1953 166.613 24.3516C165.754 24.5859 164.66 24.7031 163.332 24.7031H161.34ZM162.277 21.6562H163.684C164.23 21.6562 164.699 21.6172 165.09 21.5391C165.402 21.4609 165.637 21.3047 165.793 21.0703C166.184 20.6797 166.496 19.9375 166.73 18.8438L167.434 14.3906C167.668 13.2188 167.785 12.3203 167.785 11.6953C167.785 11.1484 167.59 10.7578 167.199 10.5234C166.809 10.3672 166.145 10.2891 165.207 10.2891H163.918C162.824 10.2891 162.082 10.4453 161.691 10.7578C161.301 11.1484 160.988 11.9297 160.754 13.1016L160.051 17.5547C159.816 18.8047 159.699 19.6641 159.699 20.1328C159.699 20.7578 159.895 21.1484 160.285 21.3047C160.598 21.5391 161.262 21.6562 162.277 21.6562Z" stroke="#F537B5"/>
<path d="M189.816 24.4688C188.098 24.4688 186.887 24.2344 186.184 23.7656C185.402 23.2969 185.012 22.4375 185.012 21.1875C185.012 20.4844 185.168 19.1953 185.48 17.3203L188.527 0.5625H192.16L189.23 17.3203C188.918 18.8047 188.762 19.7812 188.762 20.25C188.762 20.5625 188.84 20.7969 188.996 20.9531C189.152 21.1875 189.426 21.3047 189.816 21.3047C190.129 21.3828 190.715 21.4219 191.574 21.4219H193.215L191.926 24.4688H189.816Z" stroke="#F537B5"/>
<path d="M197.902 4.66406L198.605 0.796875H202.473L201.77 4.66406H197.902ZM194.504 24.4688L197.551 7.47656H201.184L198.254 24.4688H194.504Z" stroke="#F537B5"/>
<path d="M214.777 7.47656C216.652 7.47656 217.98 7.71094 218.762 8.17969C219.543 8.64844 219.934 9.42969 219.934 10.5234C219.934 11.0703 219.777 12.2812 219.465 14.1562L217.707 24.4688H213.957L215.715 14.5078C215.949 13.1797 216.066 12.2812 216.066 11.8125C216.066 11.5 215.988 11.2266 215.832 10.9922C215.598 10.8359 215.285 10.7188 214.895 10.6406C214.504 10.5625 214.074 10.5234 213.605 10.5234H209.855L207.395 24.4688H203.645L206.691 7.47656H214.777Z" stroke="#F537B5"/>
<path d="M231.066 7.24219C233.02 7.24219 234.426 7.55469 235.285 8.17969C236.066 8.80469 236.457 9.82031 236.457 11.2266C236.457 11.9297 236.34 12.9844 236.105 14.3906L234.23 24.9375C234.074 25.9531 233.84 26.8125 233.527 27.5156C233.137 28.2188 232.59 28.7656 231.887 29.1562C231.105 29.625 229.895 29.8594 228.254 29.8594H221.809L221.34 26.8125H227.434C228.371 26.8125 228.996 26.7344 229.309 26.5781C229.621 26.4219 229.895 26.1875 230.129 25.875C230.285 25.6406 230.441 25.0156 230.598 24L230.832 22.8281H226.613C224.66 22.8281 223.293 22.5156 222.512 21.8906C221.652 21.2656 221.223 20.25 221.223 18.8438C221.223 18.2188 221.34 17.1641 221.574 15.6797L222.043 13.1016C222.199 11.8516 222.434 10.875 222.746 10.1719C222.98 9.46875 223.371 8.88281 223.918 8.41406C224.387 8.02344 225.051 7.71094 225.91 7.47656C226.691 7.32031 227.746 7.24219 229.074 7.24219H231.066ZM227.551 19.7812H231.418L232.355 14.3906C232.59 13.2188 232.707 12.3203 232.707 11.6953C232.707 11.1484 232.512 10.7578 232.121 10.5234C231.73 10.3672 231.027 10.2891 230.012 10.2891H228.84C227.746 10.2891 227.004 10.4844 226.613 10.875C226.223 11.2656 225.949 12.0078 225.793 13.1016L225.324 15.6797C225.09 16.8516 224.973 17.7109 224.973 18.2578C224.973 18.8828 225.168 19.2734 225.559 19.4297C225.871 19.6641 226.535 19.7812 227.551 19.7812Z" stroke="#F537B5"/>
<path d="M248.293 7.24219C249.934 7.24219 251.145 7.47656 251.926 7.94531C252.707 8.49219 253.098 9.39062 253.098 10.6406C253.098 11.1094 253.059 11.5391 252.98 11.9297L252.629 14.2734C252.395 15.6016 252.004 16.5391 251.457 17.0859C250.832 17.6328 249.895 17.9062 248.645 17.9062H242.082L241.848 18.8438C241.77 19.3906 241.73 19.8203 241.73 20.1328C241.73 20.6797 241.887 21.0312 242.199 21.1875C242.512 21.3438 243.137 21.4219 244.074 21.4219H250.051L248.879 24.4688H243.254C241.379 24.4688 240.051 24.1953 239.27 23.6484C238.41 23.1797 237.98 22.3203 237.98 21.0703C237.98 20.5234 238.059 19.8203 238.215 18.9609L239.387 12.2812C239.621 11.1875 239.895 10.3672 240.207 9.82031C240.441 9.27344 240.754 8.84375 241.145 8.53125C241.613 8.0625 242.277 7.71094 243.137 7.47656C243.918 7.32031 244.973 7.24219 246.301 7.24219H248.293ZM249.348 11.9297V11.2266C249.348 10.9141 249.27 10.6797 249.113 10.5234C248.957 10.3672 248.449 10.2891 247.59 10.2891H245.48C244.543 10.2891 243.957 10.4453 243.723 10.7578C243.41 11.1484 243.176 11.6562 243.02 12.2812L242.551 14.9766H247.707C248.02 14.9766 248.293 14.8984 248.527 14.7422C248.762 14.6641 248.918 14.3906 248.996 13.9219L249.348 11.9297Z" stroke="#F537B5"/>
<path d="M254.035 24.4688L256.027 12.9844C256.262 11.5 256.574 10.3672 256.965 9.58594C257.355 8.88281 257.941 8.33594 258.723 7.94531C259.504 7.63281 260.793 7.47656 262.59 7.47656H266.809L265.52 10.5234H262.707C261.926 10.5234 261.34 10.6016 260.949 10.7578C260.559 10.9922 260.285 11.3047 260.129 11.6953C259.973 12.0859 259.855 12.5938 259.777 13.2188L257.785 24.4688H254.035Z" stroke="#F537B5"/>
<path d="M287.434 7.47656H290.949L283.449 24.4688H279.113L278.176 12.9844L272.434 24.4688H268.215L267.746 7.47656H271.379L271.496 20.1328L277.59 7.47656H281.34L282.16 20.1328L287.434 7.47656Z" stroke="#F537B5"/>
<path d="M315.09 7.47656C316.965 7.47656 318.332 7.75 319.191 8.29688C320.051 8.92188 320.48 9.97656 320.48 11.4609C320.48 12.0859 320.324 13.1406 320.012 14.625L319.426 18.6094C319.113 20.1719 318.801 21.2656 318.488 21.8906C318.176 22.5156 317.824 22.9844 317.434 23.2969C316.965 23.7656 316.34 24.0781 315.559 24.2344C314.699 24.3906 313.645 24.4688 312.395 24.4688H308.176L307.238 29.8594H303.488L307.473 7.47656H315.09ZM316.379 14.625C316.613 13.4531 316.73 12.5547 316.73 11.9297C316.73 11.3828 316.535 10.9922 316.145 10.7578C315.754 10.6016 315.09 10.5234 314.152 10.5234H310.637L308.645 21.5391H312.629C313.098 21.5391 313.527 21.5 313.918 21.4219C314.309 21.3438 314.582 21.1484 314.738 20.8359C315.129 20.4453 315.441 19.7031 315.676 18.6094L316.379 14.625Z" stroke="#F537B5"/>
<path d="M321.301 24.4688L323.293 12.9844C323.527 11.5 323.84 10.3672 324.23 9.58594C324.621 8.88281 325.207 8.33594 325.988 7.94531C326.77 7.63281 328.059 7.47656 329.855 7.47656H334.074L332.785 10.5234H329.973C329.191 10.5234 328.605 10.6016 328.215 10.7578C327.824 10.9922 327.551 11.3047 327.395 11.6953C327.238 12.0859 327.121 12.5938 327.043 13.2188L325.051 24.4688H321.301Z" stroke="#F537B5"/>
<path d="M340.871 24.7031C338.918 24.7031 337.551 24.3906 336.77 23.7656C335.91 23.2188 335.48 22.2031 335.48 20.7188C335.48 20.0938 335.598 19.0391 335.832 17.5547L336.652 13.1016C336.809 11.8516 337.043 10.875 337.355 10.1719C337.59 9.46875 337.98 8.88281 338.527 8.41406C338.996 8.02344 339.66 7.71094 340.52 7.47656C341.301 7.32031 342.355 7.24219 343.684 7.24219H345.676C347.629 7.24219 349.035 7.55469 349.895 8.17969C350.676 8.80469 351.066 9.82031 351.066 11.2266C351.066 12.0078 350.949 13.0625 350.715 14.3906L349.895 18.8438C349.66 20.3281 349.387 21.3828 349.074 22.0078C348.762 22.6328 348.41 23.1406 348.02 23.5312C347.551 23.9219 346.926 24.1953 346.145 24.3516C345.285 24.5859 344.191 24.7031 342.863 24.7031H340.871ZM341.809 21.6562H343.215C343.762 21.6562 344.23 21.6172 344.621 21.5391C344.934 21.4609 345.168 21.3047 345.324 21.0703C345.715 20.6797 346.027 19.9375 346.262 18.8438L346.965 14.3906C347.199 13.2188 347.316 12.3203 347.316 11.6953C347.316 11.1484 347.121 10.7578 346.73 10.5234C346.34 10.3672 345.676 10.2891 344.738 10.2891H343.449C342.355 10.2891 341.613 10.4453 341.223 10.7578C340.832 11.1484 340.52 11.9297 340.285 13.1016L339.582 17.5547C339.348 18.8047 339.23 19.6641 339.23 20.1328C339.23 20.7578 339.426 21.1484 339.816 21.3047C340.129 21.5391 340.793 21.6562 341.809 21.6562Z" stroke="#F537B5"/>
<path d="M360.09 4.07812C359.777 4.39062 359.504 5.17188 359.27 6.42188L359.035 7.47656H363.488L362.902 10.5234H358.566L356.105 24.4688H352.355L354.816 10.5234H352.59L353.059 7.47656H355.285L355.52 6.42188C355.832 4.85938 356.145 3.76562 356.457 3.14062C356.691 2.51562 357.004 2.00781 357.395 1.61719C357.707 1.30469 358.176 1.03125 358.801 0.796875C359.348 0.640625 360.246 0.5625 361.496 0.5625H365.012L364.543 3.60938H362.316C361.691 3.60938 361.223 3.60938 360.91 3.60938C360.52 3.6875 360.246 3.84375 360.09 4.07812Z" stroke="#F537B5"/>
<path d="M369.582 4.66406L370.285 0.796875H374.152L373.449 4.66406H369.582ZM366.184 24.4688L369.23 7.47656H372.863L369.934 24.4688H366.184Z" stroke="#F537B5"/>
<path d="M380.598 24.4688C378.879 24.4688 377.668 24.2344 376.965 23.7656C376.184 23.2969 375.793 22.4375 375.793 21.1875C375.793 20.4844 375.949 19.1953 376.262 17.3203L379.309 0.5625H382.941L380.012 17.3203C379.699 18.8047 379.543 19.7812 379.543 20.25C379.543 20.5625 379.621 20.7969 379.777 20.9531C379.934 21.1875 380.207 21.3047 380.598 21.3047C380.91 21.3828 381.496 21.4219 382.355 21.4219H383.996L382.707 24.4688H380.598Z" stroke="#F537B5"/>
<path d="M395.832 7.24219C397.473 7.24219 398.684 7.47656 399.465 7.94531C400.246 8.49219 400.637 9.39062 400.637 10.6406C400.637 11.1094 400.598 11.5391 400.52 11.9297L400.168 14.2734C399.934 15.6016 399.543 16.5391 398.996 17.0859C398.371 17.6328 397.434 17.9062 396.184 17.9062H389.621L389.387 18.8438C389.309 19.3906 389.27 19.8203 389.27 20.1328C389.27 20.6797 389.426 21.0312 389.738 21.1875C390.051 21.3438 390.676 21.4219 391.613 21.4219H397.59L396.418 24.4688H390.793C388.918 24.4688 387.59 24.1953 386.809 23.6484C385.949 23.1797 385.52 22.3203 385.52 21.0703C385.52 20.5234 385.598 19.8203 385.754 18.9609L386.926 12.2812C387.16 11.1875 387.434 10.3672 387.746 9.82031C387.98 9.27344 388.293 8.84375 388.684 8.53125C389.152 8.0625 389.816 7.71094 390.676 7.47656C391.457 7.32031 392.512 7.24219 393.84 7.24219H395.832ZM396.887 11.9297V11.2266C396.887 10.9141 396.809 10.6797 396.652 10.5234C396.496 10.3672 395.988 10.2891 395.129 10.2891H393.02C392.082 10.2891 391.496 10.4453 391.262 10.7578C390.949 11.1484 390.715 11.6562 390.559 12.2812L390.09 14.9766H395.246C395.559 14.9766 395.832 14.8984 396.066 14.7422C396.301 14.6641 396.457 14.3906 396.535 13.9219L396.887 11.9297Z" stroke="#F537B5"/>
<path d="M425.012 7.47656C426.887 7.47656 428.254 7.75 429.113 8.29688C429.973 8.92188 430.402 9.97656 430.402 11.4609C430.402 12.0859 430.246 13.1406 429.934 14.625L429.348 18.6094C429.035 20.1719 428.723 21.2656 428.41 21.8906C428.098 22.5156 427.746 22.9844 427.355 23.2969C426.887 23.7656 426.262 24.0781 425.48 24.2344C424.621 24.3906 423.566 24.4688 422.316 24.4688H418.098L417.16 29.8594H413.41L417.395 7.47656H425.012ZM426.301 14.625C426.535 13.4531 426.652 12.5547 426.652 11.9297C426.652 11.3828 426.457 10.9922 426.066 10.7578C425.676 10.6016 425.012 10.5234 424.074 10.5234H420.559L418.566 21.5391H422.551C423.02 21.5391 423.449 21.5 423.84 21.4219C424.23 21.3438 424.504 21.1484 424.66 20.8359C425.051 20.4453 425.363 19.7031 425.598 18.6094L426.301 14.625Z" stroke="#F537B5"/>
<path d="M442.238 7.47656C443.957 7.47656 445.168 7.71094 445.871 8.17969C446.574 8.72656 446.926 9.50781 446.926 10.5234C446.926 10.9141 446.809 11.9297 446.574 13.5703L444.699 24.4688H435.676C434.895 24.4688 434.23 24.3516 433.684 24.1172C433.059 23.9609 432.59 23.6484 432.277 23.1797C431.965 22.7891 431.809 22.2422 431.809 21.5391C431.809 20.9141 431.926 19.9766 432.16 18.7266L432.395 17.6719C432.629 16.5781 432.941 15.7578 433.332 15.2109C433.723 14.6641 434.27 14.2734 434.973 14.0391C435.676 13.8828 436.848 13.8047 438.488 13.8047H442.941C443.098 12.7109 443.176 11.9688 443.176 11.5781C443.176 11.2656 443.02 10.9922 442.707 10.7578C442.395 10.6016 441.848 10.5234 441.066 10.5234H434.973L434.504 7.47656H442.238ZM436.73 21.4219H441.535L442.473 16.6172H437.668C437.277 16.6172 436.926 16.6953 436.613 16.8516C436.301 17.0078 436.105 17.4375 436.027 18.1406L435.91 18.7266C435.676 19.8984 435.559 20.5625 435.559 20.7188C435.559 21.1875 435.949 21.4219 436.73 21.4219Z" stroke="#F537B5"/>
<path d="M458.059 7.24219C460.012 7.24219 461.418 7.55469 462.277 8.17969C463.059 8.80469 463.449 9.82031 463.449 11.2266C463.449 11.9297 463.332 12.9844 463.098 14.3906L461.223 24.9375C461.066 25.9531 460.832 26.8125 460.52 27.5156C460.129 28.2188 459.582 28.7656 458.879 29.1562C458.098 29.625 456.887 29.8594 455.246 29.8594H448.801L448.332 26.8125H454.426C455.363 26.8125 455.988 26.7344 456.301 26.5781C456.613 26.4219 456.887 26.1875 457.121 25.875C457.277 25.6406 457.434 25.0156 457.59 24L457.824 22.8281H453.605C451.652 22.8281 450.285 22.5156 449.504 21.8906C448.645 21.2656 448.215 20.25 448.215 18.8438C448.215 18.2188 448.332 17.1641 448.566 15.6797L449.035 13.1016C449.191 11.8516 449.426 10.875 449.738 10.1719C449.973 9.46875 450.363 8.88281 450.91 8.41406C451.379 8.02344 452.043 7.71094 452.902 7.47656C453.684 7.32031 454.738 7.24219 456.066 7.24219H458.059ZM454.543 19.7812H458.41L459.348 14.3906C459.582 13.2188 459.699 12.3203 459.699 11.6953C459.699 11.1484 459.504 10.7578 459.113 10.5234C458.723 10.3672 458.02 10.2891 457.004 10.2891H455.832C454.738 10.2891 453.996 10.4844 453.605 10.875C453.215 11.2656 452.941 12.0078 452.785 13.1016L452.316 15.6797C452.082 16.8516 451.965 17.7109 451.965 18.2578C451.965 18.8828 452.16 19.2734 452.551 19.4297C452.863 19.6641 453.527 19.7812 454.543 19.7812Z" stroke="#F537B5"/>
<path d="M475.285 7.24219C476.926 7.24219 478.137 7.47656 478.918 7.94531C479.699 8.49219 480.09 9.39062 480.09 10.6406C480.09 11.1094 480.051 11.5391 479.973 11.9297L479.621 14.2734C479.387 15.6016 478.996 16.5391 478.449 17.0859C477.824 17.6328 476.887 17.9062 475.637 17.9062H469.074L468.84 18.8438C468.762 19.3906 468.723 19.8203 468.723 20.1328C468.723 20.6797 468.879 21.0312 469.191 21.1875C469.504 21.3438 470.129 21.4219 471.066 21.4219H477.043L475.871 24.4688H470.246C468.371 24.4688 467.043 24.1953 466.262 23.6484C465.402 23.1797 464.973 22.3203 464.973 21.0703C464.973 20.5234 465.051 19.8203 465.207 18.9609L466.379 12.2812C466.613 11.1875 466.887 10.3672 467.199 9.82031C467.434 9.27344 467.746 8.84375 468.137 8.53125C468.605 8.0625 469.27 7.71094 470.129 7.47656C470.91 7.32031 471.965 7.24219 473.293 7.24219H475.285ZM476.34 11.9297V11.2266C476.34 10.9141 476.262 10.6797 476.105 10.5234C475.949 10.3672 475.441 10.2891 474.582 10.2891H472.473C471.535 10.2891 470.949 10.4453 470.715 10.7578C470.402 11.1484 470.168 11.6562 470.012 12.2812L469.543 14.9766H474.699C475.012 14.9766 475.285 14.8984 475.52 14.7422C475.754 14.6641 475.91 14.3906 475.988 13.9219L476.34 11.9297Z" stroke="#F537B5"/>
</svg>

