<svg id="logo" class="logo" width="531" height="135" viewBox="0 0 430 115" fill="none" xmlns="http://www.w3.org/2000/svg">
<style>
* {
    margin: 0;
    padding: 0;
}
body {
    width: 100%;
    height: 100vh;
    background: #333;
}

.logo {
    position: absolute;
    top: 50%;
    left: 55%;
    transform: translate(-50%, -50%);
    animation: fill-anm 500ms ease forwards 3000ms;
}

.logo path:nth-child(1) {
    stroke-dasharray: 600;
    stroke-dashoffset: 600;
    animation: line-anm 3s ease forwards;
}

.logo path:nth-child(2) {
    stroke-dasharray: 600;
    stroke-dashoffset: 600;
    animation: line-anm 3s ease forwards 300ms;
}

.logo path:nth-child(3) {
    stroke-dasharray: 600;
    stroke-dashoffset: 600;
    animation: line-anm 3s ease forwards 600ms;
}

.logo path:nth-child(4) {
    stroke-dasharray: 600;
    stroke-dashoffset: 600;
    animation: line-anm 3s ease forwards 900ms;
}

.logo path:nth-child(5) {
    stroke-dasharray: 600;
    stroke-dashoffset: 600;
    animation: line-anm 3s ease forwards 1200ms;
}

.logo path:nth-child(6) {
    stroke-dasharray: 600;
    stroke-dashoffset: 600;
    animation: line-anm 3s ease forwards 1500ms;
}

.logo path:nth-child(7) {
    stroke-dasharray: 600;
    stroke-dashoffset: 600;
    animation: line-anm 3s ease forwards 1800ms;
}
    
.logo path:nth-child(8) {
    stroke-dasharray: 600;
    stroke-dashoffset: 600;
    animation: line-anm 3s ease forwards 2100ms;
}

.logo path:nth-child(9) {
    stroke-dasharray: 600;
    stroke-dashoffset: 600;
    animation: line-anm 2s ease forwards 900ms;
}

.logo path:nth-child(10) {
    stroke-dasharray: 600;
    stroke-dashoffset: 600;
    animation: line-anm 2s ease forwards 1800ms;
}

.logo path:nth-child(11) {
    stroke-dasharray: 600;
    stroke-dashoffset: 600;
    animation: line-anm 2s ease forwards 600ms;
}

.logo path:nth-child(12) {
    stroke-dasharray: 600;
    stroke-dashoffset: 600;
    animation: line-anm 2s ease forwards 900ms;
}


.logo path:nth-child(13) {
    stroke-dasharray: 600;
    stroke-dashoffset: 600;
    animation: line-anm 2s ease forwards 1200ms;
}

.logo path:nth-child(14) {
    stroke-dasharray: 600;
    stroke-dashoffset: 600;
    animation: line-anm 2s ease forwards 1500ms;
}


.logo path:nth-child(15) {
    stroke-dasharray: 600;
    stroke-dashoffset: 600;
    animation: line-anm 2s ease forwards 1800ms;
}

.logo path:nth-child(16) {
    stroke-dasharray: 600;
    stroke-dashoffset: 600;
    animation: line-anm 2s ease forwards 2100ms;
}


.logo path:nth-child(17) {
    stroke-dasharray: 600;
    stroke-dashoffset: 600;
    animation: line-anm 2s ease forwards 2400ms;
}

.logo path:nth-child(18) {
    stroke-dasharray: 600;
    stroke-dashoffset: 600;
    animation: line-anm 2s ease forwards 600ms;
}


.logo path:nth-child(19) {
    stroke-dasharray: 600;
    stroke-dashoffset: 600;
    animation: line-anm 2s ease forwards 900ms;
}

.logo path:nth-child(20) {
    stroke-dasharray: 600;
    stroke-dashoffset: 600;
    animation: line-anm 2s ease forwards 1200ms;
}


.logo path:nth-child(21) {
    stroke-dasharray: 600;
    stroke-dashoffset: 600;
    animation: line-anm 2s ease forwards 1500ms;
}

.logo path:nth-child(22) {
    stroke-dasharray: 600;
    stroke-dashoffset: 600;
    animation: line-anm 2s ease forwards 1800ms;
}


.logo path:nth-child(23) {
    stroke-dasharray: 600;
    stroke-dashoffset: 600;
    animation: line-anm 2s ease forwards 2100ms;
}

.logo path:nth-child(24) {
    stroke-dasharray: 600;
    stroke-dashoffset: 600;
    animation: line-anm 2s ease forwards 2400ms;
}


.logo path:nth-child(25) {
    stroke-dasharray: 600;
    stroke-dashoffset: 600;
    animation: line-anm 2s ease forwards 1500ms;
}

.logo path:nth-child(26) {
    stroke-dasharray: 600;
    stroke-dashoffset: 600;
    animation: line-anm 2s ease forwards 1800ms;
}

.logo path:nth-child(27) {
    stroke-dasharray: 600;
    stroke-dashoffset: 600;
    animation: line-anm 2s ease forwards 2000ms;
}

.logo path:nth-child(28) {
    stroke-dasharray: 600;
    stroke-dashoffset: 600;
    animation: line-anm 2s ease forwards 2400ms;
}

@keyframes line-anm {
    to {
        stroke-dashoffset: 0;
    }
}

@keyframes fill-anm {
    from {
        fill: transparent;
    }
    to {
        fill: #FD3FD3;
    }
}
</style>



<path d="M18.7087 57.1548C23.11 57.1548 26.5332 56.3696 28.9784 54.7991C31.4236 53.1745 32.6462 50.5752 32.6462 47.0011C32.6462 44.9433 32.2386 43.2375 31.4236 41.8836C30.6628 40.4757 29.6304 39.3114 28.3264 38.3908C27.0223 37.416 25.528 36.6037 23.8435 35.9539C22.1591 35.2499 20.3931 34.5188 18.5457 33.7607C16.2092 32.8401 14.1172 31.8924 12.2697 30.9177C10.4223 29.9429 8.84648 28.8599 7.54239 27.6685C6.2383 26.423 5.23306 25.015 4.52668 23.4446C3.87463 21.8741 3.54861 20.0329 3.54861 17.921C3.54861 13.1014 5.15156 9.44603 8.35745 6.95499C11.5633 4.46396 16.019 3.21844 21.7244 3.21844C23.2458 3.21844 24.7401 3.32675 26.2072 3.54336C27.6743 3.75997 29.0327 4.05781 30.2825 4.43688C31.5866 4.7618 32.7548 5.14087 33.7872 5.5741C34.874 6.00732 35.7705 6.46762 36.4769 6.95499L34.5208 11.5851C32.945 10.502 31.016 9.63557 28.7339 8.98573C26.5061 8.3359 24.0881 8.01098 21.4799 8.01098C19.6867 8.01098 18.0295 8.20051 16.508 8.57959C15.0409 8.9045 13.764 9.47311 12.6773 10.2854C11.5905 11.0435 10.7211 12.0183 10.0691 13.2097C9.47136 14.401 9.1725 15.8361 9.1725 17.5148C9.1725 19.2477 9.49853 20.7098 10.1506 21.9012C10.8026 23.0926 11.6992 24.1215 12.8403 24.9879C14.0357 25.8544 15.4213 26.6396 16.9971 27.3436C18.5728 28.0476 20.2845 28.7786 22.1319 29.5368C24.3597 30.4574 26.4517 31.378 28.4079 32.2986C30.4183 33.2192 32.1571 34.3022 33.6242 35.5478C35.0913 36.7933 36.2596 38.3096 37.129 40.0966C37.9984 41.8836 38.4331 44.0768 38.4331 46.6762C38.4331 51.7666 36.6399 55.5843 33.0537 58.1295C29.5218 60.6747 24.7129 61.9473 18.6272 61.9473C16.4537 61.9473 14.4704 61.8119 12.6773 61.5412C10.8841 61.2704 9.28118 60.9455 7.86841 60.5664C6.45565 60.1332 5.26023 59.7 4.28216 59.2667C3.30409 58.8335 2.54337 58.4544 2 58.1295L3.79313 53.337C4.3365 53.6619 5.07005 54.041 5.99378 54.4742C6.91751 54.9074 8.00426 55.3407 9.25401 55.7739C10.5038 56.1529 11.9165 56.4779 13.4923 56.7486C15.0681 57.0194 16.8069 57.1548 18.7087 57.1548Z" stroke="#FD3FD3" stroke-width="3"/>
<path d="M53.3161 18.7333H70.1063V23.2009H53.3161V45.539C53.3161 47.9217 53.5063 49.8712 53.8867 51.3875C54.3214 52.8496 54.9191 53.9868 55.6798 54.7991C56.4405 55.6114 57.3643 56.153 58.451 56.4237C59.5377 56.6945 60.7332 56.8299 62.0373 56.8299C64.2651 56.8299 66.0582 56.5862 67.4166 56.0988C68.7751 55.5573 69.8346 55.0699 70.5954 54.6367L71.8994 59.0231C71.1387 59.5104 69.8075 60.079 67.9057 60.7289C66.0039 61.3246 63.9391 61.6224 61.7112 61.6224C59.103 61.6224 56.9024 61.2975 55.1093 60.6476C53.3705 59.9437 51.9577 58.9148 50.871 57.5609C49.8386 56.1529 49.105 54.4201 48.6703 52.3622C48.2356 50.3044 48.0183 47.8675 48.0183 45.0516V6.38639L53.3161 5.41164V18.7333Z" stroke="#FD3FD3" stroke-width="3"/>
<path d="M93.1495 56.9111C95.2143 56.9111 97.0075 56.8569 98.5289 56.7486C100.105 56.5862 101.436 56.3966 102.523 56.18V41.3963C101.925 41.1255 100.974 40.8547 99.67 40.584C98.3659 40.2591 96.5728 40.0966 94.2906 40.0966C92.9865 40.0966 91.6281 40.2049 90.2153 40.4215C88.8025 40.584 87.4984 40.9901 86.303 41.64C85.1076 42.2356 84.1295 43.075 83.3688 44.1581C82.6081 45.2411 82.2277 46.6762 82.2277 48.4632C82.2277 50.0337 82.4723 51.3604 82.9613 52.4435C83.5047 53.5265 84.2382 54.393 85.162 55.0428C86.14 55.6926 87.2811 56.18 88.5852 56.5049C89.9436 56.7757 91.4651 56.9111 93.1495 56.9111ZM92.6605 17.7585C95.4317 17.7585 97.7682 18.1647 99.67 18.977C101.626 19.7351 103.202 20.8182 104.397 22.2261C105.593 23.5799 106.462 25.2045 107.005 27.0999C107.549 28.9952 107.821 31.0531 107.821 33.2733V59.7541C107.277 59.9166 106.489 60.1061 105.457 60.3227C104.424 60.4852 103.229 60.6747 101.871 60.8913C100.512 61.1079 98.9908 61.2704 97.3063 61.3787C95.6762 61.5412 93.9917 61.6224 92.2529 61.6224C90.0251 61.6224 87.9603 61.3787 86.0585 60.8913C84.211 60.404 82.5809 59.6458 81.1682 58.6169C79.8097 57.5338 78.723 56.18 77.9079 54.5554C77.1472 52.8767 76.7669 50.846 76.7669 48.4632C76.7669 46.1888 77.2016 44.2393 78.071 42.6147C78.9404 40.9901 80.1629 39.6634 81.7387 38.6345C83.3145 37.5514 85.1891 36.7662 87.3626 36.2788C89.5361 35.7914 91.8998 35.5478 94.4536 35.5478C95.2143 35.5478 96.0022 35.6019 96.8173 35.7102C97.6867 35.7644 98.5017 35.8727 99.2624 36.0351C100.077 36.1434 100.757 36.2788 101.3 36.4413C101.898 36.5496 102.305 36.6579 102.523 36.7662V34.1669C102.523 32.7047 102.414 31.2967 102.197 29.9429C101.979 28.5349 101.49 27.2894 100.73 26.2064C100.023 25.0692 98.9908 24.1756 97.6323 23.5258C96.3282 22.8218 94.5894 22.4698 92.416 22.4698C89.3187 22.4698 87.0094 22.6864 85.488 23.1196C83.9665 23.5529 82.8526 23.9049 82.1462 24.1756L81.4127 19.5456C82.3364 19.1123 83.7492 18.7062 85.651 18.3271C87.6071 17.948 89.9436 17.7585 92.6605 17.7585Z" stroke="#FD3FD3" stroke-width="3"/>
<path d="M135.678 17.921C137.417 17.921 139.047 18.0564 140.569 18.3271C142.144 18.5979 143.231 18.8686 143.829 19.1394L142.769 23.6883C142.335 23.4716 141.438 23.255 140.08 23.0384C138.776 22.7677 137.037 22.6323 134.863 22.6323C132.581 22.6323 130.734 22.7947 129.321 23.1196C127.962 23.4446 127.066 23.7153 126.631 23.9319V60.7289H121.333V20.6828C122.692 20.0871 124.566 19.4914 126.957 18.8957C129.348 18.2459 132.255 17.921 135.678 17.921Z" stroke="#FD3FD3" stroke-width="3"/>
<path d="M166.163 17.921C167.902 17.921 169.532 18.0564 171.054 18.3271C172.629 18.5979 173.716 18.8686 174.314 19.1394L173.254 23.6883C172.82 23.4716 171.923 23.255 170.565 23.0384C169.261 22.7677 167.522 22.6323 165.348 22.6323C163.066 22.6323 161.219 22.7947 159.806 23.1196C158.447 23.4446 157.551 23.7153 157.116 23.9319V60.7289H151.818V20.6828C153.177 20.0871 155.051 19.4914 157.442 18.8957C159.833 18.2459 162.74 17.921 166.163 17.921Z" stroke="#FD3FD3" stroke-width="3"/>
<path d="M195.547 61.6224C193.754 58.3191 192.015 54.8804 190.33 51.3063C188.7 47.7322 187.152 44.131 185.685 40.5027C184.272 36.8203 182.968 33.165 181.772 29.5368C180.577 25.8544 179.545 22.2532 178.675 18.7333H184.299C184.897 21.3326 185.657 24.1486 186.581 27.1811C187.505 30.1595 188.537 33.2463 189.678 36.4413C190.874 39.6363 192.178 42.9126 193.591 46.27C195.003 49.6275 196.525 52.9308 198.155 56.18C199.35 52.8225 200.41 49.6546 201.334 46.6762C202.257 43.6978 203.1 40.7464 203.86 37.8222C204.675 34.8438 205.436 31.8112 206.143 28.7245C206.903 25.6378 207.691 22.3074 208.506 18.7333H213.804C212.065 26.5854 210.082 34.221 207.854 41.64C205.626 49.0589 203.208 55.8551 200.6 62.0285C199.568 64.4654 198.508 66.5503 197.421 68.2832C196.335 70.0703 195.112 71.5324 193.754 72.6696C192.45 73.8068 190.901 74.6462 189.108 75.1877C187.369 75.7292 185.304 76 182.913 76C181.555 76 180.305 75.8375 179.164 75.5126C178.077 75.1877 177.398 74.944 177.127 74.7816L178.186 70.3952C178.403 70.5576 179.001 70.7742 179.979 71.045C181.012 71.3699 182.071 71.5324 183.158 71.5324C184.679 71.5324 186.038 71.3699 187.233 71.045C188.483 70.7201 189.597 70.1515 190.575 69.3392C191.553 68.581 192.422 67.5792 193.183 66.3337C193.998 65.0882 194.786 63.5177 195.547 61.6224Z" stroke="#FD3FD3" stroke-width="3"/>
<path d="M255.098 55.9363V60.7289H222.984V4.43688H228.527V55.9363H255.098Z" stroke="#FD3FD3" stroke-width="3"/>
<path d="M268.868 60.7289H263.57V18.7333H268.868V60.7289ZM270.091 6.06147C270.091 7.30699 269.71 8.30882 268.95 9.06696C268.189 9.77095 267.265 10.1229 266.179 10.1229C265.092 10.1229 264.168 9.77095 263.407 9.06696C262.647 8.30882 262.266 7.30699 262.266 6.06147C262.266 4.81595 262.647 3.8412 263.407 3.13721C264.168 2.37907 265.092 2 266.179 2C267.265 2 268.189 2.37907 268.95 3.13721C269.71 3.8412 270.091 4.81595 270.091 6.06147Z" stroke="#FD3FD3" stroke-width="3"/>
<path d="M282.912 20.1954C284.488 19.7622 286.607 19.2748 289.27 18.7333C291.932 18.1917 295.192 17.921 299.05 17.921C302.256 17.921 304.919 18.3813 307.038 19.3019C309.211 20.2225 310.923 21.5492 312.173 23.2821C313.477 24.9609 314.4 26.9916 314.944 29.3743C315.487 31.757 315.759 34.3835 315.759 37.2536V60.7289H310.461V38.9594C310.461 35.981 310.244 33.4629 309.809 31.405C309.429 29.3472 308.749 27.6685 307.771 26.3688C306.848 25.0692 305.598 24.1486 304.022 23.607C302.501 23.0113 300.572 22.7135 298.235 22.7135C295.736 22.7135 293.562 22.8489 291.715 23.1196C289.922 23.3904 288.753 23.6341 288.21 23.8507V60.7289H282.912V20.1954Z" stroke="#FD3FD3" stroke-width="3"/>
<path d="M356.784 55.8551C356.458 56.1259 355.969 56.4508 355.317 56.8299C354.664 57.1548 353.849 57.5068 352.871 57.8858C351.948 58.2649 350.861 58.5898 349.611 58.8606C348.416 59.0772 347.057 59.1855 345.536 59.1855C343.091 59.1855 340.727 58.8064 338.445 58.0483C336.163 57.2902 334.152 56.0988 332.413 54.4742C330.729 52.8496 329.371 50.7647 328.338 48.2195C327.306 45.6202 326.79 42.4793 326.79 38.7969C326.79 35.8185 327.251 33.0567 328.175 30.5115C329.099 27.9663 330.403 25.7731 332.087 23.9319C333.826 22.0366 335.918 20.5745 338.363 19.5456C340.863 18.4625 343.661 17.921 346.758 17.921C350.671 17.921 353.795 18.1917 356.132 18.7333C358.522 19.2206 360.479 19.708 362 20.1954V58.5357C362 64.8174 360.37 69.285 357.11 71.9385C353.849 74.6462 348.932 76 342.357 76C339.64 76 337.168 75.7834 334.94 75.3502C332.767 74.9711 330.892 74.5108 329.316 73.9693L330.376 69.1767C331.68 69.7724 333.446 70.2869 335.674 70.7201C337.956 71.1533 340.238 71.3699 342.52 71.3699C347.519 71.3699 351.133 70.3952 353.36 68.4457C355.643 66.5503 356.784 63.2741 356.784 58.6169V55.8551ZM356.702 23.8507C355.778 23.58 354.583 23.3363 353.116 23.1196C351.649 22.8489 349.557 22.7135 346.84 22.7135C344.558 22.7135 342.52 23.1197 340.727 23.9319C338.988 24.6901 337.494 25.8002 336.244 27.2623C334.994 28.6703 334.044 30.3761 333.391 32.3798C332.739 34.3293 332.413 36.4954 332.413 38.8782C332.413 41.64 332.794 44.0227 333.554 46.0263C334.315 47.9759 335.293 49.5734 336.489 50.8189C337.738 52.0644 339.151 52.985 340.727 53.5807C342.303 54.1222 343.906 54.393 345.536 54.393C347.927 54.393 350.1 54.041 352.056 53.337C354.067 52.633 355.615 51.8207 356.702 50.9001V23.8507Z" stroke="#FD3FD3" stroke-width="3"/>
</svg>


