<svg id="logo" class="logo"  viewBox="-60 -60 870 240" fill="none" xmlns="http://www.w3.org/2000/svg">
<style>
* {
    margin: 0;
    padding: 0;
}
body {
    width: 100%;
    height: 100vh;
    background: #333;
}

.logo {
    position: absolute;
    top: 50%;
    left: 50%;
    transform: translate(-50%, -50%);
    animation: fill-anm 500ms ease forwards 2800ms;
}

.logo path:nth-child(1) {
    stroke-dasharray: 497;
    stroke-dashoffset: 497;
    animation: line-anm 2s ease forwards;
}

.logo path:nth-child(2) {
    stroke-dasharray: 497;
    stroke-dashoffset: 497;
    animation: line-anm 2s ease forwards 300ms;
}

.logo path:nth-child(3) {
    stroke-dasharray: 400;
    stroke-dashoffset: 400;
    animation: line-anm 2s ease forwards 600ms;
}

.logo path:nth-child(4) {
    stroke-dasharray: 497;
    stroke-dashoffset: 497;
    animation: line-anm 2s ease forwards 900ms;
}

.logo path:nth-child(5) {
    stroke-dasharray: 497;
    stroke-dashoffset: 497;
    animation: line-anm 2s ease forwards 1200ms;
}

.logo path:nth-child(6) {
    stroke-dasharray: 497;
    stroke-dashoffset: 497;
    animation: line-anm 2s ease forwards 1500ms;
}

.logo path:nth-child(7) {
    stroke-dasharray: 600;
    stroke-dashoffset: 600;
    animation: line-anm 2s ease forwards 1800ms;
}
    
.logo path:nth-child(8) {
    stroke-dasharray: 600;
    stroke-dashoffset: 600;
    animation: line-anm 2s ease forwards 1800ms;
}

@keyframes line-anm {
    to {
        stroke-dashoffset: 0;
    }
}

@keyframes fill-anm {
    from {
        fill: transparent;
    }
    to {
        fill: pink;
    }
}
</style>



<path d="M22.9486 104.3C15.4952 104.127 10.2086 102.523 7.08857 99.49C3.96857 96.4567 2.40857 91.7333 2.40857 85.32V4.19999L14.4986 2.12V83.37C14.4986 85.3633 14.6719 87.01 15.0186 88.31C15.3652 89.61 15.9286 90.65 16.7086 91.43C17.4886 92.21 18.5286 92.8167 19.8286 93.25C21.1286 93.5967 22.7319 93.9 24.6386 94.16L22.9486 104.3Z" stroke="#E627BC" stroke-width="3"/>
<path d="M50.3054 103H38.2154V35.4H50.3054V103ZM44.1954 23.18C42.0288 23.18 40.1654 22.4867 38.6054 21.1C37.1321 19.6267 36.3954 17.6767 36.3954 15.25C36.3954 12.8233 37.1321 10.9167 38.6054 9.52999C40.1654 8.05666 42.0288 7.31999 44.1954 7.31999C46.3621 7.31999 48.1821 8.05666 49.6554 9.52999C51.2154 10.9167 51.9954 12.8233 51.9954 15.25C51.9954 17.6767 51.2154 19.6267 49.6554 21.1C48.1821 22.4867 46.3621 23.18 44.1954 23.18Z" stroke="#E627BC" stroke-width="3"/>
<path d="M71.0963 37.35C73.8696 36.6567 77.553 35.92 82.1463 35.14C86.7396 34.36 92.0263 33.97 98.0063 33.97C103.38 33.97 107.843 34.75 111.396 36.31C114.95 37.7833 117.766 39.9067 119.846 42.68C122.013 45.3667 123.53 48.6167 124.396 52.43C125.263 56.2433 125.696 60.4467 125.696 65.04V103H113.606V67.64C113.606 63.48 113.303 59.9267 112.696 56.98C112.176 54.0333 111.266 51.65 109.966 49.83C108.666 48.01 106.933 46.71 104.766 45.93C102.6 45.0633 99.913 44.63 96.7063 44.63C95.4063 44.63 94.063 44.6733 92.6763 44.76C91.2896 44.8467 89.9463 44.9767 88.6463 45.15C87.433 45.2367 86.3063 45.3667 85.2663 45.54C84.313 45.7133 83.6196 45.8433 83.1863 45.93V103H71.0963V37.35Z" stroke="#E627BC" stroke-width="3"/>
<path d="M188.125 96.24C187.085 96.9333 185.048 97.8433 182.015 98.97C179.068 100.01 175.601 100.53 171.615 100.53C167.541 100.53 163.685 99.88 160.045 98.58C156.491 97.28 153.371 95.2867 150.685 92.6C147.998 89.8267 145.875 86.4033 144.315 82.33C142.755 78.2567 141.975 73.4033 141.975 67.77C141.975 62.83 142.711 58.3233 144.185 54.25C145.658 50.09 147.781 46.5367 150.555 43.59C153.415 40.5567 156.881 38.2167 160.955 36.57C165.028 34.8367 169.621 33.97 174.735 33.97C180.368 33.97 185.265 34.4033 189.425 35.27C193.671 36.05 197.225 36.7867 200.085 37.48V97.8C200.085 108.2 197.398 115.74 192.025 120.42C186.651 125.1 178.505 127.44 167.585 127.44C163.338 127.44 159.308 127.093 155.495 126.4C151.768 125.707 148.518 124.883 145.745 123.93L147.955 113.4C150.381 114.353 153.328 115.177 156.795 115.87C160.348 116.65 164.031 117.04 167.845 117.04C175.038 117.04 180.195 115.61 183.315 112.75C186.521 109.89 188.125 105.34 188.125 99.1V96.24ZM187.995 46.06C186.781 45.7133 185.135 45.41 183.055 45.15C181.061 44.8033 178.331 44.63 174.865 44.63C168.365 44.63 163.338 46.7533 159.785 51C156.318 55.2467 154.585 60.88 154.585 67.9C154.585 71.8 155.061 75.1367 156.015 77.91C157.055 80.6833 158.398 82.98 160.045 84.8C161.778 86.62 163.728 87.9633 165.895 88.83C168.148 89.6967 170.445 90.13 172.785 90.13C175.991 90.13 178.938 89.6967 181.625 88.83C184.311 87.8767 186.435 86.7933 187.995 85.58V46.06Z" stroke="#E627BC" stroke-width="3"/>
<path d="M217.131 69.33C217.131 63.35 217.998 58.15 219.731 53.73C221.464 49.2233 223.761 45.4967 226.621 42.55C229.481 39.6033 232.774 37.3933 236.501 35.92C240.228 34.4467 244.041 33.71 247.941 33.71C257.041 33.71 264.018 36.57 268.871 42.29C273.724 47.9233 276.151 56.5467 276.151 68.16C276.151 68.68 276.151 69.3733 276.151 70.24C276.151 71.02 276.108 71.7567 276.021 72.45H229.741C230.261 79.47 232.298 84.8 235.851 88.44C239.404 92.08 244.951 93.9 252.491 93.9C256.738 93.9 260.291 93.5533 263.151 92.86C266.098 92.08 268.308 91.3433 269.781 90.65L271.471 100.79C269.998 101.57 267.398 102.393 263.671 103.26C260.031 104.127 255.871 104.56 251.191 104.56C245.298 104.56 240.184 103.693 235.851 101.96C231.604 100.14 228.094 97.67 225.321 94.55C222.548 91.43 220.468 87.7467 219.081 83.5C217.781 79.1667 217.131 74.4433 217.131 69.33ZM263.541 62.7C263.628 57.24 262.241 52.7767 259.381 49.31C256.608 45.7567 252.751 43.98 247.811 43.98C245.038 43.98 242.568 44.5433 240.401 45.67C238.321 46.71 236.544 48.0967 235.071 49.83C233.598 51.5633 232.428 53.5567 231.561 55.81C230.781 58.0633 230.261 60.36 230.001 62.7H263.541Z" stroke="#E627BC" stroke-width="3"/>
<path d="M318.478 33.97C319.518 33.97 320.688 34.0567 321.988 34.23C323.375 34.3167 324.718 34.49 326.018 34.75C327.318 34.9233 328.488 35.14 329.528 35.4C330.655 35.5733 331.478 35.7467 331.998 35.92L329.918 46.45C328.965 46.1033 327.361 45.7133 325.108 45.28C322.941 44.76 320.125 44.5 316.658 44.5C314.405 44.5 312.151 44.76 309.898 45.28C307.731 45.7133 306.301 46.0167 305.608 46.19V103H293.518V38.26C296.378 37.22 299.931 36.2667 304.178 35.4C308.425 34.4467 313.192 33.97 318.478 33.97Z" stroke="#E627BC" stroke-width="3"/>
<path d="M401.327 103C398.9 96.76 396.3 89.6533 393.527 81.68C390.84 73.62 388.37 65.2567 386.117 56.59C383.863 65.2567 381.393 73.62 378.707 81.68C376.02 89.6533 373.463 96.76 371.037 103H360.507C356.52 94.0733 352.62 83.89 348.807 72.45C344.993 61.01 341.397 48.66 338.017 35.4H351.017C351.883 39.4733 352.923 43.8933 354.137 48.66C355.35 53.4267 356.607 58.1933 357.907 62.96C359.293 67.7267 360.723 72.32 362.197 76.74C363.67 81.16 365.057 85.0167 366.357 88.31C367.83 84.2367 369.26 79.9467 370.647 75.44C372.12 70.8467 373.507 66.2533 374.807 61.66C376.107 56.98 377.32 52.43 378.447 48.01C379.66 43.5033 380.7 39.3 381.567 35.4H391.577C392.357 39.3 393.31 43.5033 394.437 48.01C395.563 52.43 396.777 56.98 398.077 61.66C399.377 66.2533 400.72 70.8467 402.107 75.44C403.58 79.9467 405.053 84.2367 406.527 88.31C407.827 85.0167 409.17 81.16 410.557 76.74C412.03 72.32 413.46 67.7267 414.847 62.96C416.233 58.1933 417.533 53.4267 418.747 48.66C419.96 43.8933 421 39.4733 421.867 35.4H434.347C430.967 48.66 427.37 61.01 423.557 72.45C419.743 83.89 415.843 94.0733 411.857 103H401.327Z" stroke="#E627BC" stroke-width="3"/>
    </svg>
