<svg id="logo" class="logo" width="531" height="135" viewBox="0 0 500 135" fill="none" xmlns="http://www.w3.org/2000/svg">
<style>
* {
    margin: 0;
    padding: 0;
}
body {
    width: 100%;
    height: 100vh;
    background: #333;
}

.logo {
    position: absolute;
    top: 50%;
    left: 55%;
    transform: translate(-50%, -50%);
    animation: fill-anm 500ms ease forwards 3000ms;
}

.logo path:nth-child(1) {
    stroke-dasharray: 600;
    stroke-dashoffset: 600;
    animation: line-anm 3s ease forwards;
}

.logo path:nth-child(2) {
    stroke-dasharray: 600;
    stroke-dashoffset: 600;
    animation: line-anm 3s ease forwards 300ms;
}

.logo path:nth-child(3) {
    stroke-dasharray: 600;
    stroke-dashoffset: 600;
    animation: line-anm 3s ease forwards 600ms;
}

.logo path:nth-child(4) {
    stroke-dasharray: 600;
    stroke-dashoffset: 600;
    animation: line-anm 3s ease forwards 900ms;
}

.logo path:nth-child(5) {
    stroke-dasharray: 600;
    stroke-dashoffset: 600;
    animation: line-anm 3s ease forwards 1200ms;
}

.logo path:nth-child(6) {
    stroke-dasharray: 600;
    stroke-dashoffset: 600;
    animation: line-anm 3s ease forwards 1500ms;
}

.logo path:nth-child(7) {
    stroke-dasharray: 600;
    stroke-dashoffset: 600;
    animation: line-anm 3s ease forwards 1800ms;
}
    
.logo path:nth-child(8) {
    stroke-dasharray: 600;
    stroke-dashoffset: 600;
    animation: line-anm 3s ease forwards 2100ms;
}

.logo path:nth-child(9) {
    stroke-dasharray: 600;
    stroke-dashoffset: 600;
    animation: line-anm 2s ease forwards 900ms;
}

.logo path:nth-child(10) {
    stroke-dasharray: 600;
    stroke-dashoffset: 600;
    animation: line-anm 2s ease forwards 1800ms;
}

.logo path:nth-child(11) {
    stroke-dasharray: 600;
    stroke-dashoffset: 600;
    animation: line-anm 2s ease forwards 600ms;
}

.logo path:nth-child(12) {
    stroke-dasharray: 600;
    stroke-dashoffset: 600;
    animation: line-anm 2s ease forwards 900ms;
}


.logo path:nth-child(13) {
    stroke-dasharray: 600;
    stroke-dashoffset: 600;
    animation: line-anm 2s ease forwards 1200ms;
}

.logo path:nth-child(14) {
    stroke-dasharray: 600;
    stroke-dashoffset: 600;
    animation: line-anm 2s ease forwards 1500ms;
}


.logo path:nth-child(15) {
    stroke-dasharray: 600;
    stroke-dashoffset: 600;
    animation: line-anm 2s ease forwards 1800ms;
}

.logo path:nth-child(16) {
    stroke-dasharray: 600;
    stroke-dashoffset: 600;
    animation: line-anm 2s ease forwards 2100ms;
}


.logo path:nth-child(17) {
    stroke-dasharray: 600;
    stroke-dashoffset: 600;
    animation: line-anm 2s ease forwards 2400ms;
}

.logo path:nth-child(18) {
    stroke-dasharray: 600;
    stroke-dashoffset: 600;
    animation: line-anm 2s ease forwards 600ms;
}


.logo path:nth-child(19) {
    stroke-dasharray: 600;
    stroke-dashoffset: 600;
    animation: line-anm 2s ease forwards 900ms;
}

.logo path:nth-child(20) {
    stroke-dasharray: 600;
    stroke-dashoffset: 600;
    animation: line-anm 2s ease forwards 1200ms;
}


.logo path:nth-child(21) {
    stroke-dasharray: 600;
    stroke-dashoffset: 600;
    animation: line-anm 2s ease forwards 1500ms;
}

.logo path:nth-child(22) {
    stroke-dasharray: 600;
    stroke-dashoffset: 600;
    animation: line-anm 2s ease forwards 1800ms;
}


.logo path:nth-child(23) {
    stroke-dasharray: 600;
    stroke-dashoffset: 600;
    animation: line-anm 2s ease forwards 2100ms;
}

.logo path:nth-child(24) {
    stroke-dasharray: 600;
    stroke-dashoffset: 600;
    animation: line-anm 2s ease forwards 2400ms;
}


.logo path:nth-child(25) {
    stroke-dasharray: 600;
    stroke-dashoffset: 600;
    animation: line-anm 2s ease forwards 1500ms;
}

.logo path:nth-child(26) {
    stroke-dasharray: 600;
    stroke-dashoffset: 600;
    animation: line-anm 2s ease forwards 1800ms;
}

.logo path:nth-child(27) {
    stroke-dasharray: 600;
    stroke-dashoffset: 600;
    animation: line-anm 2s ease forwards 2000ms;
}

.logo path:nth-child(28) {
    stroke-dasharray: 600;
    stroke-dashoffset: 600;
    animation: line-anm 2s ease forwards 2400ms;
}

@keyframes line-anm {
    to {
        stroke-dashoffset: 0;
    }
}

@keyframes fill-anm {
    from {
        fill: transparent;
    }
    to {
        fill: #3FA2FD;
    }
}
</style>




<path d="M17.668 58.1909C21.7951 58.1909 25.0051 57.4488 27.298 55.9647C29.5909 54.4295 30.7373 51.973 30.7373 48.5954C30.7373 46.6508 30.3552 45.0387 29.5909 43.7593C28.8775 42.4288 27.9094 41.3285 26.6866 40.4585C25.4637 39.5373 24.0625 38.7697 22.483 38.1556C20.9034 37.4903 19.2475 36.7994 17.5151 36.083C15.3241 35.213 13.3624 34.3174 11.6301 33.3963C9.89767 32.4751 8.42004 31.4516 7.19717 30.3257C5.97431 29.1487 5.03168 27.8181 4.3693 26.334C3.75787 24.8499 3.45215 23.11 3.45215 21.1141C3.45215 16.5595 4.95526 13.1051 7.96146 10.751C10.9677 8.39696 15.1458 7.21992 20.4958 7.21992C21.9225 7.21992 23.3237 7.32227 24.6994 7.52697C26.0751 7.73167 27.349 8.01314 28.5209 8.37137C29.7437 8.67842 30.8392 9.03665 31.8073 9.44606C32.8264 9.85546 33.6671 10.2905 34.3295 10.751L32.4952 15.1266C31.0176 14.103 29.2087 13.2842 27.0687 12.6701C24.9797 12.056 22.7123 11.749 20.2665 11.749C18.5851 11.749 17.031 11.9281 15.6044 12.2863C14.2286 12.5934 13.0313 13.1307 12.0122 13.8983C10.9931 14.6148 10.1779 15.536 9.56647 16.6618C9.00599 17.7877 8.72575 19.1438 8.72575 20.7303C8.72575 22.3679 9.03147 23.7497 9.6429 24.8755C10.2543 26.0014 11.0951 26.9737 12.1651 27.7925C13.286 28.6113 14.5853 29.3534 16.0629 30.0187C17.5406 30.684 19.1456 31.3748 20.878 32.0913C22.967 32.9613 24.9287 33.8313 26.763 34.7012C28.6483 35.5712 30.2787 36.5947 31.6545 37.7718C33.0302 38.9488 34.1257 40.3817 34.9409 42.0705C35.7562 43.7593 36.1638 45.832 36.1638 48.2884C36.1638 53.0989 34.4823 56.7068 31.1195 59.112C27.8075 61.5173 23.2982 62.7199 17.5915 62.7199C15.5534 62.7199 13.6936 62.592 12.0122 62.3361C10.3308 62.0802 8.82766 61.7732 7.50289 61.4149C6.17812 61.0055 5.05716 60.5961 4.14001 60.1867C3.22286 59.7773 2.50953 59.4191 2 59.112L3.68144 54.583C4.19097 54.89 4.87883 55.2483 5.74502 55.6577C6.61122 56.0671 7.63027 56.4765 8.80218 56.8859C9.9741 57.2441 11.2989 57.5512 12.7765 57.8071C14.2541 58.0629 15.8846 58.1909 17.668 58.1909Z" stroke="#3FA2FD" stroke-width="3"/>
<path d="M50.1198 21.8817H65.8642V26.1037H50.1198V47.2137C50.1198 49.4654 50.2982 51.3077 50.6548 52.7407C51.0625 54.1224 51.6229 55.1971 52.3363 55.9647C53.0496 56.7324 53.9158 57.2441 54.9349 57.5C55.9539 57.7559 57.0749 57.8838 58.2977 57.8838C60.3868 57.8838 62.0682 57.6535 63.3421 57.193C64.6159 56.6812 65.6095 56.2206 66.3228 55.8112L67.5457 59.9564C66.8323 60.417 65.584 60.9544 63.8006 61.5685C62.0173 62.1314 60.0811 62.4129 57.992 62.4129C55.5463 62.4129 53.4827 62.1058 51.8013 61.4917C50.1708 60.8264 48.846 59.8541 47.827 58.5747C46.8589 57.2441 46.171 55.6065 45.7634 53.6618C45.3558 51.7172 45.1519 49.4142 45.1519 46.7531V10.2137L50.1198 9.29253V21.8817Z" stroke="#3FA2FD" stroke-width="3"/>
<path d="M87.4721 57.9606C89.4083 57.9606 91.0898 57.9094 92.5164 57.8071C93.9941 57.6535 95.2424 57.4744 96.2615 57.2697V43.2988C95.701 43.0429 94.8093 42.787 93.5864 42.5311C92.3636 42.2241 90.6821 42.0705 88.5421 42.0705C87.3193 42.0705 86.0455 42.1729 84.7207 42.3776C83.3959 42.5311 82.173 42.9149 81.0521 43.529C79.9311 44.092 79.014 44.8852 78.3006 45.9087C77.5873 46.9322 77.2306 48.2884 77.2306 49.9772C77.2306 51.4613 77.4599 52.7151 77.9185 53.7386C78.428 54.7621 79.1159 55.5809 79.9821 56.195C80.8992 56.8091 81.9692 57.2697 83.1921 57.5768C84.4659 57.8326 85.8926 57.9606 87.4721 57.9606ZM87.0136 20.9606C89.6121 20.9606 91.8031 21.3444 93.5864 22.112C95.4207 22.8285 96.8984 23.852 98.0193 25.1826C99.1403 26.462 99.9555 27.9972 100.465 29.7884C100.975 31.5795 101.229 33.5242 101.229 35.6224V60.6473C100.72 60.8008 99.981 60.9799 99.0129 61.1847C98.0448 61.3382 96.9238 61.5173 95.65 61.722C94.3762 61.9267 92.9495 62.0802 91.37 62.1826C89.8414 62.3361 88.2619 62.4129 86.6314 62.4129C84.5424 62.4129 82.6061 62.1826 80.8228 61.722C79.0904 61.2614 77.5618 60.545 76.2371 59.5726C74.9632 58.5491 73.9442 57.2697 73.1799 55.7344C72.4666 54.148 72.1099 52.2289 72.1099 49.9772C72.1099 47.8278 72.5175 45.9855 73.3328 44.4502C74.148 42.9149 75.2944 41.6611 76.7721 40.6888C78.2497 39.6653 80.0076 38.9232 82.0457 38.4627C84.0838 38.0021 86.3002 37.7718 88.695 37.7718C89.4083 37.7718 90.1471 37.823 90.9114 37.9253C91.7267 37.9765 92.491 38.0788 93.2043 38.2324C93.9686 38.3347 94.6055 38.4627 95.115 38.6162C95.6755 38.7185 96.0577 38.8209 96.2615 38.9232V36.4668C96.2615 35.0851 96.1596 33.7545 95.9557 32.4751C95.7519 31.1445 95.2934 29.9675 94.58 28.944C93.9176 27.8693 92.9495 27.0249 91.6757 26.4108C90.4529 25.7455 88.8224 25.4129 86.7843 25.4129C83.88 25.4129 81.7145 25.6176 80.2878 26.027C78.8611 26.4364 77.8166 26.769 77.1542 27.0249L76.4664 22.6494C77.3325 22.24 78.6573 21.8562 80.4407 21.4979C82.275 21.1397 84.4659 20.9606 87.0136 20.9606Z" stroke="#3FA2FD" stroke-width="3"/>
<path d="M127.352 21.1141C128.982 21.1141 130.511 21.242 131.938 21.4979C133.415 21.7538 134.434 22.0097 134.995 22.2656L134.001 26.5643C133.594 26.3596 132.753 26.1549 131.479 25.9502C130.256 25.6943 128.626 25.5664 126.588 25.5664C124.448 25.5664 122.715 25.7199 121.39 26.027C120.117 26.334 119.276 26.5899 118.868 26.7946V61.5685H113.9V23.7241C115.174 23.1611 116.932 22.5982 119.174 22.0353C121.416 21.4212 124.142 21.1141 127.352 21.1141Z" stroke="#3FA2FD" stroke-width="3"/>
<path d="M155.938 21.1141C157.569 21.1141 159.097 21.242 160.524 21.4979C162.002 21.7538 163.021 22.0097 163.581 22.2656L162.588 26.5643C162.18 26.3596 161.339 26.1549 160.065 25.9502C158.843 25.6943 157.212 25.5664 155.174 25.5664C153.034 25.5664 151.302 25.7199 149.977 26.027C148.703 26.334 147.862 26.5899 147.455 26.7946V61.5685H142.487V23.7241C143.761 23.1611 145.518 22.5982 147.76 22.0353C150.002 21.4212 152.728 21.1141 155.938 21.1141Z" stroke="#3FA2FD" stroke-width="3"/>
<path d="M183.491 62.4129C181.81 59.2912 180.18 56.0415 178.6 52.6639C177.071 49.2863 175.619 45.8831 174.244 42.4544C172.919 38.9744 171.696 35.5201 170.575 32.0913C169.454 28.6113 168.486 25.2082 167.671 21.8817H172.944C173.505 24.3382 174.218 26.9993 175.084 29.8651C175.95 32.6798 176.919 35.5968 177.989 38.6162C179.11 41.6355 180.332 44.7317 181.657 47.9046C182.982 51.0775 184.409 54.1992 185.937 57.2697C187.058 54.0968 188.052 51.103 188.918 48.2884C189.784 45.4737 190.574 42.6846 191.287 39.9212C192.052 37.1065 192.765 34.2407 193.427 31.3237C194.141 28.4066 194.879 25.2593 195.644 21.8817H200.612C198.981 29.3022 197.121 36.518 195.032 43.529C192.943 50.5401 190.676 56.9627 188.23 62.7967C187.262 65.0996 186.268 67.0699 185.249 68.7075C184.23 70.3963 183.084 71.778 181.81 72.8527C180.587 73.9274 179.135 74.7206 177.454 75.2324C175.823 75.7441 173.887 76 171.645 76C170.371 76 169.199 75.8465 168.129 75.5394C167.11 75.2324 166.473 75.0021 166.219 74.8486L167.212 70.7033C167.416 70.8568 167.976 71.0616 168.894 71.3174C169.862 71.6245 170.855 71.778 171.874 71.778C173.301 71.778 174.575 71.6245 175.696 71.3174C176.868 71.0104 177.912 70.473 178.829 69.7054C179.746 68.9889 180.562 68.0422 181.275 66.8652C182.039 65.6881 182.778 64.204 183.491 62.4129Z" stroke="#3FA2FD" stroke-width="3"/>
<path d="M235.559 21.8817C236.018 24.4405 236.604 27.1784 237.317 30.0954C238.081 32.9613 238.897 35.9039 239.763 38.9232C240.68 41.8914 241.623 44.834 242.591 47.751C243.61 50.6681 244.629 53.406 245.648 55.9647C246.514 54.0201 247.431 51.666 248.399 48.9025C249.368 46.0878 250.336 43.1452 251.304 40.0747C252.272 36.953 253.164 33.8313 253.979 30.7095C254.845 27.5367 255.558 24.5941 256.119 21.8817H261.01C259.176 29.6604 257.163 36.7739 254.972 43.222C252.832 49.6701 250.463 55.7856 247.864 61.5685H243.202C242.438 59.7773 241.623 57.7815 240.757 55.5809C239.941 53.3292 239.075 50.9495 238.158 48.4419C237.292 45.8831 236.426 43.222 235.559 40.4585C234.744 37.6438 233.954 34.778 233.19 31.861C232.426 34.778 231.611 37.6438 230.744 40.4585C229.929 43.222 229.063 45.8831 228.146 48.4419C227.28 50.9495 226.413 53.3292 225.547 55.5809C224.732 57.7815 223.942 59.7773 223.178 61.5685H218.439C215.841 55.7856 213.446 49.6701 211.255 43.222C209.115 36.7739 207.128 29.6604 205.293 21.8817H210.567C211.128 24.5941 211.815 27.5367 212.631 30.7095C213.497 33.8313 214.414 36.953 215.382 40.0747C216.35 43.1452 217.318 46.0622 218.286 48.8257C219.305 51.5892 220.248 53.9433 221.114 55.888C222.082 53.3292 223.05 50.5913 224.019 47.6743C225.038 44.7573 225.98 41.8147 226.846 38.8465C227.713 35.8783 228.528 32.9613 229.292 30.0954C230.056 27.1784 230.719 24.4405 231.279 21.8817H235.559Z" stroke="#3FA2FD" stroke-width="3"/>
<path d="M274.339 61.5685H269.371V21.8817H274.339V61.5685ZM275.485 9.90664C275.485 11.0837 275.128 12.0304 274.415 12.7469C273.702 13.4122 272.836 13.7448 271.817 13.7448C270.798 13.7448 269.931 13.4122 269.218 12.7469C268.505 12.0304 268.148 11.0837 268.148 9.90664C268.148 8.7296 268.505 7.80844 269.218 7.14315C269.931 6.42669 270.798 6.06846 271.817 6.06846C272.836 6.06846 273.702 6.42669 274.415 7.14315C275.128 7.80844 275.485 8.7296 275.485 9.90664Z" stroke="#3FA2FD" stroke-width="3"/>
<path d="M295.609 58.0373C298.463 58.0373 300.806 57.5768 302.641 56.6556C304.526 55.6833 305.469 54.0712 305.469 51.8195C305.469 50.7448 305.29 49.8237 304.934 49.056C304.628 48.2884 304.093 47.5975 303.329 46.9834C302.564 46.3693 301.545 45.7808 300.271 45.2178C299.049 44.6549 297.52 43.9896 295.686 43.222C294.208 42.6079 292.807 41.9938 291.482 41.3797C290.157 40.7144 288.985 39.9723 287.966 39.1535C286.947 38.2835 286.132 37.26 285.521 36.083C284.909 34.9059 284.603 33.473 284.603 31.7842C284.603 28.5602 285.801 25.9502 288.196 23.9544C290.641 21.9585 293.979 20.9606 298.208 20.9606C300.908 20.9606 303.125 21.1909 304.857 21.6515C306.641 22.112 307.889 22.5214 308.602 22.8797L307.456 27.332C306.844 27.0249 305.8 26.6155 304.322 26.1037C302.895 25.592 300.781 25.3361 297.979 25.3361C296.858 25.3361 295.788 25.464 294.769 25.7199C293.8 25.9246 292.934 26.2829 292.17 26.7946C291.406 27.2552 290.794 27.8693 290.336 28.6369C289.877 29.3534 289.648 30.249 289.648 31.3237C289.648 32.3983 289.852 33.3195 290.259 34.0871C290.667 34.8548 291.253 35.5456 292.017 36.1598C292.832 36.7227 293.8 37.26 294.921 37.7718C296.093 38.2835 297.418 38.8465 298.896 39.4606C300.424 40.0747 301.876 40.7144 303.252 41.3797C304.679 41.9938 305.927 42.7614 306.997 43.6826C308.067 44.5526 308.933 45.6273 309.596 46.9066C310.258 48.1349 310.589 49.6957 310.589 51.5892C310.589 55.1715 309.239 57.8838 306.539 59.7261C303.889 61.5685 300.246 62.4896 295.609 62.4896C292.144 62.4896 289.495 62.1826 287.661 61.5685C285.826 61.0055 284.603 60.5705 283.992 60.2635L285.291 55.7344C285.444 55.8368 285.775 56.0159 286.285 56.2718C286.794 56.4765 287.482 56.7324 288.349 57.0394C289.215 57.2953 290.234 57.5256 291.406 57.7303C292.629 57.935 294.03 58.0373 295.609 58.0373Z" stroke="#3FA2FD" stroke-width="3"/>
<path d="M320.199 61.5685V2.92116L325.167 2V23.0332C326.797 22.4191 328.453 21.9585 330.135 21.6515C331.816 21.2932 333.498 21.1141 335.179 21.1141C338.236 21.1141 340.784 21.5491 342.822 22.4191C344.86 23.2891 346.491 24.5429 347.714 26.1805C348.936 27.7669 349.777 29.686 350.236 31.9378C350.745 34.1895 351 36.6715 351 39.3838V61.5685H346.032V40.9959C346.032 38.1812 345.828 35.8015 345.421 33.8568C345.064 31.9122 344.427 30.3257 343.51 29.0975C342.644 27.8693 341.472 26.9993 339.994 26.4876C338.517 25.9246 336.657 25.6432 334.415 25.6432C333.549 25.6432 332.606 25.7199 331.587 25.8734C330.619 26.027 329.702 26.2061 328.836 26.4108C327.969 26.5643 327.18 26.7434 326.466 26.9481C325.804 27.1528 325.371 27.3064 325.167 27.4087V61.5685H320.199Z" stroke="#3FA2FD" stroke-width="3"/>
</svg>

